<?xml version="1.0" encoding="utf-8" standalone="no"?>
<!DOCTYPE svg PUBLIC "-//W3C//DTD SVG 1.1//EN"
  "http://www.w3.org/Graphics/SVG/1.1/DTD/svg11.dtd">
<svg xmlns:xlink="http://www.w3.org/1999/xlink" width="1152pt" height="504pt" viewBox="0 0 1152 504" xmlns="http://www.w3.org/2000/svg" version="1.1">
 <metadata>
  <rdf:RDF xmlns:dc="http://purl.org/dc/elements/1.1/" xmlns:cc="http://creativecommons.org/ns#" xmlns:rdf="http://www.w3.org/1999/02/22-rdf-syntax-ns#">
   <cc:Work>
    <dc:type rdf:resource="http://purl.org/dc/dcmitype/StillImage"/>
    <dc:date>2026-08-06T01:05:24.865628</dc:date>
    <dc:format>image/svg+xml</dc:format>
    <dc:creator>
     <cc:Agent>
      <dc:title>Matplotlib v3.10.9, https://matplotlib.org/</dc:title>
     </cc:Agent>
    </dc:creator>
   </cc:Work>
  </rdf:RDF>
 </metadata>
 <defs>
  <style type="text/css">*{stroke-linejoin: round; stroke-linecap: butt}</style>
 </defs>
 <g id="figure_1">
  <g id="patch_1">
   <path d="M 0 504 
L 1152 504 
L 1152 0 
L 0 0 
z
" style="fill: #ffffff"/>
  </g>
  <g id="axes_1">
   <g id="patch_2">
    <path d="M 69.12 433.44 
L 840.96 433.44 
L 840.96 20.16 
L 69.12 20.16 
z
" style="fill: #ffffff"/>
   </g>
   <g id="matplotlib.axis_1">
    <g id="xtick_1">
     <g id="line2d_1">
      <path d="M 104.203636 433.44 
L 104.203636 20.16 
" clip-path="url(#pe603d231d5)" style="fill: none; stroke: #cccccc; stroke-width: 0.8; stroke-linecap: round"/>
     </g>
     <g id="text_1">
      <!-- $\mathdefault{10^{3}}$ -->
      <g style="fill: #262626" transform="translate(90.387636 459.89) scale(0.176 -0.176)">
       <defs>
        <path id="ArialMT-31" d="M 2384 0 
L 1822 0 
L 1822 3584 
Q 1619 3391 1289 3197 
Q 959 3003 697 2906 
L 697 3450 
Q 1169 3672 1522 3987 
Q 1875 4303 2022 4600 
L 2384 4600 
L 2384 0 
z
" transform="scale(0.015625)"/>
        <path id="ArialMT-30" d="M 266 2259 
Q 266 3072 433 3567 
Q 600 4063 929 4331 
Q 1259 4600 1759 4600 
Q 2128 4600 2406 4451 
Q 2684 4303 2865 4023 
Q 3047 3744 3150 3342 
Q 3253 2941 3253 2259 
Q 3253 1453 3087 958 
Q 2922 463 2592 192 
Q 2263 -78 1759 -78 
Q 1097 -78 719 397 
Q 266 969 266 2259 
z
M 844 2259 
Q 844 1131 1108 757 
Q 1372 384 1759 384 
Q 2147 384 2411 759 
Q 2675 1134 2675 2259 
Q 2675 3391 2411 3762 
Q 2147 4134 1753 4134 
Q 1366 4134 1134 3806 
Q 844 3388 844 2259 
z
" transform="scale(0.015625)"/>
        <path id="ArialMT-33" d="M 269 1209 
L 831 1284 
Q 928 806 1161 595 
Q 1394 384 1728 384 
Q 2125 384 2398 659 
Q 2672 934 2672 1341 
Q 2672 1728 2419 1979 
Q 2166 2231 1775 2231 
Q 1616 2231 1378 2169 
L 1441 2663 
Q 1497 2656 1531 2656 
Q 1891 2656 2178 2843 
Q 2466 3031 2466 3422 
Q 2466 3731 2256 3934 
Q 2047 4138 1716 4138 
Q 1388 4138 1169 3931 
Q 950 3725 888 3313 
L 325 3413 
Q 428 3978 793 4289 
Q 1159 4600 1703 4600 
Q 2078 4600 2393 4439 
Q 2709 4278 2876 4000 
Q 3044 3722 3044 3409 
Q 3044 3113 2884 2869 
Q 2725 2625 2413 2481 
Q 2819 2388 3044 2092 
Q 3269 1797 3269 1353 
Q 3269 753 2831 336 
Q 2394 -81 1725 -81 
Q 1122 -81 723 278 
Q 325 638 269 1209 
z
" transform="scale(0.015625)"/>
       </defs>
       <use xlink:href="#ArialMT-31" transform="translate(0 0.99375)"/>
       <use xlink:href="#ArialMT-30" transform="translate(55.615234 0.99375)"/>
       <use xlink:href="#ArialMT-33" transform="translate(112.972813 70.6875) scale(0.7)"/>
      </g>
     </g>
    </g>
    <g id="xtick_2">
     <g id="line2d_2">
      <path d="M 250.197488 433.44 
L 250.197488 20.16 
" clip-path="url(#pe603d231d5)" style="fill: none; stroke: #cccccc; stroke-width: 0.8; stroke-linecap: round"/>
     </g>
     <g id="text_2">
      <!-- $\mathdefault{10^{4}}$ -->
      <g style="fill: #262626" transform="translate(236.381488 459.714) scale(0.176 -0.176)">
       <defs>
        <path id="ArialMT-34" d="M 2069 0 
L 2069 1097 
L 81 1097 
L 81 1613 
L 2172 4581 
L 2631 4581 
L 2631 1613 
L 3250 1613 
L 3250 1097 
L 2631 1097 
L 2631 0 
L 2069 0 
z
M 2069 1613 
L 2069 3678 
L 634 1613 
L 2069 1613 
z
" transform="scale(0.015625)"/>
       </defs>
       <use xlink:href="#ArialMT-31" transform="translate(0 0.201563)"/>
       <use xlink:href="#ArialMT-30" transform="translate(55.615234 0.201563)"/>
       <use xlink:href="#ArialMT-34" transform="translate(112.972813 69.895313) scale(0.7)"/>
      </g>
     </g>
    </g>
    <g id="xtick_3">
     <g id="line2d_3">
      <path d="M 396.19134 433.44 
L 396.19134 20.16 
" clip-path="url(#pe603d231d5)" style="fill: none; stroke: #cccccc; stroke-width: 0.8; stroke-linecap: round"/>
     </g>
     <g id="text_3">
      <!-- $\mathdefault{10^{5}}$ -->
      <g style="fill: #262626" transform="translate(382.37534 459.714) scale(0.176 -0.176)">
       <defs>
        <path id="ArialMT-35" d="M 266 1200 
L 856 1250 
Q 922 819 1161 601 
Q 1400 384 1738 384 
Q 2144 384 2425 690 
Q 2706 997 2706 1503 
Q 2706 1984 2436 2262 
Q 2166 2541 1728 2541 
Q 1456 2541 1237 2417 
Q 1019 2294 894 2097 
L 366 2166 
L 809 4519 
L 3088 4519 
L 3088 3981 
L 1259 3981 
L 1013 2750 
Q 1425 3038 1878 3038 
Q 2478 3038 2890 2622 
Q 3303 2206 3303 1553 
Q 3303 931 2941 478 
Q 2500 -78 1738 -78 
Q 1113 -78 717 272 
Q 322 622 266 1200 
z
" transform="scale(0.015625)"/>
       </defs>
       <use xlink:href="#ArialMT-31" transform="translate(0 0.879688)"/>
       <use xlink:href="#ArialMT-30" transform="translate(55.615234 0.879688)"/>
       <use xlink:href="#ArialMT-35" transform="translate(112.972813 70.573438) scale(0.7)"/>
      </g>
     </g>
    </g>
    <g id="xtick_4">
     <g id="line2d_4">
      <path d="M 542.185192 433.44 
L 542.185192 20.16 
" clip-path="url(#pe603d231d5)" style="fill: none; stroke: #cccccc; stroke-width: 0.8; stroke-linecap: round"/>
     </g>
     <g id="text_4">
      <!-- $\mathdefault{10^{6}}$ -->
      <g style="fill: #262626" transform="translate(528.369192 459.89) scale(0.176 -0.176)">
       <defs>
        <path id="ArialMT-36" d="M 3184 3459 
L 2625 3416 
Q 2550 3747 2413 3897 
Q 2184 4138 1850 4138 
Q 1581 4138 1378 3988 
Q 1113 3794 959 3422 
Q 806 3050 800 2363 
Q 1003 2672 1297 2822 
Q 1591 2972 1913 2972 
Q 2475 2972 2870 2558 
Q 3266 2144 3266 1488 
Q 3266 1056 3080 686 
Q 2894 316 2569 119 
Q 2244 -78 1831 -78 
Q 1128 -78 684 439 
Q 241 956 241 2144 
Q 241 3472 731 4075 
Q 1159 4600 1884 4600 
Q 2425 4600 2770 4297 
Q 3116 3994 3184 3459 
z
M 888 1484 
Q 888 1194 1011 928 
Q 1134 663 1356 523 
Q 1578 384 1822 384 
Q 2178 384 2434 671 
Q 2691 959 2691 1453 
Q 2691 1928 2437 2201 
Q 2184 2475 1800 2475 
Q 1419 2475 1153 2201 
Q 888 1928 888 1484 
z
" transform="scale(0.015625)"/>
       </defs>
       <use xlink:href="#ArialMT-31" transform="translate(0 0.99375)"/>
       <use xlink:href="#ArialMT-30" transform="translate(55.615234 0.99375)"/>
       <use xlink:href="#ArialMT-36" transform="translate(112.972813 70.6875) scale(0.7)"/>
      </g>
     </g>
    </g>
    <g id="xtick_5">
     <g id="line2d_5">
      <path d="M 688.179044 433.44 
L 688.179044 20.16 
" clip-path="url(#pe603d231d5)" style="fill: none; stroke: #cccccc; stroke-width: 0.8; stroke-linecap: round"/>
     </g>
     <g id="text_5">
      <!-- $\mathdefault{10^{7}}$ -->
      <g style="fill: #262626" transform="translate(674.363044 459.714) scale(0.176 -0.176)">
       <defs>
        <path id="ArialMT-37" d="M 303 3981 
L 303 4522 
L 3269 4522 
L 3269 4084 
Q 2831 3619 2401 2847 
Q 1972 2075 1738 1259 
Q 1569 684 1522 0 
L 944 0 
Q 953 541 1156 1306 
Q 1359 2072 1739 2783 
Q 2119 3494 2547 3981 
L 303 3981 
z
" transform="scale(0.015625)"/>
       </defs>
       <use xlink:href="#ArialMT-31" transform="translate(0 0.846875)"/>
       <use xlink:href="#ArialMT-30" transform="translate(55.615234 0.846875)"/>
       <use xlink:href="#ArialMT-37" transform="translate(112.972813 70.540625) scale(0.7)"/>
      </g>
     </g>
    </g>
    <g id="xtick_6">
     <g id="line2d_6">
      <path d="M 834.172896 433.44 
L 834.172896 20.16 
" clip-path="url(#pe603d231d5)" style="fill: none; stroke: #cccccc; stroke-width: 0.8; stroke-linecap: round"/>
     </g>
     <g id="text_6">
      <!-- $\mathdefault{10^{8}}$ -->
      <g style="fill: #262626" transform="translate(820.356896 459.89) scale(0.176 -0.176)">
       <defs>
        <path id="ArialMT-38" d="M 1131 2484 
Q 781 2613 612 2850 
Q 444 3088 444 3419 
Q 444 3919 803 4259 
Q 1163 4600 1759 4600 
Q 2359 4600 2725 4251 
Q 3091 3903 3091 3403 
Q 3091 3084 2923 2848 
Q 2756 2613 2416 2484 
Q 2838 2347 3058 2040 
Q 3278 1734 3278 1309 
Q 3278 722 2862 322 
Q 2447 -78 1769 -78 
Q 1091 -78 675 323 
Q 259 725 259 1325 
Q 259 1772 486 2073 
Q 713 2375 1131 2484 
z
M 1019 3438 
Q 1019 3113 1228 2906 
Q 1438 2700 1772 2700 
Q 2097 2700 2305 2904 
Q 2513 3109 2513 3406 
Q 2513 3716 2298 3927 
Q 2084 4138 1766 4138 
Q 1444 4138 1231 3931 
Q 1019 3725 1019 3438 
z
M 838 1322 
Q 838 1081 952 856 
Q 1066 631 1291 507 
Q 1516 384 1775 384 
Q 2178 384 2440 643 
Q 2703 903 2703 1303 
Q 2703 1709 2433 1975 
Q 2163 2241 1756 2241 
Q 1359 2241 1098 1978 
Q 838 1716 838 1322 
z
" transform="scale(0.015625)"/>
       </defs>
       <use xlink:href="#ArialMT-31" transform="translate(0 0.99375)"/>
       <use xlink:href="#ArialMT-30" transform="translate(55.615234 0.99375)"/>
       <use xlink:href="#ArialMT-38" transform="translate(112.972813 70.6875) scale(0.7)"/>
      </g>
     </g>
    </g>
    <g id="xtick_7"/>
    <g id="xtick_8"/>
    <g id="xtick_9"/>
    <g id="xtick_10"/>
    <g id="xtick_11"/>
    <g id="xtick_12"/>
    <g id="xtick_13"/>
    <g id="xtick_14"/>
    <g id="xtick_15"/>
    <g id="xtick_16"/>
    <g id="xtick_17"/>
    <g id="xtick_18"/>
    <g id="xtick_19"/>
    <g id="xtick_20"/>
    <g id="xtick_21"/>
    <g id="xtick_22"/>
    <g id="xtick_23"/>
    <g id="xtick_24"/>
    <g id="xtick_25"/>
    <g id="xtick_26"/>
    <g id="xtick_27"/>
    <g id="xtick_28"/>
    <g id="xtick_29"/>
    <g id="xtick_30"/>
    <g id="xtick_31"/>
    <g id="xtick_32"/>
    <g id="xtick_33"/>
    <g id="xtick_34"/>
    <g id="xtick_35"/>
    <g id="xtick_36"/>
    <g id="xtick_37"/>
    <g id="xtick_38"/>
    <g id="xtick_39"/>
    <g id="xtick_40"/>
    <g id="xtick_41"/>
    <g id="xtick_42"/>
    <g id="xtick_43"/>
    <g id="xtick_44"/>
    <g id="xtick_45"/>
    <g id="xtick_46"/>
    <g id="xtick_47"/>
    <g id="xtick_48"/>
    <g id="xtick_49"/>
    <g id="xtick_50"/>
    <g id="text_7">
     <!-- #Cells -->
     <g style="fill: #262626" transform="translate(428.364 481.131) scale(0.192 -0.192)">
      <defs>
       <path id="ArialMT-23" d="M 322 -78 
L 594 1253 
L 66 1253 
L 66 1719 
L 688 1719 
L 919 2853 
L 66 2853 
L 66 3319 
L 1013 3319 
L 1284 4659 
L 1753 4659 
L 1481 3319 
L 2466 3319 
L 2738 4659 
L 3209 4659 
L 2938 3319 
L 3478 3319 
L 3478 2853 
L 2844 2853 
L 2609 1719 
L 3478 1719 
L 3478 1253 
L 2516 1253 
L 2244 -78 
L 1775 -78 
L 2044 1253 
L 1063 1253 
L 791 -78 
L 322 -78 
z
M 1156 1719 
L 2138 1719 
L 2372 2853 
L 1388 2853 
L 1156 1719 
z
" transform="scale(0.015625)"/>
       <path id="ArialMT-43" d="M 3763 1606 
L 4369 1453 
Q 4178 706 3683 314 
Q 3188 -78 2472 -78 
Q 1731 -78 1267 223 
Q 803 525 561 1097 
Q 319 1669 319 2325 
Q 319 3041 592 3573 
Q 866 4106 1370 4382 
Q 1875 4659 2481 4659 
Q 3169 4659 3637 4309 
Q 4106 3959 4291 3325 
L 3694 3184 
Q 3534 3684 3231 3912 
Q 2928 4141 2469 4141 
Q 1941 4141 1586 3887 
Q 1231 3634 1087 3207 
Q 944 2781 944 2328 
Q 944 1744 1114 1308 
Q 1284 872 1643 656 
Q 2003 441 2422 441 
Q 2931 441 3284 734 
Q 3638 1028 3763 1606 
z
" transform="scale(0.015625)"/>
       <path id="ArialMT-65" d="M 2694 1069 
L 3275 997 
Q 3138 488 2766 206 
Q 2394 -75 1816 -75 
Q 1088 -75 661 373 
Q 234 822 234 1631 
Q 234 2469 665 2931 
Q 1097 3394 1784 3394 
Q 2450 3394 2872 2941 
Q 3294 2488 3294 1666 
Q 3294 1616 3291 1516 
L 816 1516 
Q 847 969 1125 678 
Q 1403 388 1819 388 
Q 2128 388 2347 550 
Q 2566 713 2694 1069 
z
M 847 1978 
L 2700 1978 
Q 2663 2397 2488 2606 
Q 2219 2931 1791 2931 
Q 1403 2931 1139 2672 
Q 875 2413 847 1978 
z
" transform="scale(0.015625)"/>
       <path id="ArialMT-6c" d="M 409 0 
L 409 4581 
L 972 4581 
L 972 0 
L 409 0 
z
" transform="scale(0.015625)"/>
       <path id="ArialMT-73" d="M 197 991 
L 753 1078 
Q 800 744 1014 566 
Q 1228 388 1613 388 
Q 2000 388 2187 545 
Q 2375 703 2375 916 
Q 2375 1106 2209 1216 
Q 2094 1291 1634 1406 
Q 1016 1563 777 1677 
Q 538 1791 414 1992 
Q 291 2194 291 2438 
Q 291 2659 392 2848 
Q 494 3038 669 3163 
Q 800 3259 1026 3326 
Q 1253 3394 1513 3394 
Q 1903 3394 2198 3281 
Q 2494 3169 2634 2976 
Q 2775 2784 2828 2463 
L 2278 2388 
Q 2241 2644 2061 2787 
Q 1881 2931 1553 2931 
Q 1166 2931 1000 2803 
Q 834 2675 834 2503 
Q 834 2394 903 2306 
Q 972 2216 1119 2156 
Q 1203 2125 1616 2013 
Q 2213 1853 2448 1751 
Q 2684 1650 2818 1456 
Q 2953 1263 2953 975 
Q 2953 694 2789 445 
Q 2625 197 2315 61 
Q 2006 -75 1616 -75 
Q 969 -75 630 194 
Q 291 463 197 991 
z
" transform="scale(0.015625)"/>
      </defs>
      <use xlink:href="#ArialMT-23"/>
      <use xlink:href="#ArialMT-43" transform="translate(55.615234 0)"/>
      <use xlink:href="#ArialMT-65" transform="translate(127.832031 0)"/>
      <use xlink:href="#ArialMT-6c" transform="translate(183.447266 0)"/>
      <use xlink:href="#ArialMT-6c" transform="translate(205.664062 0)"/>
      <use xlink:href="#ArialMT-73" transform="translate(227.880859 0)"/>
     </g>
    </g>
   </g>
   <g id="matplotlib.axis_2">
    <g id="ytick_1">
     <g id="line2d_7">
      <path d="M 69.12 353.558733 
L 840.96 353.558733 
" clip-path="url(#pe603d231d5)" style="fill: none; stroke: #cccccc; stroke-width: 0.8; stroke-linecap: round"/>
     </g>
     <g id="text_8">
      <!-- −5 -->
      <g style="fill: #262626" transform="translate(40.75325 359.857608) scale(0.176 -0.176)">
       <defs>
        <path id="ArialMT-2212" d="M 3381 1997 
L 356 1997 
L 356 2522 
L 3381 2522 
L 3381 1997 
z
" transform="scale(0.015625)"/>
       </defs>
       <use xlink:href="#ArialMT-2212"/>
       <use xlink:href="#ArialMT-35" transform="translate(58.398438 0)"/>
      </g>
     </g>
    </g>
    <g id="ytick_2">
     <g id="line2d_8">
      <path d="M 69.12 265.822224 
L 840.96 265.822224 
" clip-path="url(#pe603d231d5)" style="fill: none; stroke: #cccccc; stroke-width: 0.8; stroke-linecap: round"/>
     </g>
     <g id="text_9">
      <!-- 0 -->
      <g style="fill: #262626" transform="translate(51.03275 272.121099) scale(0.176 -0.176)">
       <use xlink:href="#ArialMT-30"/>
      </g>
     </g>
    </g>
    <g id="ytick_3">
     <g id="line2d_9">
      <path d="M 69.12 178.085716 
L 840.96 178.085716 
" clip-path="url(#pe603d231d5)" style="fill: none; stroke: #cccccc; stroke-width: 0.8; stroke-linecap: round"/>
     </g>
     <g id="text_10">
      <!-- 5 -->
      <g style="fill: #262626" transform="translate(51.03275 184.384591) scale(0.176 -0.176)">
       <use xlink:href="#ArialMT-35"/>
      </g>
     </g>
    </g>
    <g id="ytick_4">
     <g id="line2d_10">
      <path d="M 69.12 90.349207 
L 840.96 90.349207 
" clip-path="url(#pe603d231d5)" style="fill: none; stroke: #cccccc; stroke-width: 0.8; stroke-linecap: round"/>
     </g>
     <g id="text_11">
      <!-- 10 -->
      <g style="fill: #262626" transform="translate(41.2455 96.648082) scale(0.176 -0.176)">
       <use xlink:href="#ArialMT-31"/>
       <use xlink:href="#ArialMT-30" transform="translate(55.615234 0)"/>
      </g>
     </g>
    </g>
    <g id="text_12">
     <!-- H200 - H100 Bandwidth Difference (GB/s) -->
     <g style="fill: #262626" transform="translate(32.71225 405.3705) rotate(-90) scale(0.192 -0.192)">
      <defs>
       <path id="ArialMT-48" d="M 513 0 
L 513 4581 
L 1119 4581 
L 1119 2700 
L 3500 2700 
L 3500 4581 
L 4106 4581 
L 4106 0 
L 3500 0 
L 3500 2159 
L 1119 2159 
L 1119 0 
L 513 0 
z
" transform="scale(0.015625)"/>
       <path id="ArialMT-32" d="M 3222 541 
L 3222 0 
L 194 0 
Q 188 203 259 391 
Q 375 700 629 1000 
Q 884 1300 1366 1694 
Q 2113 2306 2375 2664 
Q 2638 3022 2638 3341 
Q 2638 3675 2398 3904 
Q 2159 4134 1775 4134 
Q 1369 4134 1125 3890 
Q 881 3647 878 3216 
L 300 3275 
Q 359 3922 746 4261 
Q 1134 4600 1788 4600 
Q 2447 4600 2831 4234 
Q 3216 3869 3216 3328 
Q 3216 3053 3103 2787 
Q 2991 2522 2730 2228 
Q 2469 1934 1863 1422 
Q 1356 997 1212 845 
Q 1069 694 975 541 
L 3222 541 
z
" transform="scale(0.015625)"/>
       <path id="ArialMT-20" transform="scale(0.015625)"/>
       <path id="ArialMT-2d" d="M 203 1375 
L 203 1941 
L 1931 1941 
L 1931 1375 
L 203 1375 
z
" transform="scale(0.015625)"/>
       <path id="ArialMT-42" d="M 469 0 
L 469 4581 
L 2188 4581 
Q 2713 4581 3030 4442 
Q 3347 4303 3526 4014 
Q 3706 3725 3706 3409 
Q 3706 3116 3547 2856 
Q 3388 2597 3066 2438 
Q 3481 2316 3704 2022 
Q 3928 1728 3928 1328 
Q 3928 1006 3792 729 
Q 3656 453 3456 303 
Q 3256 153 2954 76 
Q 2653 0 2216 0 
L 469 0 
z
M 1075 2656 
L 2066 2656 
Q 2469 2656 2644 2709 
Q 2875 2778 2992 2937 
Q 3109 3097 3109 3338 
Q 3109 3566 3000 3739 
Q 2891 3913 2687 3977 
Q 2484 4041 1991 4041 
L 1075 4041 
L 1075 2656 
z
M 1075 541 
L 2216 541 
Q 2509 541 2628 563 
Q 2838 600 2978 687 
Q 3119 775 3209 942 
Q 3300 1109 3300 1328 
Q 3300 1584 3169 1773 
Q 3038 1963 2805 2039 
Q 2572 2116 2134 2116 
L 1075 2116 
L 1075 541 
z
" transform="scale(0.015625)"/>
       <path id="ArialMT-61" d="M 2588 409 
Q 2275 144 1986 34 
Q 1697 -75 1366 -75 
Q 819 -75 525 192 
Q 231 459 231 875 
Q 231 1119 342 1320 
Q 453 1522 633 1644 
Q 813 1766 1038 1828 
Q 1203 1872 1538 1913 
Q 2219 1994 2541 2106 
Q 2544 2222 2544 2253 
Q 2544 2597 2384 2738 
Q 2169 2928 1744 2928 
Q 1347 2928 1158 2789 
Q 969 2650 878 2297 
L 328 2372 
Q 403 2725 575 2942 
Q 747 3159 1072 3276 
Q 1397 3394 1825 3394 
Q 2250 3394 2515 3294 
Q 2781 3194 2906 3042 
Q 3031 2891 3081 2659 
Q 3109 2516 3109 2141 
L 3109 1391 
Q 3109 606 3145 398 
Q 3181 191 3288 0 
L 2700 0 
Q 2613 175 2588 409 
z
M 2541 1666 
Q 2234 1541 1622 1453 
Q 1275 1403 1131 1340 
Q 988 1278 909 1158 
Q 831 1038 831 891 
Q 831 666 1001 516 
Q 1172 366 1500 366 
Q 1825 366 2078 508 
Q 2331 650 2450 897 
Q 2541 1088 2541 1459 
L 2541 1666 
z
" transform="scale(0.015625)"/>
       <path id="ArialMT-6e" d="M 422 0 
L 422 3319 
L 928 3319 
L 928 2847 
Q 1294 3394 1984 3394 
Q 2284 3394 2536 3286 
Q 2788 3178 2913 3003 
Q 3038 2828 3088 2588 
Q 3119 2431 3119 2041 
L 3119 0 
L 2556 0 
L 2556 2019 
Q 2556 2363 2490 2533 
Q 2425 2703 2258 2804 
Q 2091 2906 1866 2906 
Q 1506 2906 1245 2678 
Q 984 2450 984 1813 
L 984 0 
L 422 0 
z
" transform="scale(0.015625)"/>
       <path id="ArialMT-64" d="M 2575 0 
L 2575 419 
Q 2259 -75 1647 -75 
Q 1250 -75 917 144 
Q 584 363 401 755 
Q 219 1147 219 1656 
Q 219 2153 384 2558 
Q 550 2963 881 3178 
Q 1213 3394 1622 3394 
Q 1922 3394 2156 3267 
Q 2391 3141 2538 2938 
L 2538 4581 
L 3097 4581 
L 3097 0 
L 2575 0 
z
M 797 1656 
Q 797 1019 1065 703 
Q 1334 388 1700 388 
Q 2069 388 2326 689 
Q 2584 991 2584 1609 
Q 2584 2291 2321 2609 
Q 2059 2928 1675 2928 
Q 1300 2928 1048 2622 
Q 797 2316 797 1656 
z
" transform="scale(0.015625)"/>
       <path id="ArialMT-77" d="M 1034 0 
L 19 3319 
L 600 3319 
L 1128 1403 
L 1325 691 
Q 1338 744 1497 1375 
L 2025 3319 
L 2603 3319 
L 3100 1394 
L 3266 759 
L 3456 1400 
L 4025 3319 
L 4572 3319 
L 3534 0 
L 2950 0 
L 2422 1988 
L 2294 2553 
L 1622 0 
L 1034 0 
z
" transform="scale(0.015625)"/>
       <path id="ArialMT-69" d="M 425 3934 
L 425 4581 
L 988 4581 
L 988 3934 
L 425 3934 
z
M 425 0 
L 425 3319 
L 988 3319 
L 988 0 
L 425 0 
z
" transform="scale(0.015625)"/>
       <path id="ArialMT-74" d="M 1650 503 
L 1731 6 
Q 1494 -44 1306 -44 
Q 1000 -44 831 53 
Q 663 150 594 308 
Q 525 466 525 972 
L 525 2881 
L 113 2881 
L 113 3319 
L 525 3319 
L 525 4141 
L 1084 4478 
L 1084 3319 
L 1650 3319 
L 1650 2881 
L 1084 2881 
L 1084 941 
Q 1084 700 1114 631 
Q 1144 563 1211 522 
Q 1278 481 1403 481 
Q 1497 481 1650 503 
z
" transform="scale(0.015625)"/>
       <path id="ArialMT-68" d="M 422 0 
L 422 4581 
L 984 4581 
L 984 2938 
Q 1378 3394 1978 3394 
Q 2347 3394 2619 3248 
Q 2891 3103 3008 2847 
Q 3125 2591 3125 2103 
L 3125 0 
L 2563 0 
L 2563 2103 
Q 2563 2525 2380 2717 
Q 2197 2909 1863 2909 
Q 1613 2909 1392 2779 
Q 1172 2650 1078 2428 
Q 984 2206 984 1816 
L 984 0 
L 422 0 
z
" transform="scale(0.015625)"/>
       <path id="ArialMT-44" d="M 494 0 
L 494 4581 
L 2072 4581 
Q 2606 4581 2888 4516 
Q 3281 4425 3559 4188 
Q 3922 3881 4101 3404 
Q 4281 2928 4281 2316 
Q 4281 1794 4159 1391 
Q 4038 988 3847 723 
Q 3656 459 3429 307 
Q 3203 156 2883 78 
Q 2563 0 2147 0 
L 494 0 
z
M 1100 541 
L 2078 541 
Q 2531 541 2789 625 
Q 3047 709 3200 863 
Q 3416 1078 3536 1442 
Q 3656 1806 3656 2325 
Q 3656 3044 3420 3430 
Q 3184 3816 2847 3947 
Q 2603 4041 2063 4041 
L 1100 4041 
L 1100 541 
z
" transform="scale(0.015625)"/>
       <path id="ArialMT-66" d="M 556 0 
L 556 2881 
L 59 2881 
L 59 3319 
L 556 3319 
L 556 3672 
Q 556 4006 616 4169 
Q 697 4388 901 4523 
Q 1106 4659 1475 4659 
Q 1713 4659 2000 4603 
L 1916 4113 
Q 1741 4144 1584 4144 
Q 1328 4144 1222 4034 
Q 1116 3925 1116 3625 
L 1116 3319 
L 1763 3319 
L 1763 2881 
L 1116 2881 
L 1116 0 
L 556 0 
z
" transform="scale(0.015625)"/>
       <path id="ArialMT-72" d="M 416 0 
L 416 3319 
L 922 3319 
L 922 2816 
Q 1116 3169 1280 3281 
Q 1444 3394 1641 3394 
Q 1925 3394 2219 3213 
L 2025 2691 
Q 1819 2813 1613 2813 
Q 1428 2813 1281 2702 
Q 1134 2591 1072 2394 
Q 978 2094 978 1738 
L 978 0 
L 416 0 
z
" transform="scale(0.015625)"/>
       <path id="ArialMT-63" d="M 2588 1216 
L 3141 1144 
Q 3050 572 2676 248 
Q 2303 -75 1759 -75 
Q 1078 -75 664 370 
Q 250 816 250 1647 
Q 250 2184 428 2587 
Q 606 2991 970 3192 
Q 1334 3394 1763 3394 
Q 2303 3394 2647 3120 
Q 2991 2847 3088 2344 
L 2541 2259 
Q 2463 2594 2264 2762 
Q 2066 2931 1784 2931 
Q 1359 2931 1093 2626 
Q 828 2322 828 1663 
Q 828 994 1084 691 
Q 1341 388 1753 388 
Q 2084 388 2306 591 
Q 2528 794 2588 1216 
z
" transform="scale(0.015625)"/>
       <path id="ArialMT-28" d="M 1497 -1347 
Q 1031 -759 709 28 
Q 388 816 388 1659 
Q 388 2403 628 3084 
Q 909 3875 1497 4659 
L 1900 4659 
Q 1522 4009 1400 3731 
Q 1209 3300 1100 2831 
Q 966 2247 966 1656 
Q 966 153 1900 -1347 
L 1497 -1347 
z
" transform="scale(0.015625)"/>
       <path id="ArialMT-47" d="M 2638 1797 
L 2638 2334 
L 4578 2338 
L 4578 638 
Q 4131 281 3656 101 
Q 3181 -78 2681 -78 
Q 2006 -78 1454 211 
Q 903 500 622 1047 
Q 341 1594 341 2269 
Q 341 2938 620 3517 
Q 900 4097 1425 4378 
Q 1950 4659 2634 4659 
Q 3131 4659 3532 4498 
Q 3934 4338 4162 4050 
Q 4391 3763 4509 3300 
L 3963 3150 
Q 3859 3500 3706 3700 
Q 3553 3900 3268 4020 
Q 2984 4141 2638 4141 
Q 2222 4141 1919 4014 
Q 1616 3888 1430 3681 
Q 1244 3475 1141 3228 
Q 966 2803 966 2306 
Q 966 1694 1177 1281 
Q 1388 869 1791 669 
Q 2194 469 2647 469 
Q 3041 469 3416 620 
Q 3791 772 3984 944 
L 3984 1797 
L 2638 1797 
z
" transform="scale(0.015625)"/>
       <path id="ArialMT-2f" d="M 0 -78 
L 1328 4659 
L 1778 4659 
L 453 -78 
L 0 -78 
z
" transform="scale(0.015625)"/>
       <path id="ArialMT-29" d="M 791 -1347 
L 388 -1347 
Q 1322 153 1322 1656 
Q 1322 2244 1188 2822 
Q 1081 3291 891 3722 
Q 769 4003 388 4659 
L 791 4659 
Q 1378 3875 1659 3084 
Q 1900 2403 1900 1659 
Q 1900 816 1576 28 
Q 1253 -759 791 -1347 
z
" transform="scale(0.015625)"/>
      </defs>
      <use xlink:href="#ArialMT-48"/>
      <use xlink:href="#ArialMT-32" transform="translate(72.216797 0)"/>
      <use xlink:href="#ArialMT-30" transform="translate(127.832031 0)"/>
      <use xlink:href="#ArialMT-30" transform="translate(183.447266 0)"/>
      <use xlink:href="#ArialMT-20" transform="translate(239.0625 0)"/>
      <use xlink:href="#ArialMT-2d" transform="translate(266.845703 0)"/>
      <use xlink:href="#ArialMT-20" transform="translate(300.146484 0)"/>
      <use xlink:href="#ArialMT-48" transform="translate(327.929688 0)"/>
      <use xlink:href="#ArialMT-31" transform="translate(400.146484 0)"/>
      <use xlink:href="#ArialMT-30" transform="translate(455.761719 0)"/>
      <use xlink:href="#ArialMT-30" transform="translate(511.376953 0)"/>
      <use xlink:href="#ArialMT-20" transform="translate(566.992188 0)"/>
      <use xlink:href="#ArialMT-42" transform="translate(594.775391 0)"/>
      <use xlink:href="#ArialMT-61" transform="translate(661.474609 0)"/>
      <use xlink:href="#ArialMT-6e" transform="translate(717.089844 0)"/>
      <use xlink:href="#ArialMT-64" transform="translate(772.705078 0)"/>
      <use xlink:href="#ArialMT-77" transform="translate(828.320312 0)"/>
      <use xlink:href="#ArialMT-69" transform="translate(900.537109 0)"/>
      <use xlink:href="#ArialMT-64" transform="translate(922.753906 0)"/>
      <use xlink:href="#ArialMT-74" transform="translate(978.369141 0)"/>
      <use xlink:href="#ArialMT-68" transform="translate(1006.152344 0)"/>
      <use xlink:href="#ArialMT-20" transform="translate(1061.767578 0)"/>
      <use xlink:href="#ArialMT-44" transform="translate(1089.550781 0)"/>
      <use xlink:href="#ArialMT-69" transform="translate(1161.767578 0)"/>
      <use xlink:href="#ArialMT-66" transform="translate(1183.984375 0)"/>
      <use xlink:href="#ArialMT-66" transform="translate(1210.017578 0)"/>
      <use xlink:href="#ArialMT-65" transform="translate(1237.800781 0)"/>
      <use xlink:href="#ArialMT-72" transform="translate(1293.416016 0)"/>
      <use xlink:href="#ArialMT-65" transform="translate(1326.716797 0)"/>
      <use xlink:href="#ArialMT-6e" transform="translate(1382.332031 0)"/>
      <use xlink:href="#ArialMT-63" transform="translate(1437.947266 0)"/>
      <use xlink:href="#ArialMT-65" transform="translate(1487.947266 0)"/>
      <use xlink:href="#ArialMT-20" transform="translate(1543.5625 0)"/>
      <use xlink:href="#ArialMT-28" transform="translate(1571.345703 0)"/>
      <use xlink:href="#ArialMT-47" transform="translate(1604.646484 0)"/>
      <use xlink:href="#ArialMT-42" transform="translate(1682.429688 0)"/>
      <use xlink:href="#ArialMT-2f" transform="translate(1749.128906 0)"/>
      <use xlink:href="#ArialMT-73" transform="translate(1776.912109 0)"/>
      <use xlink:href="#ArialMT-29" transform="translate(1826.912109 0)"/>
     </g>
    </g>
   </g>
   <g id="line2d_11">
    <path d="M 104.203636 265.636375 
L 236.049222 263.928642 
L 313.173946 261.739273 
L 367.894808 269.094778 
L 410.339606 272.06911 
L 445.019532 269.545644 
L 474.340991 266.935005 
L 499.740394 271.096575 
L 522.144255 304.596289 
L 542.185192 271.301301 
L 560.314425 285.670199 
L 576.865117 244.290524 
L 592.090279 309.53864 
L 606.186576 287.392478 
L 619.309916 392.73592 
L 631.58598 369.109958 
L 643.117569 340.59934 
L 653.989841 328.508031 
L 664.274128 307.449681 
L 674.030778 177.335158 
L 692.16001 269.487079 
L 708.710703 246.714798 
L 723.935865 250.940856 
L 738.032162 136.157231 
L 751.155501 164.965483 
L 763.431565 144.169013 
L 774.963155 103.750821 
L 785.835427 112.688581 
L 788.024811 -1 
M 804.639304 -1 
L 805.876364 60.034947 
" clip-path="url(#pe603d231d5)" style="fill: none; stroke: #4c72b0; stroke-width: 1.2; stroke-linecap: round"/>
    <defs>
     <path id="m5afba4ba41" d="M 0 7 
C 1.856422 7 3.637059 6.262436 4.949747 4.949747 
C 6.262436 3.637059 7 1.856422 7 0 
C 7 -1.856422 6.262436 -3.637059 4.949747 -4.949747 
C 3.637059 -6.262436 1.856422 -7 0 -7 
C -1.856422 -7 -3.637059 -6.262436 -4.949747 -4.949747 
C -6.262436 -3.637059 -7 -1.856422 -7 0 
C -7 1.856422 -6.262436 3.637059 -4.949747 4.949747 
C -3.637059 6.262436 -1.856422 7 0 7 
z
" style="stroke: #ffffff; stroke-width: 0.75"/>
    </defs>
    <g clip-path="url(#pe603d231d5)">
     <use xlink:href="#m5afba4ba41" x="104.203636" y="265.636375" style="fill: #4c72b0; stroke: #ffffff; stroke-width: 0.75"/>
     <use xlink:href="#m5afba4ba41" x="236.049222" y="263.928642" style="fill: #4c72b0; stroke: #ffffff; stroke-width: 0.75"/>
     <use xlink:href="#m5afba4ba41" x="313.173946" y="261.739273" style="fill: #4c72b0; stroke: #ffffff; stroke-width: 0.75"/>
     <use xlink:href="#m5afba4ba41" x="367.894808" y="269.094778" style="fill: #4c72b0; stroke: #ffffff; stroke-width: 0.75"/>
     <use xlink:href="#m5afba4ba41" x="410.339606" y="272.06911" style="fill: #4c72b0; stroke: #ffffff; stroke-width: 0.75"/>
     <use xlink:href="#m5afba4ba41" x="445.019532" y="269.545644" style="fill: #4c72b0; stroke: #ffffff; stroke-width: 0.75"/>
     <use xlink:href="#m5afba4ba41" x="474.340991" y="266.935005" style="fill: #4c72b0; stroke: #ffffff; stroke-width: 0.75"/>
     <use xlink:href="#m5afba4ba41" x="499.740394" y="271.096575" style="fill: #4c72b0; stroke: #ffffff; stroke-width: 0.75"/>
     <use xlink:href="#m5afba4ba41" x="522.144255" y="304.596289" style="fill: #4c72b0; stroke: #ffffff; stroke-width: 0.75"/>
     <use xlink:href="#m5afba4ba41" x="542.185192" y="271.301301" style="fill: #4c72b0; stroke: #ffffff; stroke-width: 0.75"/>
     <use xlink:href="#m5afba4ba41" x="560.314425" y="285.670199" style="fill: #4c72b0; stroke: #ffffff; stroke-width: 0.75"/>
     <use xlink:href="#m5afba4ba41" x="576.865117" y="244.290524" style="fill: #4c72b0; stroke: #ffffff; stroke-width: 0.75"/>
     <use xlink:href="#m5afba4ba41" x="592.090279" y="309.53864" style="fill: #4c72b0; stroke: #ffffff; stroke-width: 0.75"/>
     <use xlink:href="#m5afba4ba41" x="606.186576" y="287.392478" style="fill: #4c72b0; stroke: #ffffff; stroke-width: 0.75"/>
     <use xlink:href="#m5afba4ba41" x="619.309916" y="392.73592" style="fill: #4c72b0; stroke: #ffffff; stroke-width: 0.75"/>
     <use xlink:href="#m5afba4ba41" x="631.58598" y="369.109958" style="fill: #4c72b0; stroke: #ffffff; stroke-width: 0.75"/>
     <use xlink:href="#m5afba4ba41" x="643.117569" y="340.59934" style="fill: #4c72b0; stroke: #ffffff; stroke-width: 0.75"/>
     <use xlink:href="#m5afba4ba41" x="653.989841" y="328.508031" style="fill: #4c72b0; stroke: #ffffff; stroke-width: 0.75"/>
     <use xlink:href="#m5afba4ba41" x="664.274128" y="307.449681" style="fill: #4c72b0; stroke: #ffffff; stroke-width: 0.75"/>
     <use xlink:href="#m5afba4ba41" x="674.030778" y="177.335158" style="fill: #4c72b0; stroke: #ffffff; stroke-width: 0.75"/>
     <use xlink:href="#m5afba4ba41" x="692.16001" y="269.487079" style="fill: #4c72b0; stroke: #ffffff; stroke-width: 0.75"/>
     <use xlink:href="#m5afba4ba41" x="708.710703" y="246.714798" style="fill: #4c72b0; stroke: #ffffff; stroke-width: 0.75"/>
     <use xlink:href="#m5afba4ba41" x="723.935865" y="250.940856" style="fill: #4c72b0; stroke: #ffffff; stroke-width: 0.75"/>
     <use xlink:href="#m5afba4ba41" x="738.032162" y="136.157231" style="fill: #4c72b0; stroke: #ffffff; stroke-width: 0.75"/>
     <use xlink:href="#m5afba4ba41" x="751.155501" y="164.965483" style="fill: #4c72b0; stroke: #ffffff; stroke-width: 0.75"/>
     <use xlink:href="#m5afba4ba41" x="763.431565" y="144.169013" style="fill: #4c72b0; stroke: #ffffff; stroke-width: 0.75"/>
     <use xlink:href="#m5afba4ba41" x="774.963155" y="103.750821" style="fill: #4c72b0; stroke: #ffffff; stroke-width: 0.75"/>
     <use xlink:href="#m5afba4ba41" x="785.835427" y="112.688581" style="fill: #4c72b0; stroke: #ffffff; stroke-width: 0.75"/>
     <use xlink:href="#m5afba4ba41" x="788.024811" y="-1" style="fill: #4c72b0; stroke: #ffffff; stroke-width: 0.75"/>
     <use xlink:href="#m5afba4ba41" x="804.639304" y="-1" style="fill: #4c72b0; stroke: #ffffff; stroke-width: 0.75"/>
     <use xlink:href="#m5afba4ba41" x="805.876364" y="60.034947" style="fill: #4c72b0; stroke: #ffffff; stroke-width: 0.75"/>
    </g>
   </g>
   <g id="line2d_12">
    <path d="M 104.203636 265.720607 
L 236.049222 264.11667 
L 313.173946 260.880696 
L 367.894808 281.897988 
L 410.339606 290.897945 
L 445.019532 290.179254 
L 474.340991 296.428103 
L 499.740394 306.97666 
L 522.144255 316.120505 
L 542.185192 325.129632 
L 560.314425 325.864087 
L 576.865117 331.005455 
L 592.090279 322.034448 
L 606.186576 353.709275 
L 619.309916 361.85726 
L 631.58598 338.020503 
L 643.117569 329.802097 
L 653.989841 353.899811 
L 664.274128 321.075071 
L 674.030778 311.528514 
L 692.16001 325.249502 
L 708.710703 279.491887 
L 723.935865 242.907624 
L 738.032162 277.549614 
L 751.155501 213.926109 
L 763.431565 245.068309 
L 774.963155 221.500638 
L 785.835427 269.775284 
L 796.119714 275.967646 
" clip-path="url(#pe603d231d5)" style="fill: none; stroke-dasharray: 4.8,1.8; stroke-dashoffset: 0; stroke: #dd8452; stroke-width: 1.2"/>
    <defs>
     <path id="md4d6df36f8" d="M -3.5 7 
L 0 3.5 
L 3.5 7 
L 7 3.5 
L 3.5 0 
L 7 -3.5 
L 3.5 -7 
L 0 -3.5 
L -3.5 -7 
L -7 -3.5 
L -3.5 0 
L -7 3.5 
z
" style="stroke: #ffffff; stroke-width: 0.75; stroke-linejoin: miter"/>
    </defs>
    <g clip-path="url(#pe603d231d5)">
     <use xlink:href="#md4d6df36f8" x="104.203636" y="265.720607" style="fill: #dd8452; stroke: #ffffff; stroke-width: 0.75; stroke-linejoin: miter"/>
     <use xlink:href="#md4d6df36f8" x="236.049222" y="264.11667" style="fill: #dd8452; stroke: #ffffff; stroke-width: 0.75; stroke-linejoin: miter"/>
     <use xlink:href="#md4d6df36f8" x="313.173946" y="260.880696" style="fill: #dd8452; stroke: #ffffff; stroke-width: 0.75; stroke-linejoin: miter"/>
     <use xlink:href="#md4d6df36f8" x="367.894808" y="281.897988" style="fill: #dd8452; stroke: #ffffff; stroke-width: 0.75; stroke-linejoin: miter"/>
     <use xlink:href="#md4d6df36f8" x="410.339606" y="290.897945" style="fill: #dd8452; stroke: #ffffff; stroke-width: 0.75; stroke-linejoin: miter"/>
     <use xlink:href="#md4d6df36f8" x="445.019532" y="290.179254" style="fill: #dd8452; stroke: #ffffff; stroke-width: 0.75; stroke-linejoin: miter"/>
     <use xlink:href="#md4d6df36f8" x="474.340991" y="296.428103" style="fill: #dd8452; stroke: #ffffff; stroke-width: 0.75; stroke-linejoin: miter"/>
     <use xlink:href="#md4d6df36f8" x="499.740394" y="306.97666" style="fill: #dd8452; stroke: #ffffff; stroke-width: 0.75; stroke-linejoin: miter"/>
     <use xlink:href="#md4d6df36f8" x="522.144255" y="316.120505" style="fill: #dd8452; stroke: #ffffff; stroke-width: 0.75; stroke-linejoin: miter"/>
     <use xlink:href="#md4d6df36f8" x="542.185192" y="325.129632" style="fill: #dd8452; stroke: #ffffff; stroke-width: 0.75; stroke-linejoin: miter"/>
     <use xlink:href="#md4d6df36f8" x="560.314425" y="325.864087" style="fill: #dd8452; stroke: #ffffff; stroke-width: 0.75; stroke-linejoin: miter"/>
     <use xlink:href="#md4d6df36f8" x="576.865117" y="331.005455" style="fill: #dd8452; stroke: #ffffff; stroke-width: 0.75; stroke-linejoin: miter"/>
     <use xlink:href="#md4d6df36f8" x="592.090279" y="322.034448" style="fill: #dd8452; stroke: #ffffff; stroke-width: 0.75; stroke-linejoin: miter"/>
     <use xlink:href="#md4d6df36f8" x="606.186576" y="353.709275" style="fill: #dd8452; stroke: #ffffff; stroke-width: 0.75; stroke-linejoin: miter"/>
     <use xlink:href="#md4d6df36f8" x="619.309916" y="361.85726" style="fill: #dd8452; stroke: #ffffff; stroke-width: 0.75; stroke-linejoin: miter"/>
     <use xlink:href="#md4d6df36f8" x="631.58598" y="338.020503" style="fill: #dd8452; stroke: #ffffff; stroke-width: 0.75; stroke-linejoin: miter"/>
     <use xlink:href="#md4d6df36f8" x="643.117569" y="329.802097" style="fill: #dd8452; stroke: #ffffff; stroke-width: 0.75; stroke-linejoin: miter"/>
     <use xlink:href="#md4d6df36f8" x="653.989841" y="353.899811" style="fill: #dd8452; stroke: #ffffff; stroke-width: 0.75; stroke-linejoin: miter"/>
     <use xlink:href="#md4d6df36f8" x="664.274128" y="321.075071" style="fill: #dd8452; stroke: #ffffff; stroke-width: 0.75; stroke-linejoin: miter"/>
     <use xlink:href="#md4d6df36f8" x="674.030778" y="311.528514" style="fill: #dd8452; stroke: #ffffff; stroke-width: 0.75; stroke-linejoin: miter"/>
     <use xlink:href="#md4d6df36f8" x="692.16001" y="325.249502" style="fill: #dd8452; stroke: #ffffff; stroke-width: 0.75; stroke-linejoin: miter"/>
     <use xlink:href="#md4d6df36f8" x="708.710703" y="279.491887" style="fill: #dd8452; stroke: #ffffff; stroke-width: 0.75; stroke-linejoin: miter"/>
     <use xlink:href="#md4d6df36f8" x="723.935865" y="242.907624" style="fill: #dd8452; stroke: #ffffff; stroke-width: 0.75; stroke-linejoin: miter"/>
     <use xlink:href="#md4d6df36f8" x="738.032162" y="277.549614" style="fill: #dd8452; stroke: #ffffff; stroke-width: 0.75; stroke-linejoin: miter"/>
     <use xlink:href="#md4d6df36f8" x="751.155501" y="213.926109" style="fill: #dd8452; stroke: #ffffff; stroke-width: 0.75; stroke-linejoin: miter"/>
     <use xlink:href="#md4d6df36f8" x="763.431565" y="245.068309" style="fill: #dd8452; stroke: #ffffff; stroke-width: 0.75; stroke-linejoin: miter"/>
     <use xlink:href="#md4d6df36f8" x="774.963155" y="221.500638" style="fill: #dd8452; stroke: #ffffff; stroke-width: 0.75; stroke-linejoin: miter"/>
     <use xlink:href="#md4d6df36f8" x="785.835427" y="269.775284" style="fill: #dd8452; stroke: #ffffff; stroke-width: 0.75; stroke-linejoin: miter"/>
     <use xlink:href="#md4d6df36f8" x="796.119714" y="275.967646" style="fill: #dd8452; stroke: #ffffff; stroke-width: 0.75; stroke-linejoin: miter"/>
    </g>
   </g>
   <g id="line2d_13">
    <path d="M 104.203636 265.236355 
L 236.049222 262.146426 
L 313.173946 247.538586 
L 367.894808 274.722653 
L 410.339606 250.971938 
L 445.019532 239.841489 
L 474.340991 182.462765 
L 499.740394 244.251154 
L 522.144255 214.721658 
L 542.185192 256.60379 
L 560.314425 178.353288 
L 576.865117 213.163314 
L 592.090279 207.041151 
L 606.186576 212.142721 
L 619.309916 289.678239 
L 631.58598 332.861253 
L 643.117569 312.543061 
L 653.989841 313.532755 
L 664.274128 329.400916 
L 674.030778 307.784165 
L 692.16001 324.422052 
L 708.710703 340.801874 
L 723.935865 339.576549 
L 738.032162 324.514773 
L 751.155501 310.32914 
L 763.431565 330.053345 
L 774.963155 316.866104 
L 785.835427 330.530103 
L 796.119714 311.187401 
" clip-path="url(#pe603d231d5)" style="fill: none; stroke-dasharray: 1.2,1.2; stroke-dashoffset: 0; stroke: #55a868; stroke-width: 1.2"/>
    <defs>
     <path id="m9e780b0743" d="M -4.949747 -4.949747 
L -4.949747 4.949747 
L 4.949747 4.949747 
L 4.949747 -4.949747 
z
" style="stroke: #ffffff; stroke-width: 0.75; stroke-linejoin: miter"/>
    </defs>
    <g clip-path="url(#pe603d231d5)">
     <use xlink:href="#m9e780b0743" x="104.203636" y="265.236355" style="fill: #55a868; stroke: #ffffff; stroke-width: 0.75; stroke-linejoin: miter"/>
     <use xlink:href="#m9e780b0743" x="236.049222" y="262.146426" style="fill: #55a868; stroke: #ffffff; stroke-width: 0.75; stroke-linejoin: miter"/>
     <use xlink:href="#m9e780b0743" x="313.173946" y="247.538586" style="fill: #55a868; stroke: #ffffff; stroke-width: 0.75; stroke-linejoin: miter"/>
     <use xlink:href="#m9e780b0743" x="367.894808" y="274.722653" style="fill: #55a868; stroke: #ffffff; stroke-width: 0.75; stroke-linejoin: miter"/>
     <use xlink:href="#m9e780b0743" x="410.339606" y="250.971938" style="fill: #55a868; stroke: #ffffff; stroke-width: 0.75; stroke-linejoin: miter"/>
     <use xlink:href="#m9e780b0743" x="445.019532" y="239.841489" style="fill: #55a868; stroke: #ffffff; stroke-width: 0.75; stroke-linejoin: miter"/>
     <use xlink:href="#m9e780b0743" x="474.340991" y="182.462765" style="fill: #55a868; stroke: #ffffff; stroke-width: 0.75; stroke-linejoin: miter"/>
     <use xlink:href="#m9e780b0743" x="499.740394" y="244.251154" style="fill: #55a868; stroke: #ffffff; stroke-width: 0.75; stroke-linejoin: miter"/>
     <use xlink:href="#m9e780b0743" x="522.144255" y="214.721658" style="fill: #55a868; stroke: #ffffff; stroke-width: 0.75; stroke-linejoin: miter"/>
     <use xlink:href="#m9e780b0743" x="542.185192" y="256.60379" style="fill: #55a868; stroke: #ffffff; stroke-width: 0.75; stroke-linejoin: miter"/>
     <use xlink:href="#m9e780b0743" x="560.314425" y="178.353288" style="fill: #55a868; stroke: #ffffff; stroke-width: 0.75; stroke-linejoin: miter"/>
     <use xlink:href="#m9e780b0743" x="576.865117" y="213.163314" style="fill: #55a868; stroke: #ffffff; stroke-width: 0.75; stroke-linejoin: miter"/>
     <use xlink:href="#m9e780b0743" x="592.090279" y="207.041151" style="fill: #55a868; stroke: #ffffff; stroke-width: 0.75; stroke-linejoin: miter"/>
     <use xlink:href="#m9e780b0743" x="606.186576" y="212.142721" style="fill: #55a868; stroke: #ffffff; stroke-width: 0.75; stroke-linejoin: miter"/>
     <use xlink:href="#m9e780b0743" x="619.309916" y="289.678239" style="fill: #55a868; stroke: #ffffff; stroke-width: 0.75; stroke-linejoin: miter"/>
     <use xlink:href="#m9e780b0743" x="631.58598" y="332.861253" style="fill: #55a868; stroke: #ffffff; stroke-width: 0.75; stroke-linejoin: miter"/>
     <use xlink:href="#m9e780b0743" x="643.117569" y="312.543061" style="fill: #55a868; stroke: #ffffff; stroke-width: 0.75; stroke-linejoin: miter"/>
     <use xlink:href="#m9e780b0743" x="653.989841" y="313.532755" style="fill: #55a868; stroke: #ffffff; stroke-width: 0.75; stroke-linejoin: miter"/>
     <use xlink:href="#m9e780b0743" x="664.274128" y="329.400916" style="fill: #55a868; stroke: #ffffff; stroke-width: 0.75; stroke-linejoin: miter"/>
     <use xlink:href="#m9e780b0743" x="674.030778" y="307.784165" style="fill: #55a868; stroke: #ffffff; stroke-width: 0.75; stroke-linejoin: miter"/>
     <use xlink:href="#m9e780b0743" x="692.16001" y="324.422052" style="fill: #55a868; stroke: #ffffff; stroke-width: 0.75; stroke-linejoin: miter"/>
     <use xlink:href="#m9e780b0743" x="708.710703" y="340.801874" style="fill: #55a868; stroke: #ffffff; stroke-width: 0.75; stroke-linejoin: miter"/>
     <use xlink:href="#m9e780b0743" x="723.935865" y="339.576549" style="fill: #55a868; stroke: #ffffff; stroke-width: 0.75; stroke-linejoin: miter"/>
     <use xlink:href="#m9e780b0743" x="738.032162" y="324.514773" style="fill: #55a868; stroke: #ffffff; stroke-width: 0.75; stroke-linejoin: miter"/>
     <use xlink:href="#m9e780b0743" x="751.155501" y="310.32914" style="fill: #55a868; stroke: #ffffff; stroke-width: 0.75; stroke-linejoin: miter"/>
     <use xlink:href="#m9e780b0743" x="763.431565" y="330.053345" style="fill: #55a868; stroke: #ffffff; stroke-width: 0.75; stroke-linejoin: miter"/>
     <use xlink:href="#m9e780b0743" x="774.963155" y="316.866104" style="fill: #55a868; stroke: #ffffff; stroke-width: 0.75; stroke-linejoin: miter"/>
     <use xlink:href="#m9e780b0743" x="785.835427" y="330.530103" style="fill: #55a868; stroke: #ffffff; stroke-width: 0.75; stroke-linejoin: miter"/>
     <use xlink:href="#m9e780b0743" x="796.119714" y="311.187401" style="fill: #55a868; stroke: #ffffff; stroke-width: 0.75; stroke-linejoin: miter"/>
    </g>
   </g>
   <g id="line2d_14">
    <path d="M 104.203636 265.661477 
L 236.049222 264.851734 
L 313.173946 261.675349 
L 367.894808 277.656113 
L 410.339606 285.214127 
L 445.019532 286.661405 
L 474.340991 287.418239 
L 499.740394 287.659155 
L 522.144255 276.10853 
L 542.185192 290.682376 
L 560.314425 285.383383 
L 576.865117 289.365025 
L 592.090279 266.715248 
L 606.186576 284.712948 
L 619.309916 292.508888 
L 631.58598 278.940618 
L 643.117569 273.362821 
L 653.989841 278.222861 
L 664.274128 285.252279 
L 674.030778 279.808867 
L 692.16001 273.979901 
L 708.710703 264.923473 
L 723.935865 255.637209 
L 738.032162 247.966014 
L 751.155501 258.577438 
L 763.431565 245.696355 
L 774.963155 251.245085 
L 785.835427 262.414802 
L 796.119714 382.662193 
L 805.876364 373.658697 
" clip-path="url(#pe603d231d5)" style="fill: none; stroke-dasharray: 3.6,1.5,1.8,1.5; stroke-dashoffset: 0; stroke: #c44e52; stroke-width: 1.2"/>
    <defs>
     <path id="m732c93c5a5" d="M -2.333333 7 
L 2.333333 7 
L 2.333333 2.333333 
L 7 2.333333 
L 7 -2.333333 
L 2.333333 -2.333333 
L 2.333333 -7 
L -2.333333 -7 
L -2.333333 -2.333333 
L -7 -2.333333 
L -7 2.333333 
L -2.333333 2.333333 
z
" style="stroke: #ffffff; stroke-width: 0.75; stroke-linejoin: miter"/>
    </defs>
    <g clip-path="url(#pe603d231d5)">
     <use xlink:href="#m732c93c5a5" x="104.203636" y="265.661477" style="fill: #c44e52; stroke: #ffffff; stroke-width: 0.75; stroke-linejoin: miter"/>
     <use xlink:href="#m732c93c5a5" x="236.049222" y="264.851734" style="fill: #c44e52; stroke: #ffffff; stroke-width: 0.75; stroke-linejoin: miter"/>
     <use xlink:href="#m732c93c5a5" x="313.173946" y="261.675349" style="fill: #c44e52; stroke: #ffffff; stroke-width: 0.75; stroke-linejoin: miter"/>
     <use xlink:href="#m732c93c5a5" x="367.894808" y="277.656113" style="fill: #c44e52; stroke: #ffffff; stroke-width: 0.75; stroke-linejoin: miter"/>
     <use xlink:href="#m732c93c5a5" x="410.339606" y="285.214127" style="fill: #c44e52; stroke: #ffffff; stroke-width: 0.75; stroke-linejoin: miter"/>
     <use xlink:href="#m732c93c5a5" x="445.019532" y="286.661405" style="fill: #c44e52; stroke: #ffffff; stroke-width: 0.75; stroke-linejoin: miter"/>
     <use xlink:href="#m732c93c5a5" x="474.340991" y="287.418239" style="fill: #c44e52; stroke: #ffffff; stroke-width: 0.75; stroke-linejoin: miter"/>
     <use xlink:href="#m732c93c5a5" x="499.740394" y="287.659155" style="fill: #c44e52; stroke: #ffffff; stroke-width: 0.75; stroke-linejoin: miter"/>
     <use xlink:href="#m732c93c5a5" x="522.144255" y="276.10853" style="fill: #c44e52; stroke: #ffffff; stroke-width: 0.75; stroke-linejoin: miter"/>
     <use xlink:href="#m732c93c5a5" x="542.185192" y="290.682376" style="fill: #c44e52; stroke: #ffffff; stroke-width: 0.75; stroke-linejoin: miter"/>
     <use xlink:href="#m732c93c5a5" x="560.314425" y="285.383383" style="fill: #c44e52; stroke: #ffffff; stroke-width: 0.75; stroke-linejoin: miter"/>
     <use xlink:href="#m732c93c5a5" x="576.865117" y="289.365025" style="fill: #c44e52; stroke: #ffffff; stroke-width: 0.75; stroke-linejoin: miter"/>
     <use xlink:href="#m732c93c5a5" x="592.090279" y="266.715248" style="fill: #c44e52; stroke: #ffffff; stroke-width: 0.75; stroke-linejoin: miter"/>
     <use xlink:href="#m732c93c5a5" x="606.186576" y="284.712948" style="fill: #c44e52; stroke: #ffffff; stroke-width: 0.75; stroke-linejoin: miter"/>
     <use xlink:href="#m732c93c5a5" x="619.309916" y="292.508888" style="fill: #c44e52; stroke: #ffffff; stroke-width: 0.75; stroke-linejoin: miter"/>
     <use xlink:href="#m732c93c5a5" x="631.58598" y="278.940618" style="fill: #c44e52; stroke: #ffffff; stroke-width: 0.75; stroke-linejoin: miter"/>
     <use xlink:href="#m732c93c5a5" x="643.117569" y="273.362821" style="fill: #c44e52; stroke: #ffffff; stroke-width: 0.75; stroke-linejoin: miter"/>
     <use xlink:href="#m732c93c5a5" x="653.989841" y="278.222861" style="fill: #c44e52; stroke: #ffffff; stroke-width: 0.75; stroke-linejoin: miter"/>
     <use xlink:href="#m732c93c5a5" x="664.274128" y="285.252279" style="fill: #c44e52; stroke: #ffffff; stroke-width: 0.75; stroke-linejoin: miter"/>
     <use xlink:href="#m732c93c5a5" x="674.030778" y="279.808867" style="fill: #c44e52; stroke: #ffffff; stroke-width: 0.75; stroke-linejoin: miter"/>
     <use xlink:href="#m732c93c5a5" x="692.16001" y="273.979901" style="fill: #c44e52; stroke: #ffffff; stroke-width: 0.75; stroke-linejoin: miter"/>
     <use xlink:href="#m732c93c5a5" x="708.710703" y="264.923473" style="fill: #c44e52; stroke: #ffffff; stroke-width: 0.75; stroke-linejoin: miter"/>
     <use xlink:href="#m732c93c5a5" x="723.935865" y="255.637209" style="fill: #c44e52; stroke: #ffffff; stroke-width: 0.75; stroke-linejoin: miter"/>
     <use xlink:href="#m732c93c5a5" x="738.032162" y="247.966014" style="fill: #c44e52; stroke: #ffffff; stroke-width: 0.75; stroke-linejoin: miter"/>
     <use xlink:href="#m732c93c5a5" x="751.155501" y="258.577438" style="fill: #c44e52; stroke: #ffffff; stroke-width: 0.75; stroke-linejoin: miter"/>
     <use xlink:href="#m732c93c5a5" x="763.431565" y="245.696355" style="fill: #c44e52; stroke: #ffffff; stroke-width: 0.75; stroke-linejoin: miter"/>
     <use xlink:href="#m732c93c5a5" x="774.963155" y="251.245085" style="fill: #c44e52; stroke: #ffffff; stroke-width: 0.75; stroke-linejoin: miter"/>
     <use xlink:href="#m732c93c5a5" x="785.835427" y="262.414802" style="fill: #c44e52; stroke: #ffffff; stroke-width: 0.75; stroke-linejoin: miter"/>
     <use xlink:href="#m732c93c5a5" x="796.119714" y="382.662193" style="fill: #c44e52; stroke: #ffffff; stroke-width: 0.75; stroke-linejoin: miter"/>
     <use xlink:href="#m732c93c5a5" x="805.876364" y="373.658697" style="fill: #c44e52; stroke: #ffffff; stroke-width: 0.75; stroke-linejoin: miter"/>
    </g>
   </g>
   <g id="line2d_15">
    <path d="M 104.203636 259.566631 
L 236.049222 204.71607 
L 313.173946 103.297625 
L 367.894808 246.034447 
L 410.339606 254.584773 
L 445.019532 260.979504 
L 474.340991 268.815967 
L 499.740394 254.288789 
L 522.144255 361.93977 
L 542.185192 322.684855 
L 560.314425 304.173246 
L 576.865117 294.593898 
L 592.090279 294.133865 
L 606.186576 256.684672 
L 619.309916 253.483341 
L 631.58598 251.060587 
L 643.117569 298.162649 
L 653.989841 252.21403 
L 664.274128 256.650251 
L 674.030778 258.70295 
L 692.16001 220.978925 
L 708.710703 183.737836 
L 723.935865 239.554962 
L 738.032162 226.356175 
L 751.155501 229.333309 
L 763.431565 223.473793 
L 774.963155 219.69346 
L 785.835427 232.311776 
L 796.119714 263.96389 
" clip-path="url(#pe603d231d5)" style="fill: none; stroke-dasharray: 6,1.2,1.2,1.2; stroke-dashoffset: 0; stroke: #8172b3; stroke-width: 1.2"/>
    <defs>
     <path id="mb2762b441d" d="M 0 -7 
L -7 -0 
L -0 7 
L 7 0 
z
" style="stroke: #ffffff; stroke-width: 0.75; stroke-linejoin: miter"/>
    </defs>
    <g clip-path="url(#pe603d231d5)">
     <use xlink:href="#mb2762b441d" x="104.203636" y="259.566631" style="fill: #8172b3; stroke: #ffffff; stroke-width: 0.75; stroke-linejoin: miter"/>
     <use xlink:href="#mb2762b441d" x="236.049222" y="204.71607" style="fill: #8172b3; stroke: #ffffff; stroke-width: 0.75; stroke-linejoin: miter"/>
     <use xlink:href="#mb2762b441d" x="313.173946" y="103.297625" style="fill: #8172b3; stroke: #ffffff; stroke-width: 0.75; stroke-linejoin: miter"/>
     <use xlink:href="#mb2762b441d" x="367.894808" y="246.034447" style="fill: #8172b3; stroke: #ffffff; stroke-width: 0.75; stroke-linejoin: miter"/>
     <use xlink:href="#mb2762b441d" x="410.339606" y="254.584773" style="fill: #8172b3; stroke: #ffffff; stroke-width: 0.75; stroke-linejoin: miter"/>
     <use xlink:href="#mb2762b441d" x="445.019532" y="260.979504" style="fill: #8172b3; stroke: #ffffff; stroke-width: 0.75; stroke-linejoin: miter"/>
     <use xlink:href="#mb2762b441d" x="474.340991" y="268.815967" style="fill: #8172b3; stroke: #ffffff; stroke-width: 0.75; stroke-linejoin: miter"/>
     <use xlink:href="#mb2762b441d" x="499.740394" y="254.288789" style="fill: #8172b3; stroke: #ffffff; stroke-width: 0.75; stroke-linejoin: miter"/>
     <use xlink:href="#mb2762b441d" x="522.144255" y="361.93977" style="fill: #8172b3; stroke: #ffffff; stroke-width: 0.75; stroke-linejoin: miter"/>
     <use xlink:href="#mb2762b441d" x="542.185192" y="322.684855" style="fill: #8172b3; stroke: #ffffff; stroke-width: 0.75; stroke-linejoin: miter"/>
     <use xlink:href="#mb2762b441d" x="560.314425" y="304.173246" style="fill: #8172b3; stroke: #ffffff; stroke-width: 0.75; stroke-linejoin: miter"/>
     <use xlink:href="#mb2762b441d" x="576.865117" y="294.593898" style="fill: #8172b3; stroke: #ffffff; stroke-width: 0.75; stroke-linejoin: miter"/>
     <use xlink:href="#mb2762b441d" x="592.090279" y="294.133865" style="fill: #8172b3; stroke: #ffffff; stroke-width: 0.75; stroke-linejoin: miter"/>
     <use xlink:href="#mb2762b441d" x="606.186576" y="256.684672" style="fill: #8172b3; stroke: #ffffff; stroke-width: 0.75; stroke-linejoin: miter"/>
     <use xlink:href="#mb2762b441d" x="619.309916" y="253.483341" style="fill: #8172b3; stroke: #ffffff; stroke-width: 0.75; stroke-linejoin: miter"/>
     <use xlink:href="#mb2762b441d" x="631.58598" y="251.060587" style="fill: #8172b3; stroke: #ffffff; stroke-width: 0.75; stroke-linejoin: miter"/>
     <use xlink:href="#mb2762b441d" x="643.117569" y="298.162649" style="fill: #8172b3; stroke: #ffffff; stroke-width: 0.75; stroke-linejoin: miter"/>
     <use xlink:href="#mb2762b441d" x="653.989841" y="252.21403" style="fill: #8172b3; stroke: #ffffff; stroke-width: 0.75; stroke-linejoin: miter"/>
     <use xlink:href="#mb2762b441d" x="664.274128" y="256.650251" style="fill: #8172b3; stroke: #ffffff; stroke-width: 0.75; stroke-linejoin: miter"/>
     <use xlink:href="#mb2762b441d" x="674.030778" y="258.70295" style="fill: #8172b3; stroke: #ffffff; stroke-width: 0.75; stroke-linejoin: miter"/>
     <use xlink:href="#mb2762b441d" x="692.16001" y="220.978925" style="fill: #8172b3; stroke: #ffffff; stroke-width: 0.75; stroke-linejoin: miter"/>
     <use xlink:href="#mb2762b441d" x="708.710703" y="183.737836" style="fill: #8172b3; stroke: #ffffff; stroke-width: 0.75; stroke-linejoin: miter"/>
     <use xlink:href="#mb2762b441d" x="723.935865" y="239.554962" style="fill: #8172b3; stroke: #ffffff; stroke-width: 0.75; stroke-linejoin: miter"/>
     <use xlink:href="#mb2762b441d" x="738.032162" y="226.356175" style="fill: #8172b3; stroke: #ffffff; stroke-width: 0.75; stroke-linejoin: miter"/>
     <use xlink:href="#mb2762b441d" x="751.155501" y="229.333309" style="fill: #8172b3; stroke: #ffffff; stroke-width: 0.75; stroke-linejoin: miter"/>
     <use xlink:href="#mb2762b441d" x="763.431565" y="223.473793" style="fill: #8172b3; stroke: #ffffff; stroke-width: 0.75; stroke-linejoin: miter"/>
     <use xlink:href="#mb2762b441d" x="774.963155" y="219.69346" style="fill: #8172b3; stroke: #ffffff; stroke-width: 0.75; stroke-linejoin: miter"/>
     <use xlink:href="#mb2762b441d" x="785.835427" y="232.311776" style="fill: #8172b3; stroke: #ffffff; stroke-width: 0.75; stroke-linejoin: miter"/>
     <use xlink:href="#mb2762b441d" x="796.119714" y="263.96389" style="fill: #8172b3; stroke: #ffffff; stroke-width: 0.75; stroke-linejoin: miter"/>
    </g>
   </g>
   <g id="line2d_16">
    <path d="M 104.203636 265.59984 
L 236.049222 269.111072 
L 313.173946 248.480451 
L 367.894808 315.498693 
L 410.339606 328.766826 
L 445.019532 329.385046 
L 474.340991 321.445886 
L 499.740394 320.866595 
L 522.144255 282.719493 
L 542.185192 319.608597 
L 560.314425 275.038896 
L 576.865117 267.852519 
L 592.090279 222.392225 
L 606.186576 246.312339 
L 619.309916 238.50583 
L 631.58598 208.682866 
L 643.117569 203.121687 
L 653.989841 212.712675 
L 664.274128 236.098587 
L 674.030778 232.815514 
L 692.16001 222.096963 
L 708.710703 213.063625 
L 723.935865 194.165127 
L 738.032162 184.786354 
L 751.155501 200.96112 
L 763.431565 173.059799 
L 774.963155 188.389729 
L 785.835427 207.156459 
L 796.119714 177.648126 
" clip-path="url(#pe603d231d5)" style="fill: none; stroke-dasharray: 3.6,1.5,1.5,1.5,1.5,1.5; stroke-dashoffset: 0; stroke: #937860; stroke-width: 1.2"/>
    <defs>
     <path id="m99bb500dc0" d="M 0 -7 
L -2.474874 -2.474874 
L -7 -0 
L -2.474874 2.474874 
L -0 7 
L 2.474874 2.474874 
L 7 0 
L 2.474874 -2.474874 
z
" style="stroke: #ffffff; stroke-width: 0.75; stroke-linejoin: bevel"/>
    </defs>
    <g clip-path="url(#pe603d231d5)">
     <use xlink:href="#m99bb500dc0" x="104.203636" y="265.59984" style="fill: #937860; stroke: #ffffff; stroke-width: 0.75; stroke-linejoin: bevel"/>
     <use xlink:href="#m99bb500dc0" x="236.049222" y="269.111072" style="fill: #937860; stroke: #ffffff; stroke-width: 0.75; stroke-linejoin: bevel"/>
     <use xlink:href="#m99bb500dc0" x="313.173946" y="248.480451" style="fill: #937860; stroke: #ffffff; stroke-width: 0.75; stroke-linejoin: bevel"/>
     <use xlink:href="#m99bb500dc0" x="367.894808" y="315.498693" style="fill: #937860; stroke: #ffffff; stroke-width: 0.75; stroke-linejoin: bevel"/>
     <use xlink:href="#m99bb500dc0" x="410.339606" y="328.766826" style="fill: #937860; stroke: #ffffff; stroke-width: 0.75; stroke-linejoin: bevel"/>
     <use xlink:href="#m99bb500dc0" x="445.019532" y="329.385046" style="fill: #937860; stroke: #ffffff; stroke-width: 0.75; stroke-linejoin: bevel"/>
     <use xlink:href="#m99bb500dc0" x="474.340991" y="321.445886" style="fill: #937860; stroke: #ffffff; stroke-width: 0.75; stroke-linejoin: bevel"/>
     <use xlink:href="#m99bb500dc0" x="499.740394" y="320.866595" style="fill: #937860; stroke: #ffffff; stroke-width: 0.75; stroke-linejoin: bevel"/>
     <use xlink:href="#m99bb500dc0" x="522.144255" y="282.719493" style="fill: #937860; stroke: #ffffff; stroke-width: 0.75; stroke-linejoin: bevel"/>
     <use xlink:href="#m99bb500dc0" x="542.185192" y="319.608597" style="fill: #937860; stroke: #ffffff; stroke-width: 0.75; stroke-linejoin: bevel"/>
     <use xlink:href="#m99bb500dc0" x="560.314425" y="275.038896" style="fill: #937860; stroke: #ffffff; stroke-width: 0.75; stroke-linejoin: bevel"/>
     <use xlink:href="#m99bb500dc0" x="576.865117" y="267.852519" style="fill: #937860; stroke: #ffffff; stroke-width: 0.75; stroke-linejoin: bevel"/>
     <use xlink:href="#m99bb500dc0" x="592.090279" y="222.392225" style="fill: #937860; stroke: #ffffff; stroke-width: 0.75; stroke-linejoin: bevel"/>
     <use xlink:href="#m99bb500dc0" x="606.186576" y="246.312339" style="fill: #937860; stroke: #ffffff; stroke-width: 0.75; stroke-linejoin: bevel"/>
     <use xlink:href="#m99bb500dc0" x="619.309916" y="238.50583" style="fill: #937860; stroke: #ffffff; stroke-width: 0.75; stroke-linejoin: bevel"/>
     <use xlink:href="#m99bb500dc0" x="631.58598" y="208.682866" style="fill: #937860; stroke: #ffffff; stroke-width: 0.75; stroke-linejoin: bevel"/>
     <use xlink:href="#m99bb500dc0" x="643.117569" y="203.121687" style="fill: #937860; stroke: #ffffff; stroke-width: 0.75; stroke-linejoin: bevel"/>
     <use xlink:href="#m99bb500dc0" x="653.989841" y="212.712675" style="fill: #937860; stroke: #ffffff; stroke-width: 0.75; stroke-linejoin: bevel"/>
     <use xlink:href="#m99bb500dc0" x="664.274128" y="236.098587" style="fill: #937860; stroke: #ffffff; stroke-width: 0.75; stroke-linejoin: bevel"/>
     <use xlink:href="#m99bb500dc0" x="674.030778" y="232.815514" style="fill: #937860; stroke: #ffffff; stroke-width: 0.75; stroke-linejoin: bevel"/>
     <use xlink:href="#m99bb500dc0" x="692.16001" y="222.096963" style="fill: #937860; stroke: #ffffff; stroke-width: 0.75; stroke-linejoin: bevel"/>
     <use xlink:href="#m99bb500dc0" x="708.710703" y="213.063625" style="fill: #937860; stroke: #ffffff; stroke-width: 0.75; stroke-linejoin: bevel"/>
     <use xlink:href="#m99bb500dc0" x="723.935865" y="194.165127" style="fill: #937860; stroke: #ffffff; stroke-width: 0.75; stroke-linejoin: bevel"/>
     <use xlink:href="#m99bb500dc0" x="738.032162" y="184.786354" style="fill: #937860; stroke: #ffffff; stroke-width: 0.75; stroke-linejoin: bevel"/>
     <use xlink:href="#m99bb500dc0" x="751.155501" y="200.96112" style="fill: #937860; stroke: #ffffff; stroke-width: 0.75; stroke-linejoin: bevel"/>
     <use xlink:href="#m99bb500dc0" x="763.431565" y="173.059799" style="fill: #937860; stroke: #ffffff; stroke-width: 0.75; stroke-linejoin: bevel"/>
     <use xlink:href="#m99bb500dc0" x="774.963155" y="188.389729" style="fill: #937860; stroke: #ffffff; stroke-width: 0.75; stroke-linejoin: bevel"/>
     <use xlink:href="#m99bb500dc0" x="785.835427" y="207.156459" style="fill: #937860; stroke: #ffffff; stroke-width: 0.75; stroke-linejoin: bevel"/>
     <use xlink:href="#m99bb500dc0" x="796.119714" y="177.648126" style="fill: #937860; stroke: #ffffff; stroke-width: 0.75; stroke-linejoin: bevel"/>
    </g>
   </g>
   <g id="line2d_17">
    <path d="M 104.203636 264.254165 
L 236.049222 253.03993 
L 313.173946 184.445273 
L 367.894808 256.649159 
L 410.339606 237.534578 
L 445.019532 84.836493 
L 474.340991 143.381817 
L 499.740394 125.877452 
L 522.144255 154.953109 
L 542.185192 157.126752 
L 560.314425 127.117337 
L 576.865117 279.966678 
L 592.090279 190.295506 
L 606.186576 215.281193 
L 619.309916 264.033152 
L 631.58598 280.593523 
L 643.117569 278.568741 
L 653.989841 328.615006 
L 664.274128 323.52138 
L 674.030778 314.86176 
L 692.16001 351.162454 
L 708.710703 328.413597 
L 723.935865 336.016355 
L 738.032162 309.344084 
L 751.155501 313.925258 
L 763.431565 313.923648 
L 774.963155 306.076715 
L 785.835427 307.888603 
L 796.119714 304.555312 
L 805.876364 297.216009 
" clip-path="url(#pe603d231d5)" style="fill: none; stroke-dasharray: 4.8,1.2,4.8,1.2,1.2,1.2; stroke-dashoffset: 0; stroke: #da8bc3; stroke-width: 1.2"/>
    <defs>
     <path id="m6dfdd071e2" d="M 0 -7 
L -7 7 
L 7 7 
z
" style="stroke: #ffffff; stroke-width: 0.75; stroke-linejoin: miter"/>
    </defs>
    <g clip-path="url(#pe603d231d5)">
     <use xlink:href="#m6dfdd071e2" x="104.203636" y="264.254165" style="fill: #da8bc3; stroke: #ffffff; stroke-width: 0.75; stroke-linejoin: miter"/>
     <use xlink:href="#m6dfdd071e2" x="236.049222" y="253.03993" style="fill: #da8bc3; stroke: #ffffff; stroke-width: 0.75; stroke-linejoin: miter"/>
     <use xlink:href="#m6dfdd071e2" x="313.173946" y="184.445273" style="fill: #da8bc3; stroke: #ffffff; stroke-width: 0.75; stroke-linejoin: miter"/>
     <use xlink:href="#m6dfdd071e2" x="367.894808" y="256.649159" style="fill: #da8bc3; stroke: #ffffff; stroke-width: 0.75; stroke-linejoin: miter"/>
     <use xlink:href="#m6dfdd071e2" x="410.339606" y="237.534578" style="fill: #da8bc3; stroke: #ffffff; stroke-width: 0.75; stroke-linejoin: miter"/>
     <use xlink:href="#m6dfdd071e2" x="445.019532" y="84.836493" style="fill: #da8bc3; stroke: #ffffff; stroke-width: 0.75; stroke-linejoin: miter"/>
     <use xlink:href="#m6dfdd071e2" x="474.340991" y="143.381817" style="fill: #da8bc3; stroke: #ffffff; stroke-width: 0.75; stroke-linejoin: miter"/>
     <use xlink:href="#m6dfdd071e2" x="499.740394" y="125.877452" style="fill: #da8bc3; stroke: #ffffff; stroke-width: 0.75; stroke-linejoin: miter"/>
     <use xlink:href="#m6dfdd071e2" x="522.144255" y="154.953109" style="fill: #da8bc3; stroke: #ffffff; stroke-width: 0.75; stroke-linejoin: miter"/>
     <use xlink:href="#m6dfdd071e2" x="542.185192" y="157.126752" style="fill: #da8bc3; stroke: #ffffff; stroke-width: 0.75; stroke-linejoin: miter"/>
     <use xlink:href="#m6dfdd071e2" x="560.314425" y="127.117337" style="fill: #da8bc3; stroke: #ffffff; stroke-width: 0.75; stroke-linejoin: miter"/>
     <use xlink:href="#m6dfdd071e2" x="576.865117" y="279.966678" style="fill: #da8bc3; stroke: #ffffff; stroke-width: 0.75; stroke-linejoin: miter"/>
     <use xlink:href="#m6dfdd071e2" x="592.090279" y="190.295506" style="fill: #da8bc3; stroke: #ffffff; stroke-width: 0.75; stroke-linejoin: miter"/>
     <use xlink:href="#m6dfdd071e2" x="606.186576" y="215.281193" style="fill: #da8bc3; stroke: #ffffff; stroke-width: 0.75; stroke-linejoin: miter"/>
     <use xlink:href="#m6dfdd071e2" x="619.309916" y="264.033152" style="fill: #da8bc3; stroke: #ffffff; stroke-width: 0.75; stroke-linejoin: miter"/>
     <use xlink:href="#m6dfdd071e2" x="631.58598" y="280.593523" style="fill: #da8bc3; stroke: #ffffff; stroke-width: 0.75; stroke-linejoin: miter"/>
     <use xlink:href="#m6dfdd071e2" x="643.117569" y="278.568741" style="fill: #da8bc3; stroke: #ffffff; stroke-width: 0.75; stroke-linejoin: miter"/>
     <use xlink:href="#m6dfdd071e2" x="653.989841" y="328.615006" style="fill: #da8bc3; stroke: #ffffff; stroke-width: 0.75; stroke-linejoin: miter"/>
     <use xlink:href="#m6dfdd071e2" x="664.274128" y="323.52138" style="fill: #da8bc3; stroke: #ffffff; stroke-width: 0.75; stroke-linejoin: miter"/>
     <use xlink:href="#m6dfdd071e2" x="674.030778" y="314.86176" style="fill: #da8bc3; stroke: #ffffff; stroke-width: 0.75; stroke-linejoin: miter"/>
     <use xlink:href="#m6dfdd071e2" x="692.16001" y="351.162454" style="fill: #da8bc3; stroke: #ffffff; stroke-width: 0.75; stroke-linejoin: miter"/>
     <use xlink:href="#m6dfdd071e2" x="708.710703" y="328.413597" style="fill: #da8bc3; stroke: #ffffff; stroke-width: 0.75; stroke-linejoin: miter"/>
     <use xlink:href="#m6dfdd071e2" x="723.935865" y="336.016355" style="fill: #da8bc3; stroke: #ffffff; stroke-width: 0.75; stroke-linejoin: miter"/>
     <use xlink:href="#m6dfdd071e2" x="738.032162" y="309.344084" style="fill: #da8bc3; stroke: #ffffff; stroke-width: 0.75; stroke-linejoin: miter"/>
     <use xlink:href="#m6dfdd071e2" x="751.155501" y="313.925258" style="fill: #da8bc3; stroke: #ffffff; stroke-width: 0.75; stroke-linejoin: miter"/>
     <use xlink:href="#m6dfdd071e2" x="763.431565" y="313.923648" style="fill: #da8bc3; stroke: #ffffff; stroke-width: 0.75; stroke-linejoin: miter"/>
     <use xlink:href="#m6dfdd071e2" x="774.963155" y="306.076715" style="fill: #da8bc3; stroke: #ffffff; stroke-width: 0.75; stroke-linejoin: miter"/>
     <use xlink:href="#m6dfdd071e2" x="785.835427" y="307.888603" style="fill: #da8bc3; stroke: #ffffff; stroke-width: 0.75; stroke-linejoin: miter"/>
     <use xlink:href="#m6dfdd071e2" x="796.119714" y="304.555312" style="fill: #da8bc3; stroke: #ffffff; stroke-width: 0.75; stroke-linejoin: miter"/>
     <use xlink:href="#m6dfdd071e2" x="805.876364" y="297.216009" style="fill: #da8bc3; stroke: #ffffff; stroke-width: 0.75; stroke-linejoin: miter"/>
    </g>
   </g>
   <g id="line2d_18">
    <path d="M 104.203636 264.449945 
L 236.049222 253.977899 
L 313.173946 232.831015 
L 367.894808 257.018915 
L 410.339606 251.005418 
L 445.019532 246.415677 
L 474.340991 248.042562 
L 499.740394 237.049648 
L 522.144255 292.678661 
L 542.185192 275.737818 
L 560.314425 281.441443 
L 576.865117 288.123526 
L 592.090279 267.36064 
L 606.186576 285.245422 
L 619.309916 294.92499 
L 631.58598 277.892125 
L 643.117569 269.817023 
L 653.989841 271.191288 
L 664.274128 288.012835 
L 674.030778 258.062791 
L 692.16001 261.563638 
L 708.710703 261.992097 
L 723.935865 252.726251 
L 738.032162 239.070695 
L 751.155501 251.294932 
L 763.431565 231.46522 
L 774.963155 241.712561 
L 785.835427 252.487597 
L 796.119714 233.067459 
L 805.876364 223.682371 
" clip-path="url(#pe603d231d5)" style="fill: none; stroke-dasharray: 3.6,1.5,3.6,1.5,1.5,1.5; stroke-dashoffset: 0; stroke: #8c8c8c; stroke-width: 1.2"/>
    <defs>
     <path id="m771c23d3e5" d="M -4.949747 -4.949747 
L -3.5 -0 
L -4.949747 4.949747 
L -0 3.5 
L 4.949747 4.949747 
L 3.5 0 
L 4.949747 -4.949747 
L 0 -3.5 
z
" style="stroke: #ffffff; stroke-width: 0.75; stroke-linejoin: bevel"/>
    </defs>
    <g clip-path="url(#pe603d231d5)">
     <use xlink:href="#m771c23d3e5" x="104.203636" y="264.449945" style="fill: #8c8c8c; stroke: #ffffff; stroke-width: 0.75; stroke-linejoin: bevel"/>
     <use xlink:href="#m771c23d3e5" x="236.049222" y="253.977899" style="fill: #8c8c8c; stroke: #ffffff; stroke-width: 0.75; stroke-linejoin: bevel"/>
     <use xlink:href="#m771c23d3e5" x="313.173946" y="232.831015" style="fill: #8c8c8c; stroke: #ffffff; stroke-width: 0.75; stroke-linejoin: bevel"/>
     <use xlink:href="#m771c23d3e5" x="367.894808" y="257.018915" style="fill: #8c8c8c; stroke: #ffffff; stroke-width: 0.75; stroke-linejoin: bevel"/>
     <use xlink:href="#m771c23d3e5" x="410.339606" y="251.005418" style="fill: #8c8c8c; stroke: #ffffff; stroke-width: 0.75; stroke-linejoin: bevel"/>
     <use xlink:href="#m771c23d3e5" x="445.019532" y="246.415677" style="fill: #8c8c8c; stroke: #ffffff; stroke-width: 0.75; stroke-linejoin: bevel"/>
     <use xlink:href="#m771c23d3e5" x="474.340991" y="248.042562" style="fill: #8c8c8c; stroke: #ffffff; stroke-width: 0.75; stroke-linejoin: bevel"/>
     <use xlink:href="#m771c23d3e5" x="499.740394" y="237.049648" style="fill: #8c8c8c; stroke: #ffffff; stroke-width: 0.75; stroke-linejoin: bevel"/>
     <use xlink:href="#m771c23d3e5" x="522.144255" y="292.678661" style="fill: #8c8c8c; stroke: #ffffff; stroke-width: 0.75; stroke-linejoin: bevel"/>
     <use xlink:href="#m771c23d3e5" x="542.185192" y="275.737818" style="fill: #8c8c8c; stroke: #ffffff; stroke-width: 0.75; stroke-linejoin: bevel"/>
     <use xlink:href="#m771c23d3e5" x="560.314425" y="281.441443" style="fill: #8c8c8c; stroke: #ffffff; stroke-width: 0.75; stroke-linejoin: bevel"/>
     <use xlink:href="#m771c23d3e5" x="576.865117" y="288.123526" style="fill: #8c8c8c; stroke: #ffffff; stroke-width: 0.75; stroke-linejoin: bevel"/>
     <use xlink:href="#m771c23d3e5" x="592.090279" y="267.36064" style="fill: #8c8c8c; stroke: #ffffff; stroke-width: 0.75; stroke-linejoin: bevel"/>
     <use xlink:href="#m771c23d3e5" x="606.186576" y="285.245422" style="fill: #8c8c8c; stroke: #ffffff; stroke-width: 0.75; stroke-linejoin: bevel"/>
     <use xlink:href="#m771c23d3e5" x="619.309916" y="294.92499" style="fill: #8c8c8c; stroke: #ffffff; stroke-width: 0.75; stroke-linejoin: bevel"/>
     <use xlink:href="#m771c23d3e5" x="631.58598" y="277.892125" style="fill: #8c8c8c; stroke: #ffffff; stroke-width: 0.75; stroke-linejoin: bevel"/>
     <use xlink:href="#m771c23d3e5" x="643.117569" y="269.817023" style="fill: #8c8c8c; stroke: #ffffff; stroke-width: 0.75; stroke-linejoin: bevel"/>
     <use xlink:href="#m771c23d3e5" x="653.989841" y="271.191288" style="fill: #8c8c8c; stroke: #ffffff; stroke-width: 0.75; stroke-linejoin: bevel"/>
     <use xlink:href="#m771c23d3e5" x="664.274128" y="288.012835" style="fill: #8c8c8c; stroke: #ffffff; stroke-width: 0.75; stroke-linejoin: bevel"/>
     <use xlink:href="#m771c23d3e5" x="674.030778" y="258.062791" style="fill: #8c8c8c; stroke: #ffffff; stroke-width: 0.75; stroke-linejoin: bevel"/>
     <use xlink:href="#m771c23d3e5" x="692.16001" y="261.563638" style="fill: #8c8c8c; stroke: #ffffff; stroke-width: 0.75; stroke-linejoin: bevel"/>
     <use xlink:href="#m771c23d3e5" x="708.710703" y="261.992097" style="fill: #8c8c8c; stroke: #ffffff; stroke-width: 0.75; stroke-linejoin: bevel"/>
     <use xlink:href="#m771c23d3e5" x="723.935865" y="252.726251" style="fill: #8c8c8c; stroke: #ffffff; stroke-width: 0.75; stroke-linejoin: bevel"/>
     <use xlink:href="#m771c23d3e5" x="738.032162" y="239.070695" style="fill: #8c8c8c; stroke: #ffffff; stroke-width: 0.75; stroke-linejoin: bevel"/>
     <use xlink:href="#m771c23d3e5" x="751.155501" y="251.294932" style="fill: #8c8c8c; stroke: #ffffff; stroke-width: 0.75; stroke-linejoin: bevel"/>
     <use xlink:href="#m771c23d3e5" x="763.431565" y="231.46522" style="fill: #8c8c8c; stroke: #ffffff; stroke-width: 0.75; stroke-linejoin: bevel"/>
     <use xlink:href="#m771c23d3e5" x="774.963155" y="241.712561" style="fill: #8c8c8c; stroke: #ffffff; stroke-width: 0.75; stroke-linejoin: bevel"/>
     <use xlink:href="#m771c23d3e5" x="785.835427" y="252.487597" style="fill: #8c8c8c; stroke: #ffffff; stroke-width: 0.75; stroke-linejoin: bevel"/>
     <use xlink:href="#m771c23d3e5" x="796.119714" y="233.067459" style="fill: #8c8c8c; stroke: #ffffff; stroke-width: 0.75; stroke-linejoin: bevel"/>
     <use xlink:href="#m771c23d3e5" x="805.876364" y="223.682371" style="fill: #8c8c8c; stroke: #ffffff; stroke-width: 0.75; stroke-linejoin: bevel"/>
    </g>
   </g>
   <g id="line2d_19"/>
   <g id="line2d_20"/>
   <g id="line2d_21"/>
   <g id="line2d_22"/>
   <g id="line2d_23"/>
   <g id="line2d_24"/>
   <g id="line2d_25"/>
   <g id="line2d_26"/>
   <g id="line2d_27">
    <path d="M 69.12 265.822224 
L 840.96 265.822224 
" clip-path="url(#pe603d231d5)" style="fill: none; stroke-dasharray: 5.55,2.4; stroke-dashoffset: 0; stroke: #000000; stroke-width: 1.5"/>
   </g>
   <g id="patch_3">
    <path d="M 69.12 433.44 
L 69.12 20.16 
" style="fill: none; stroke: #cccccc; stroke-linejoin: miter; stroke-linecap: square"/>
   </g>
   <g id="patch_4">
    <path d="M 840.96 433.44 
L 840.96 20.16 
" style="fill: none; stroke: #cccccc; stroke-linejoin: miter; stroke-linecap: square"/>
   </g>
   <g id="patch_5">
    <path d="M 69.12 433.44 
L 840.96 433.44 
" style="fill: none; stroke: #cccccc; stroke-linejoin: miter; stroke-linecap: square"/>
   </g>
   <g id="patch_6">
    <path d="M 69.12 20.16 
L 840.96 20.16 
" style="fill: none; stroke: #cccccc; stroke-linejoin: miter; stroke-linecap: square"/>
   </g>
   <g id="patch_7">
    <path d="M 725.411472 65.16 
Q 747.911472 42.66 770.411472 20.16 
" style="fill: none; stroke: #4c72b0; stroke-width: 1.8; stroke-linecap: round"/>
   </g>
   <g id="text_13">
    <!-- 39.16 GB/s -->
    <g style="fill: #4c72b0" transform="translate(620.224472 70.137) scale(0.192 -0.192)">
     <defs>
      <path id="Arial-BoldMT-33" d="M 241 1216 
L 1091 1319 
Q 1131 994 1309 822 
Q 1488 650 1741 650 
Q 2013 650 2198 856 
Q 2384 1063 2384 1413 
Q 2384 1744 2206 1937 
Q 2028 2131 1772 2131 
Q 1603 2131 1369 2066 
L 1466 2781 
Q 1822 2772 2009 2936 
Q 2197 3100 2197 3372 
Q 2197 3603 2059 3740 
Q 1922 3878 1694 3878 
Q 1469 3878 1309 3722 
Q 1150 3566 1116 3266 
L 306 3403 
Q 391 3819 561 4067 
Q 731 4316 1036 4458 
Q 1341 4600 1719 4600 
Q 2366 4600 2756 4188 
Q 3078 3850 3078 3425 
Q 3078 2822 2419 2463 
Q 2813 2378 3048 2084 
Q 3284 1791 3284 1375 
Q 3284 772 2843 347 
Q 2403 -78 1747 -78 
Q 1125 -78 715 280 
Q 306 638 241 1216 
z
" transform="scale(0.015625)"/>
      <path id="Arial-BoldMT-39" d="M 291 1059 
L 1141 1153 
Q 1172 894 1303 769 
Q 1434 644 1650 644 
Q 1922 644 2112 894 
Q 2303 1144 2356 1931 
Q 2025 1547 1528 1547 
Q 988 1547 595 1964 
Q 203 2381 203 3050 
Q 203 3747 617 4173 
Q 1031 4600 1672 4600 
Q 2369 4600 2816 4061 
Q 3263 3522 3263 2288 
Q 3263 1031 2797 475 
Q 2331 -81 1584 -81 
Q 1047 -81 715 205 
Q 384 491 291 1059 
z
M 2278 2978 
Q 2278 3403 2083 3637 
Q 1888 3872 1631 3872 
Q 1388 3872 1227 3680 
Q 1066 3488 1066 3050 
Q 1066 2606 1241 2398 
Q 1416 2191 1678 2191 
Q 1931 2191 2104 2391 
Q 2278 2591 2278 2978 
z
" transform="scale(0.015625)"/>
      <path id="Arial-BoldMT-2e" d="M 459 0 
L 459 878 
L 1338 878 
L 1338 0 
L 459 0 
z
" transform="scale(0.015625)"/>
      <path id="Arial-BoldMT-31" d="M 2519 0 
L 1641 0 
L 1641 3309 
Q 1159 2859 506 2644 
L 506 3441 
Q 850 3553 1253 3867 
Q 1656 4181 1806 4600 
L 2519 4600 
L 2519 0 
z
" transform="scale(0.015625)"/>
      <path id="Arial-BoldMT-36" d="M 3247 3459 
L 2397 3366 
Q 2366 3628 2234 3753 
Q 2103 3878 1894 3878 
Q 1616 3878 1423 3628 
Q 1231 3378 1181 2588 
Q 1509 2975 1997 2975 
Q 2547 2975 2939 2556 
Q 3331 2138 3331 1475 
Q 3331 772 2918 347 
Q 2506 -78 1859 -78 
Q 1166 -78 719 461 
Q 272 1000 272 2228 
Q 272 3488 737 4044 
Q 1203 4600 1947 4600 
Q 2469 4600 2811 4308 
Q 3153 4016 3247 3459 
z
M 1256 1544 
Q 1256 1116 1453 883 
Q 1650 650 1903 650 
Q 2147 650 2309 840 
Q 2472 1031 2472 1466 
Q 2472 1913 2297 2120 
Q 2122 2328 1859 2328 
Q 1606 2328 1431 2129 
Q 1256 1931 1256 1544 
z
" transform="scale(0.015625)"/>
      <path id="Arial-BoldMT-20" transform="scale(0.015625)"/>
      <path id="Arial-BoldMT-47" d="M 2597 1684 
L 2597 2456 
L 4591 2456 
L 4591 631 
Q 4300 350 3748 136 
Q 3197 -78 2631 -78 
Q 1913 -78 1378 223 
Q 844 525 575 1086 
Q 306 1647 306 2306 
Q 306 3022 606 3578 
Q 906 4134 1484 4431 
Q 1925 4659 2581 4659 
Q 3434 4659 3914 4301 
Q 4394 3944 4531 3313 
L 3613 3141 
Q 3516 3478 3248 3673 
Q 2981 3869 2581 3869 
Q 1975 3869 1617 3484 
Q 1259 3100 1259 2344 
Q 1259 1528 1621 1120 
Q 1984 713 2572 713 
Q 2863 713 3155 827 
Q 3447 941 3656 1103 
L 3656 1684 
L 2597 1684 
z
" transform="scale(0.015625)"/>
      <path id="Arial-BoldMT-42" d="M 469 4581 
L 2300 4581 
Q 2844 4581 3111 4536 
Q 3378 4491 3589 4347 
Q 3800 4203 3940 3964 
Q 4081 3725 4081 3428 
Q 4081 3106 3907 2837 
Q 3734 2569 3438 2434 
Q 3856 2313 4081 2019 
Q 4306 1725 4306 1328 
Q 4306 1016 4161 720 
Q 4016 425 3764 248 
Q 3513 72 3144 31 
Q 2913 6 2028 0 
L 469 0 
L 469 4581 
z
M 1394 3819 
L 1394 2759 
L 2000 2759 
Q 2541 2759 2672 2775 
Q 2909 2803 3045 2939 
Q 3181 3075 3181 3297 
Q 3181 3509 3064 3642 
Q 2947 3775 2716 3803 
Q 2578 3819 1925 3819 
L 1394 3819 
z
M 1394 1997 
L 1394 772 
L 2250 772 
Q 2750 772 2884 800 
Q 3091 838 3220 983 
Q 3350 1128 3350 1372 
Q 3350 1578 3250 1722 
Q 3150 1866 2961 1931 
Q 2772 1997 2141 1997 
L 1394 1997 
z
" transform="scale(0.015625)"/>
      <path id="Arial-BoldMT-2f" d="M -9 -78 
L 1125 4659 
L 1784 4659 
L 638 -78 
L -9 -78 
z
" transform="scale(0.015625)"/>
      <path id="Arial-BoldMT-73" d="M 150 947 
L 1031 1081 
Q 1088 825 1259 692 
Q 1431 559 1741 559 
Q 2081 559 2253 684 
Q 2369 772 2369 919 
Q 2369 1019 2306 1084 
Q 2241 1147 2013 1200 
Q 950 1434 666 1628 
Q 272 1897 272 2375 
Q 272 2806 612 3100 
Q 953 3394 1669 3394 
Q 2350 3394 2681 3172 
Q 3013 2950 3138 2516 
L 2309 2363 
Q 2256 2556 2107 2659 
Q 1959 2763 1684 2763 
Q 1338 2763 1188 2666 
Q 1088 2597 1088 2488 
Q 1088 2394 1175 2328 
Q 1294 2241 1995 2081 
Q 2697 1922 2975 1691 
Q 3250 1456 3250 1038 
Q 3250 581 2869 253 
Q 2488 -75 1741 -75 
Q 1063 -75 667 200 
Q 272 475 150 947 
z
" transform="scale(0.015625)"/>
     </defs>
     <use xlink:href="#Arial-BoldMT-33"/>
     <use xlink:href="#Arial-BoldMT-39" transform="translate(55.615234 0)"/>
     <use xlink:href="#Arial-BoldMT-2e" transform="translate(111.230469 0)"/>
     <use xlink:href="#Arial-BoldMT-31" transform="translate(139.013672 0)"/>
     <use xlink:href="#Arial-BoldMT-36" transform="translate(194.628906 0)"/>
     <use xlink:href="#Arial-BoldMT-20" transform="translate(250.244141 0)"/>
     <use xlink:href="#Arial-BoldMT-47" transform="translate(278.027344 0)"/>
     <use xlink:href="#Arial-BoldMT-42" transform="translate(355.810547 0)"/>
     <use xlink:href="#Arial-BoldMT-2f" transform="translate(428.027344 0)"/>
     <use xlink:href="#Arial-BoldMT-73" transform="translate(455.810547 0)"/>
    </g>
   </g>
   <g id="patch_8">
    <path d="M 77.92 59.13575 
L 316.98575 59.13575 
L 316.98575 28.96 
L 77.92 28.96 
z
" style="fill: #ffffff; stroke: #1a1a1a; stroke-width: 0.8; stroke-linejoin: miter"/>
   </g>
   <g id="text_14">
    <!-- NVIDIA H200 - NVIDIA H100 -->
    <g style="fill: #262626" transform="translate(84.96 48.59775) scale(0.176 -0.176)">
     <defs>
      <path id="ArialMT-4e" d="M 488 0 
L 488 4581 
L 1109 4581 
L 3516 984 
L 3516 4581 
L 4097 4581 
L 4097 0 
L 3475 0 
L 1069 3600 
L 1069 0 
L 488 0 
z
" transform="scale(0.015625)"/>
      <path id="ArialMT-56" d="M 1803 0 
L 28 4581 
L 684 4581 
L 1875 1253 
Q 2019 853 2116 503 
Q 2222 878 2363 1253 
L 3600 4581 
L 4219 4581 
L 2425 0 
L 1803 0 
z
" transform="scale(0.015625)"/>
      <path id="ArialMT-49" d="M 597 0 
L 597 4581 
L 1203 4581 
L 1203 0 
L 597 0 
z
" transform="scale(0.015625)"/>
      <path id="ArialMT-41" d="M -9 0 
L 1750 4581 
L 2403 4581 
L 4278 0 
L 3588 0 
L 3053 1388 
L 1138 1388 
L 634 0 
L -9 0 
z
M 1313 1881 
L 2866 1881 
L 2388 3150 
Q 2169 3728 2063 4100 
Q 1975 3659 1816 3225 
L 1313 1881 
z
" transform="scale(0.015625)"/>
     </defs>
     <use xlink:href="#ArialMT-4e"/>
     <use xlink:href="#ArialMT-56" transform="translate(72.216797 0)"/>
     <use xlink:href="#ArialMT-49" transform="translate(138.916016 0)"/>
     <use xlink:href="#ArialMT-44" transform="translate(166.699219 0)"/>
     <use xlink:href="#ArialMT-49" transform="translate(238.916016 0)"/>
     <use xlink:href="#ArialMT-41" transform="translate(266.699219 0)"/>
     <use xlink:href="#ArialMT-20" transform="translate(327.898438 0)"/>
     <use xlink:href="#ArialMT-48" transform="translate(355.681641 0)"/>
     <use xlink:href="#ArialMT-32" transform="translate(427.898438 0)"/>
     <use xlink:href="#ArialMT-30" transform="translate(483.513672 0)"/>
     <use xlink:href="#ArialMT-30" transform="translate(539.128906 0)"/>
     <use xlink:href="#ArialMT-20" transform="translate(594.744141 0)"/>
     <use xlink:href="#ArialMT-2d" transform="translate(622.527344 0)"/>
     <use xlink:href="#ArialMT-20" transform="translate(655.828125 0)"/>
     <use xlink:href="#ArialMT-4e" transform="translate(683.611328 0)"/>
     <use xlink:href="#ArialMT-56" transform="translate(755.828125 0)"/>
     <use xlink:href="#ArialMT-49" transform="translate(822.527344 0)"/>
     <use xlink:href="#ArialMT-44" transform="translate(850.310547 0)"/>
     <use xlink:href="#ArialMT-49" transform="translate(922.527344 0)"/>
     <use xlink:href="#ArialMT-41" transform="translate(950.310547 0)"/>
     <use xlink:href="#ArialMT-20" transform="translate(1011.509766 0)"/>
     <use xlink:href="#ArialMT-48" transform="translate(1039.292969 0)"/>
     <use xlink:href="#ArialMT-31" transform="translate(1111.509766 0)"/>
     <use xlink:href="#ArialMT-30" transform="translate(1167.125 0)"/>
     <use xlink:href="#ArialMT-30" transform="translate(1222.740234 0)"/>
    </g>
   </g>
  </g>
  <g id="legend_1">
   <g id="line2d_28">
    <path d="M 871.04 48.794 
L 890.4 48.794 
L 909.76 48.794 
" style="fill: none; stroke-dasharray: 6,1.2,1.2,1.2; stroke-dashoffset: 0; stroke: #8172b3; stroke-width: 1.2"/>
    <g>
     <use xlink:href="#mb2762b441d" x="890.4" y="48.794" style="fill: #8172b3; stroke: #ffffff; stroke-width: 0.75; stroke-linejoin: miter"/>
    </g>
   </g>
   <g id="text_15">
    <!-- Fused Cell-Based (NeoN) -->
    <g style="fill: #262626" transform="translate(923.84 54.954) scale(0.176 -0.176)">
     <defs>
      <path id="ArialMT-46" d="M 525 0 
L 525 4581 
L 3616 4581 
L 3616 4041 
L 1131 4041 
L 1131 2622 
L 3281 2622 
L 3281 2081 
L 1131 2081 
L 1131 0 
L 525 0 
z
" transform="scale(0.015625)"/>
      <path id="ArialMT-75" d="M 2597 0 
L 2597 488 
Q 2209 -75 1544 -75 
Q 1250 -75 995 37 
Q 741 150 617 320 
Q 494 491 444 738 
Q 409 903 409 1263 
L 409 3319 
L 972 3319 
L 972 1478 
Q 972 1038 1006 884 
Q 1059 663 1231 536 
Q 1403 409 1656 409 
Q 1909 409 2131 539 
Q 2353 669 2445 892 
Q 2538 1116 2538 1541 
L 2538 3319 
L 3100 3319 
L 3100 0 
L 2597 0 
z
" transform="scale(0.015625)"/>
      <path id="ArialMT-6f" d="M 213 1659 
Q 213 2581 725 3025 
Q 1153 3394 1769 3394 
Q 2453 3394 2887 2945 
Q 3322 2497 3322 1706 
Q 3322 1066 3130 698 
Q 2938 331 2570 128 
Q 2203 -75 1769 -75 
Q 1072 -75 642 372 
Q 213 819 213 1659 
z
M 791 1659 
Q 791 1022 1069 705 
Q 1347 388 1769 388 
Q 2188 388 2466 706 
Q 2744 1025 2744 1678 
Q 2744 2294 2464 2611 
Q 2184 2928 1769 2928 
Q 1347 2928 1069 2612 
Q 791 2297 791 1659 
z
" transform="scale(0.015625)"/>
     </defs>
     <use xlink:href="#ArialMT-46"/>
     <use xlink:href="#ArialMT-75" transform="translate(61.083984 0)"/>
     <use xlink:href="#ArialMT-73" transform="translate(116.699219 0)"/>
     <use xlink:href="#ArialMT-65" transform="translate(166.699219 0)"/>
     <use xlink:href="#ArialMT-64" transform="translate(222.314453 0)"/>
     <use xlink:href="#ArialMT-20" transform="translate(277.929688 0)"/>
     <use xlink:href="#ArialMT-43" transform="translate(305.712891 0)"/>
     <use xlink:href="#ArialMT-65" transform="translate(377.929688 0)"/>
     <use xlink:href="#ArialMT-6c" transform="translate(433.544922 0)"/>
     <use xlink:href="#ArialMT-6c" transform="translate(455.761719 0)"/>
     <use xlink:href="#ArialMT-2d" transform="translate(477.978516 0)"/>
     <use xlink:href="#ArialMT-42" transform="translate(511.279297 0)"/>
     <use xlink:href="#ArialMT-61" transform="translate(577.978516 0)"/>
     <use xlink:href="#ArialMT-73" transform="translate(633.59375 0)"/>
     <use xlink:href="#ArialMT-65" transform="translate(683.59375 0)"/>
     <use xlink:href="#ArialMT-64" transform="translate(739.208984 0)"/>
     <use xlink:href="#ArialMT-20" transform="translate(794.824219 0)"/>
     <use xlink:href="#ArialMT-28" transform="translate(822.607422 0)"/>
     <use xlink:href="#ArialMT-4e" transform="translate(855.908203 0)"/>
     <use xlink:href="#ArialMT-65" transform="translate(928.125 0)"/>
     <use xlink:href="#ArialMT-6f" transform="translate(983.740234 0)"/>
     <use xlink:href="#ArialMT-4e" transform="translate(1039.355469 0)"/>
     <use xlink:href="#ArialMT-29" transform="translate(1111.572266 0)"/>
    </g>
   </g>
  </g>
  <g id="legend_2">
   <g id="line2d_29">
    <path d="M 871.04 99.914 
L 890.4 99.914 
L 909.76 99.914 
" style="fill: none; stroke-dasharray: 3.6,1.5,1.5,1.5,1.5,1.5; stroke-dashoffset: 0; stroke: #937860; stroke-width: 1.2"/>
    <g>
     <use xlink:href="#m99bb500dc0" x="890.4" y="99.914" style="fill: #937860; stroke: #ffffff; stroke-width: 0.75; stroke-linejoin: bevel"/>
    </g>
   </g>
   <g id="text_16">
    <!-- Fused Face-Based (NeoN) -->
    <g style="fill: #262626" transform="translate(923.84 106.074) scale(0.176 -0.176)">
     <use xlink:href="#ArialMT-46"/>
     <use xlink:href="#ArialMT-75" transform="translate(61.083984 0)"/>
     <use xlink:href="#ArialMT-73" transform="translate(116.699219 0)"/>
     <use xlink:href="#ArialMT-65" transform="translate(166.699219 0)"/>
     <use xlink:href="#ArialMT-64" transform="translate(222.314453 0)"/>
     <use xlink:href="#ArialMT-20" transform="translate(277.929688 0)"/>
     <use xlink:href="#ArialMT-46" transform="translate(305.712891 0)"/>
     <use xlink:href="#ArialMT-61" transform="translate(366.796875 0)"/>
     <use xlink:href="#ArialMT-63" transform="translate(422.412109 0)"/>
     <use xlink:href="#ArialMT-65" transform="translate(472.412109 0)"/>
     <use xlink:href="#ArialMT-2d" transform="translate(528.027344 0)"/>
     <use xlink:href="#ArialMT-42" transform="translate(561.328125 0)"/>
     <use xlink:href="#ArialMT-61" transform="translate(628.027344 0)"/>
     <use xlink:href="#ArialMT-73" transform="translate(683.642578 0)"/>
     <use xlink:href="#ArialMT-65" transform="translate(733.642578 0)"/>
     <use xlink:href="#ArialMT-64" transform="translate(789.257812 0)"/>
     <use xlink:href="#ArialMT-20" transform="translate(844.873047 0)"/>
     <use xlink:href="#ArialMT-28" transform="translate(872.65625 0)"/>
     <use xlink:href="#ArialMT-4e" transform="translate(905.957031 0)"/>
     <use xlink:href="#ArialMT-65" transform="translate(978.173828 0)"/>
     <use xlink:href="#ArialMT-6f" transform="translate(1033.789062 0)"/>
     <use xlink:href="#ArialMT-4e" transform="translate(1089.404297 0)"/>
     <use xlink:href="#ArialMT-29" transform="translate(1161.621094 0)"/>
    </g>
   </g>
  </g>
  <g id="legend_3">
   <g id="line2d_30">
    <path d="M 871.04 151.034 
L 890.4 151.034 
L 909.76 151.034 
" style="fill: none; stroke-dasharray: 1.2,1.2; stroke-dashoffset: 0; stroke: #55a868; stroke-width: 1.2"/>
    <g>
     <use xlink:href="#m9e780b0743" x="890.4" y="151.034" style="fill: #55a868; stroke: #ffffff; stroke-width: 0.75; stroke-linejoin: miter"/>
    </g>
   </g>
   <g id="text_17">
    <!-- Face-Based (JuNe) -->
    <g style="fill: #262626" transform="translate(923.84 157.194) scale(0.176 -0.176)">
     <defs>
      <path id="ArialMT-4a" d="M 184 1300 
L 731 1375 
Q 753 850 928 656 
Q 1103 463 1413 463 
Q 1641 463 1806 567 
Q 1972 672 2034 851 
Q 2097 1031 2097 1425 
L 2097 4581 
L 2703 4581 
L 2703 1459 
Q 2703 884 2564 568 
Q 2425 253 2123 87 
Q 1822 -78 1416 -78 
Q 813 -78 492 269 
Q 172 616 184 1300 
z
" transform="scale(0.015625)"/>
     </defs>
     <use xlink:href="#ArialMT-46"/>
     <use xlink:href="#ArialMT-61" transform="translate(61.083984 0)"/>
     <use xlink:href="#ArialMT-63" transform="translate(116.699219 0)"/>
     <use xlink:href="#ArialMT-65" transform="translate(166.699219 0)"/>
     <use xlink:href="#ArialMT-2d" transform="translate(222.314453 0)"/>
     <use xlink:href="#ArialMT-42" transform="translate(255.615234 0)"/>
     <use xlink:href="#ArialMT-61" transform="translate(322.314453 0)"/>
     <use xlink:href="#ArialMT-73" transform="translate(377.929688 0)"/>
     <use xlink:href="#ArialMT-65" transform="translate(427.929688 0)"/>
     <use xlink:href="#ArialMT-64" transform="translate(483.544922 0)"/>
     <use xlink:href="#ArialMT-20" transform="translate(539.160156 0)"/>
     <use xlink:href="#ArialMT-28" transform="translate(566.943359 0)"/>
     <use xlink:href="#ArialMT-4a" transform="translate(600.244141 0)"/>
     <use xlink:href="#ArialMT-75" transform="translate(650.244141 0)"/>
     <use xlink:href="#ArialMT-4e" transform="translate(705.859375 0)"/>
     <use xlink:href="#ArialMT-65" transform="translate(778.076172 0)"/>
     <use xlink:href="#ArialMT-29" transform="translate(833.691406 0)"/>
    </g>
   </g>
  </g>
  <g id="legend_4">
   <g id="line2d_31">
    <path d="M 871.04 202.154 
L 890.4 202.154 
L 909.76 202.154 
" style="fill: none; stroke: #4c72b0; stroke-width: 1.2; stroke-linecap: round"/>
    <g>
     <use xlink:href="#m5afba4ba41" x="890.4" y="202.154" style="fill: #4c72b0; stroke: #ffffff; stroke-width: 0.75"/>
    </g>
   </g>
   <g id="text_18">
    <!-- Cell-Based (JuNe) -->
    <g style="fill: #262626" transform="translate(923.84 208.314) scale(0.176 -0.176)">
     <use xlink:href="#ArialMT-43"/>
     <use xlink:href="#ArialMT-65" transform="translate(72.216797 0)"/>
     <use xlink:href="#ArialMT-6c" transform="translate(127.832031 0)"/>
     <use xlink:href="#ArialMT-6c" transform="translate(150.048828 0)"/>
     <use xlink:href="#ArialMT-2d" transform="translate(172.265625 0)"/>
     <use xlink:href="#ArialMT-42" transform="translate(205.566406 0)"/>
     <use xlink:href="#ArialMT-61" transform="translate(272.265625 0)"/>
     <use xlink:href="#ArialMT-73" transform="translate(327.880859 0)"/>
     <use xlink:href="#ArialMT-65" transform="translate(377.880859 0)"/>
     <use xlink:href="#ArialMT-64" transform="translate(433.496094 0)"/>
     <use xlink:href="#ArialMT-20" transform="translate(489.111328 0)"/>
     <use xlink:href="#ArialMT-28" transform="translate(516.894531 0)"/>
     <use xlink:href="#ArialMT-4a" transform="translate(550.195312 0)"/>
     <use xlink:href="#ArialMT-75" transform="translate(600.195312 0)"/>
     <use xlink:href="#ArialMT-4e" transform="translate(655.810547 0)"/>
     <use xlink:href="#ArialMT-65" transform="translate(728.027344 0)"/>
     <use xlink:href="#ArialMT-29" transform="translate(783.642578 0)"/>
    </g>
   </g>
  </g>
  <g id="legend_5">
   <g id="line2d_32">
    <path d="M 871.04 253.274 
L 890.4 253.274 
L 909.76 253.274 
" style="fill: none; stroke-dasharray: 4.8,1.2,4.8,1.2,1.2,1.2; stroke-dashoffset: 0; stroke: #da8bc3; stroke-width: 1.2"/>
    <g>
     <use xlink:href="#m6dfdd071e2" x="890.4" y="253.274" style="fill: #da8bc3; stroke: #ffffff; stroke-width: 0.75; stroke-linejoin: miter"/>
    </g>
   </g>
   <g id="text_19">
    <!-- Global Face-Based (JuNe) -->
    <g style="fill: #262626" transform="translate(923.84 259.434) scale(0.176 -0.176)">
     <defs>
      <path id="ArialMT-62" d="M 941 0 
L 419 0 
L 419 4581 
L 981 4581 
L 981 2947 
Q 1338 3394 1891 3394 
Q 2197 3394 2470 3270 
Q 2744 3147 2920 2923 
Q 3097 2700 3197 2384 
Q 3297 2069 3297 1709 
Q 3297 856 2875 390 
Q 2453 -75 1863 -75 
Q 1275 -75 941 416 
L 941 0 
z
M 934 1684 
Q 934 1088 1097 822 
Q 1363 388 1816 388 
Q 2184 388 2453 708 
Q 2722 1028 2722 1663 
Q 2722 2313 2464 2622 
Q 2206 2931 1841 2931 
Q 1472 2931 1203 2611 
Q 934 2291 934 1684 
z
" transform="scale(0.015625)"/>
     </defs>
     <use xlink:href="#ArialMT-47"/>
     <use xlink:href="#ArialMT-6c" transform="translate(77.783203 0)"/>
     <use xlink:href="#ArialMT-6f" transform="translate(100 0)"/>
     <use xlink:href="#ArialMT-62" transform="translate(155.615234 0)"/>
     <use xlink:href="#ArialMT-61" transform="translate(211.230469 0)"/>
     <use xlink:href="#ArialMT-6c" transform="translate(266.845703 0)"/>
     <use xlink:href="#ArialMT-20" transform="translate(289.0625 0)"/>
     <use xlink:href="#ArialMT-46" transform="translate(316.845703 0)"/>
     <use xlink:href="#ArialMT-61" transform="translate(377.929688 0)"/>
     <use xlink:href="#ArialMT-63" transform="translate(433.544922 0)"/>
     <use xlink:href="#ArialMT-65" transform="translate(483.544922 0)"/>
     <use xlink:href="#ArialMT-2d" transform="translate(539.160156 0)"/>
     <use xlink:href="#ArialMT-42" transform="translate(572.460938 0)"/>
     <use xlink:href="#ArialMT-61" transform="translate(639.160156 0)"/>
     <use xlink:href="#ArialMT-73" transform="translate(694.775391 0)"/>
     <use xlink:href="#ArialMT-65" transform="translate(744.775391 0)"/>
     <use xlink:href="#ArialMT-64" transform="translate(800.390625 0)"/>
     <use xlink:href="#ArialMT-20" transform="translate(856.005859 0)"/>
     <use xlink:href="#ArialMT-28" transform="translate(883.789062 0)"/>
     <use xlink:href="#ArialMT-4a" transform="translate(917.089844 0)"/>
     <use xlink:href="#ArialMT-75" transform="translate(967.089844 0)"/>
     <use xlink:href="#ArialMT-4e" transform="translate(1022.705078 0)"/>
     <use xlink:href="#ArialMT-65" transform="translate(1094.921875 0)"/>
     <use xlink:href="#ArialMT-29" transform="translate(1150.537109 0)"/>
    </g>
   </g>
  </g>
  <g id="legend_6">
   <g id="line2d_33">
    <path d="M 871.04 304.394 
L 890.4 304.394 
L 909.76 304.394 
" style="fill: none; stroke-dasharray: 4.8,1.8; stroke-dashoffset: 0; stroke: #dd8452; stroke-width: 1.2"/>
    <g>
     <use xlink:href="#md4d6df36f8" x="890.4" y="304.394" style="fill: #dd8452; stroke: #ffffff; stroke-width: 0.75; stroke-linejoin: miter"/>
    </g>
   </g>
   <g id="text_20">
    <!-- Cell-Based (NeoN) -->
    <g style="fill: #262626" transform="translate(923.84 310.554) scale(0.176 -0.176)">
     <use xlink:href="#ArialMT-43"/>
     <use xlink:href="#ArialMT-65" transform="translate(72.216797 0)"/>
     <use xlink:href="#ArialMT-6c" transform="translate(127.832031 0)"/>
     <use xlink:href="#ArialMT-6c" transform="translate(150.048828 0)"/>
     <use xlink:href="#ArialMT-2d" transform="translate(172.265625 0)"/>
     <use xlink:href="#ArialMT-42" transform="translate(205.566406 0)"/>
     <use xlink:href="#ArialMT-61" transform="translate(272.265625 0)"/>
     <use xlink:href="#ArialMT-73" transform="translate(327.880859 0)"/>
     <use xlink:href="#ArialMT-65" transform="translate(377.880859 0)"/>
     <use xlink:href="#ArialMT-64" transform="translate(433.496094 0)"/>
     <use xlink:href="#ArialMT-20" transform="translate(489.111328 0)"/>
     <use xlink:href="#ArialMT-28" transform="translate(516.894531 0)"/>
     <use xlink:href="#ArialMT-4e" transform="translate(550.195312 0)"/>
     <use xlink:href="#ArialMT-65" transform="translate(622.412109 0)"/>
     <use xlink:href="#ArialMT-6f" transform="translate(678.027344 0)"/>
     <use xlink:href="#ArialMT-4e" transform="translate(733.642578 0)"/>
     <use xlink:href="#ArialMT-29" transform="translate(805.859375 0)"/>
    </g>
   </g>
  </g>
  <g id="legend_7">
   <g id="line2d_34">
    <path d="M 871.04 355.514 
L 890.4 355.514 
L 909.76 355.514 
" style="fill: none; stroke-dasharray: 3.6,1.5,1.8,1.5; stroke-dashoffset: 0; stroke: #c44e52; stroke-width: 1.2"/>
    <g>
     <use xlink:href="#m732c93c5a5" x="890.4" y="355.514" style="fill: #c44e52; stroke: #ffffff; stroke-width: 0.75; stroke-linejoin: miter"/>
    </g>
   </g>
   <g id="text_21">
    <!-- Face-Based (NeoN) -->
    <g style="fill: #262626" transform="translate(923.84 361.674) scale(0.176 -0.176)">
     <use xlink:href="#ArialMT-46"/>
     <use xlink:href="#ArialMT-61" transform="translate(61.083984 0)"/>
     <use xlink:href="#ArialMT-63" transform="translate(116.699219 0)"/>
     <use xlink:href="#ArialMT-65" transform="translate(166.699219 0)"/>
     <use xlink:href="#ArialMT-2d" transform="translate(222.314453 0)"/>
     <use xlink:href="#ArialMT-42" transform="translate(255.615234 0)"/>
     <use xlink:href="#ArialMT-61" transform="translate(322.314453 0)"/>
     <use xlink:href="#ArialMT-73" transform="translate(377.929688 0)"/>
     <use xlink:href="#ArialMT-65" transform="translate(427.929688 0)"/>
     <use xlink:href="#ArialMT-64" transform="translate(483.544922 0)"/>
     <use xlink:href="#ArialMT-20" transform="translate(539.160156 0)"/>
     <use xlink:href="#ArialMT-28" transform="translate(566.943359 0)"/>
     <use xlink:href="#ArialMT-4e" transform="translate(600.244141 0)"/>
     <use xlink:href="#ArialMT-65" transform="translate(672.460938 0)"/>
     <use xlink:href="#ArialMT-6f" transform="translate(728.076172 0)"/>
     <use xlink:href="#ArialMT-4e" transform="translate(783.691406 0)"/>
     <use xlink:href="#ArialMT-29" transform="translate(855.908203 0)"/>
    </g>
   </g>
  </g>
  <g id="legend_8">
   <g id="line2d_35">
    <path d="M 871.04 406.634 
L 890.4 406.634 
L 909.76 406.634 
" style="fill: none; stroke-dasharray: 3.6,1.5,3.6,1.5,1.5,1.5; stroke-dashoffset: 0; stroke: #8c8c8c; stroke-width: 1.2"/>
    <g>
     <use xlink:href="#m771c23d3e5" x="890.4" y="406.634" style="fill: #8c8c8c; stroke: #ffffff; stroke-width: 0.75; stroke-linejoin: bevel"/>
    </g>
   </g>
   <g id="text_22">
    <!-- Global Face-Based (NeoN) -->
    <g style="fill: #262626" transform="translate(923.84 412.794) scale(0.176 -0.176)">
     <use xlink:href="#ArialMT-47"/>
     <use xlink:href="#ArialMT-6c" transform="translate(77.783203 0)"/>
     <use xlink:href="#ArialMT-6f" transform="translate(100 0)"/>
     <use xlink:href="#ArialMT-62" transform="translate(155.615234 0)"/>
     <use xlink:href="#ArialMT-61" transform="translate(211.230469 0)"/>
     <use xlink:href="#ArialMT-6c" transform="translate(266.845703 0)"/>
     <use xlink:href="#ArialMT-20" transform="translate(289.0625 0)"/>
     <use xlink:href="#ArialMT-46" transform="translate(316.845703 0)"/>
     <use xlink:href="#ArialMT-61" transform="translate(377.929688 0)"/>
     <use xlink:href="#ArialMT-63" transform="translate(433.544922 0)"/>
     <use xlink:href="#ArialMT-65" transform="translate(483.544922 0)"/>
     <use xlink:href="#ArialMT-2d" transform="translate(539.160156 0)"/>
     <use xlink:href="#ArialMT-42" transform="translate(572.460938 0)"/>
     <use xlink:href="#ArialMT-61" transform="translate(639.160156 0)"/>
     <use xlink:href="#ArialMT-73" transform="translate(694.775391 0)"/>
     <use xlink:href="#ArialMT-65" transform="translate(744.775391 0)"/>
     <use xlink:href="#ArialMT-64" transform="translate(800.390625 0)"/>
     <use xlink:href="#ArialMT-20" transform="translate(856.005859 0)"/>
     <use xlink:href="#ArialMT-28" transform="translate(883.789062 0)"/>
     <use xlink:href="#ArialMT-4e" transform="translate(917.089844 0)"/>
     <use xlink:href="#ArialMT-65" transform="translate(989.306641 0)"/>
     <use xlink:href="#ArialMT-6f" transform="translate(1044.921875 0)"/>
     <use xlink:href="#ArialMT-4e" transform="translate(1100.537109 0)"/>
     <use xlink:href="#ArialMT-29" transform="translate(1172.753906 0)"/>
    </g>
   </g>
  </g>
 </g>
 <defs>
  <clipPath id="pe603d231d5">
   <rect x="69.12" y="20.16" width="771.84" height="413.28"/>
  </clipPath>
 </defs>
</svg>
