<?xml version="1.0" encoding="utf-8" standalone="no"?>
<!DOCTYPE svg PUBLIC "-//W3C//DTD SVG 1.1//EN"
  "http://www.w3.org/Graphics/SVG/1.1/DTD/svg11.dtd">
<svg xmlns:xlink="http://www.w3.org/1999/xlink" width="1152pt" height="504pt" viewBox="0 0 1152 504" xmlns="http://www.w3.org/2000/svg" version="1.1">
 <metadata>
  <rdf:RDF xmlns:dc="http://purl.org/dc/elements/1.1/" xmlns:cc="http://creativecommons.org/ns#" xmlns:rdf="http://www.w3.org/1999/02/22-rdf-syntax-ns#">
   <cc:Work>
    <dc:type rdf:resource="http://purl.org/dc/dcmitype/StillImage"/>
    <dc:date>2026-08-07T13:29:14.343877</dc:date>
    <dc:format>image/svg+xml</dc:format>
    <dc:creator>
     <cc:Agent>
      <dc:title>Matplotlib v3.10.9, https://matplotlib.org/</dc:title>
     </cc:Agent>
    </dc:creator>
   </cc:Work>
  </rdf:RDF>
 </metadata>
 <defs>
  <style type="text/css">*{stroke-linejoin: round; stroke-linecap: butt}</style>
 </defs>
 <g id="figure_1">
  <g id="patch_1">
   <path d="M 0 504 
L 1152 504 
L 1152 0 
L 0 0 
z
" style="fill: #ffffff"/>
  </g>
  <g id="axes_1">
   <g id="patch_2">
    <path d="M 69.12 433.44 
L 840.96 433.44 
L 840.96 20.16 
L 69.12 20.16 
z
" style="fill: #ffffff"/>
   </g>
   <g id="matplotlib.axis_1">
    <g id="xtick_1">
     <g id="line2d_1">
      <path d="M 121.625503 433.44 
L 121.625503 20.16 
" clip-path="url(#pfea30db6fa)" style="fill: none; stroke: #cccccc; stroke-width: 0.8; stroke-linecap: round"/>
     </g>
     <g id="text_1">
      <!-- $\mathdefault{10^{4}}$ -->
      <g style="fill: #262626" transform="translate(107.809503 459.714) scale(0.176 -0.176)">
       <defs>
        <path id="ArialMT-31" d="M 2384 0 
L 1822 0 
L 1822 3584 
Q 1619 3391 1289 3197 
Q 959 3003 697 2906 
L 697 3450 
Q 1169 3672 1522 3987 
Q 1875 4303 2022 4600 
L 2384 4600 
L 2384 0 
z
" transform="scale(0.015625)"/>
        <path id="ArialMT-30" d="M 266 2259 
Q 266 3072 433 3567 
Q 600 4063 929 4331 
Q 1259 4600 1759 4600 
Q 2128 4600 2406 4451 
Q 2684 4303 2865 4023 
Q 3047 3744 3150 3342 
Q 3253 2941 3253 2259 
Q 3253 1453 3087 958 
Q 2922 463 2592 192 
Q 2263 -78 1759 -78 
Q 1097 -78 719 397 
Q 266 969 266 2259 
z
M 844 2259 
Q 844 1131 1108 757 
Q 1372 384 1759 384 
Q 2147 384 2411 759 
Q 2675 1134 2675 2259 
Q 2675 3391 2411 3762 
Q 2147 4134 1753 4134 
Q 1366 4134 1134 3806 
Q 844 3388 844 2259 
z
" transform="scale(0.015625)"/>
        <path id="ArialMT-34" d="M 2069 0 
L 2069 1097 
L 81 1097 
L 81 1613 
L 2172 4581 
L 2631 4581 
L 2631 1613 
L 3250 1613 
L 3250 1097 
L 2631 1097 
L 2631 0 
L 2069 0 
z
M 2069 1613 
L 2069 3678 
L 634 1613 
L 2069 1613 
z
" transform="scale(0.015625)"/>
       </defs>
       <use xlink:href="#ArialMT-31" transform="translate(0 0.201563)"/>
       <use xlink:href="#ArialMT-30" transform="translate(55.615234 0.201563)"/>
       <use xlink:href="#ArialMT-34" transform="translate(112.972813 69.895313) scale(0.7)"/>
      </g>
     </g>
    </g>
    <g id="xtick_2">
     <g id="line2d_2">
      <path d="M 301.399151 433.44 
L 301.399151 20.16 
" clip-path="url(#pfea30db6fa)" style="fill: none; stroke: #cccccc; stroke-width: 0.8; stroke-linecap: round"/>
     </g>
     <g id="text_2">
      <!-- $\mathdefault{10^{5}}$ -->
      <g style="fill: #262626" transform="translate(287.583151 459.714) scale(0.176 -0.176)">
       <defs>
        <path id="ArialMT-35" d="M 266 1200 
L 856 1250 
Q 922 819 1161 601 
Q 1400 384 1738 384 
Q 2144 384 2425 690 
Q 2706 997 2706 1503 
Q 2706 1984 2436 2262 
Q 2166 2541 1728 2541 
Q 1456 2541 1237 2417 
Q 1019 2294 894 2097 
L 366 2166 
L 809 4519 
L 3088 4519 
L 3088 3981 
L 1259 3981 
L 1013 2750 
Q 1425 3038 1878 3038 
Q 2478 3038 2890 2622 
Q 3303 2206 3303 1553 
Q 3303 931 2941 478 
Q 2500 -78 1738 -78 
Q 1113 -78 717 272 
Q 322 622 266 1200 
z
" transform="scale(0.015625)"/>
       </defs>
       <use xlink:href="#ArialMT-31" transform="translate(0 0.879688)"/>
       <use xlink:href="#ArialMT-30" transform="translate(55.615234 0.879688)"/>
       <use xlink:href="#ArialMT-35" transform="translate(112.972813 70.573438) scale(0.7)"/>
      </g>
     </g>
    </g>
    <g id="xtick_3">
     <g id="line2d_3">
      <path d="M 481.1728 433.44 
L 481.1728 20.16 
" clip-path="url(#pfea30db6fa)" style="fill: none; stroke: #cccccc; stroke-width: 0.8; stroke-linecap: round"/>
     </g>
     <g id="text_3">
      <!-- $\mathdefault{10^{6}}$ -->
      <g style="fill: #262626" transform="translate(467.3568 459.89) scale(0.176 -0.176)">
       <defs>
        <path id="ArialMT-36" d="M 3184 3459 
L 2625 3416 
Q 2550 3747 2413 3897 
Q 2184 4138 1850 4138 
Q 1581 4138 1378 3988 
Q 1113 3794 959 3422 
Q 806 3050 800 2363 
Q 1003 2672 1297 2822 
Q 1591 2972 1913 2972 
Q 2475 2972 2870 2558 
Q 3266 2144 3266 1488 
Q 3266 1056 3080 686 
Q 2894 316 2569 119 
Q 2244 -78 1831 -78 
Q 1128 -78 684 439 
Q 241 956 241 2144 
Q 241 3472 731 4075 
Q 1159 4600 1884 4600 
Q 2425 4600 2770 4297 
Q 3116 3994 3184 3459 
z
M 888 1484 
Q 888 1194 1011 928 
Q 1134 663 1356 523 
Q 1578 384 1822 384 
Q 2178 384 2434 671 
Q 2691 959 2691 1453 
Q 2691 1928 2437 2201 
Q 2184 2475 1800 2475 
Q 1419 2475 1153 2201 
Q 888 1928 888 1484 
z
" transform="scale(0.015625)"/>
       </defs>
       <use xlink:href="#ArialMT-31" transform="translate(0 0.99375)"/>
       <use xlink:href="#ArialMT-30" transform="translate(55.615234 0.99375)"/>
       <use xlink:href="#ArialMT-36" transform="translate(112.972813 70.6875) scale(0.7)"/>
      </g>
     </g>
    </g>
    <g id="xtick_4">
     <g id="line2d_4">
      <path d="M 660.946448 433.44 
L 660.946448 20.16 
" clip-path="url(#pfea30db6fa)" style="fill: none; stroke: #cccccc; stroke-width: 0.8; stroke-linecap: round"/>
     </g>
     <g id="text_4">
      <!-- $\mathdefault{10^{7}}$ -->
      <g style="fill: #262626" transform="translate(647.130448 459.714) scale(0.176 -0.176)">
       <defs>
        <path id="ArialMT-37" d="M 303 3981 
L 303 4522 
L 3269 4522 
L 3269 4084 
Q 2831 3619 2401 2847 
Q 1972 2075 1738 1259 
Q 1569 684 1522 0 
L 944 0 
Q 953 541 1156 1306 
Q 1359 2072 1739 2783 
Q 2119 3494 2547 3981 
L 303 3981 
z
" transform="scale(0.015625)"/>
       </defs>
       <use xlink:href="#ArialMT-31" transform="translate(0 0.846875)"/>
       <use xlink:href="#ArialMT-30" transform="translate(55.615234 0.846875)"/>
       <use xlink:href="#ArialMT-37" transform="translate(112.972813 70.540625) scale(0.7)"/>
      </g>
     </g>
    </g>
    <g id="xtick_5">
     <g id="line2d_5">
      <path d="M 840.720097 433.44 
L 840.720097 20.16 
" clip-path="url(#pfea30db6fa)" style="fill: none; stroke: #cccccc; stroke-width: 0.8; stroke-linecap: round"/>
     </g>
     <g id="text_5">
      <!-- $\mathdefault{10^{8}}$ -->
      <g style="fill: #262626" transform="translate(826.904097 459.89) scale(0.176 -0.176)">
       <defs>
        <path id="ArialMT-38" d="M 1131 2484 
Q 781 2613 612 2850 
Q 444 3088 444 3419 
Q 444 3919 803 4259 
Q 1163 4600 1759 4600 
Q 2359 4600 2725 4251 
Q 3091 3903 3091 3403 
Q 3091 3084 2923 2848 
Q 2756 2613 2416 2484 
Q 2838 2347 3058 2040 
Q 3278 1734 3278 1309 
Q 3278 722 2862 322 
Q 2447 -78 1769 -78 
Q 1091 -78 675 323 
Q 259 725 259 1325 
Q 259 1772 486 2073 
Q 713 2375 1131 2484 
z
M 1019 3438 
Q 1019 3113 1228 2906 
Q 1438 2700 1772 2700 
Q 2097 2700 2305 2904 
Q 2513 3109 2513 3406 
Q 2513 3716 2298 3927 
Q 2084 4138 1766 4138 
Q 1444 4138 1231 3931 
Q 1019 3725 1019 3438 
z
M 838 1322 
Q 838 1081 952 856 
Q 1066 631 1291 507 
Q 1516 384 1775 384 
Q 2178 384 2440 643 
Q 2703 903 2703 1303 
Q 2703 1709 2433 1975 
Q 2163 2241 1756 2241 
Q 1359 2241 1098 1978 
Q 838 1716 838 1322 
z
" transform="scale(0.015625)"/>
       </defs>
       <use xlink:href="#ArialMT-31" transform="translate(0 0.99375)"/>
       <use xlink:href="#ArialMT-30" transform="translate(55.615234 0.99375)"/>
       <use xlink:href="#ArialMT-38" transform="translate(112.972813 70.6875) scale(0.7)"/>
      </g>
     </g>
    </g>
    <g id="xtick_6"/>
    <g id="xtick_7"/>
    <g id="xtick_8"/>
    <g id="xtick_9"/>
    <g id="xtick_10"/>
    <g id="xtick_11"/>
    <g id="xtick_12"/>
    <g id="xtick_13"/>
    <g id="xtick_14"/>
    <g id="xtick_15"/>
    <g id="xtick_16"/>
    <g id="xtick_17"/>
    <g id="xtick_18"/>
    <g id="xtick_19"/>
    <g id="xtick_20"/>
    <g id="xtick_21"/>
    <g id="xtick_22"/>
    <g id="xtick_23"/>
    <g id="xtick_24"/>
    <g id="xtick_25"/>
    <g id="xtick_26"/>
    <g id="xtick_27"/>
    <g id="xtick_28"/>
    <g id="xtick_29"/>
    <g id="xtick_30"/>
    <g id="xtick_31"/>
    <g id="xtick_32"/>
    <g id="xtick_33"/>
    <g id="xtick_34"/>
    <g id="xtick_35"/>
    <g id="xtick_36"/>
    <g id="xtick_37"/>
    <g id="xtick_38"/>
    <g id="xtick_39"/>
    <g id="xtick_40"/>
    <g id="xtick_41"/>
    <g id="text_6">
     <!-- #Cells -->
     <g style="fill: #262626" transform="translate(428.364 481.131) scale(0.192 -0.192)">
      <defs>
       <path id="ArialMT-23" d="M 322 -78 
L 594 1253 
L 66 1253 
L 66 1719 
L 688 1719 
L 919 2853 
L 66 2853 
L 66 3319 
L 1013 3319 
L 1284 4659 
L 1753 4659 
L 1481 3319 
L 2466 3319 
L 2738 4659 
L 3209 4659 
L 2938 3319 
L 3478 3319 
L 3478 2853 
L 2844 2853 
L 2609 1719 
L 3478 1719 
L 3478 1253 
L 2516 1253 
L 2244 -78 
L 1775 -78 
L 2044 1253 
L 1063 1253 
L 791 -78 
L 322 -78 
z
M 1156 1719 
L 2138 1719 
L 2372 2853 
L 1388 2853 
L 1156 1719 
z
" transform="scale(0.015625)"/>
       <path id="ArialMT-43" d="M 3763 1606 
L 4369 1453 
Q 4178 706 3683 314 
Q 3188 -78 2472 -78 
Q 1731 -78 1267 223 
Q 803 525 561 1097 
Q 319 1669 319 2325 
Q 319 3041 592 3573 
Q 866 4106 1370 4382 
Q 1875 4659 2481 4659 
Q 3169 4659 3637 4309 
Q 4106 3959 4291 3325 
L 3694 3184 
Q 3534 3684 3231 3912 
Q 2928 4141 2469 4141 
Q 1941 4141 1586 3887 
Q 1231 3634 1087 3207 
Q 944 2781 944 2328 
Q 944 1744 1114 1308 
Q 1284 872 1643 656 
Q 2003 441 2422 441 
Q 2931 441 3284 734 
Q 3638 1028 3763 1606 
z
" transform="scale(0.015625)"/>
       <path id="ArialMT-65" d="M 2694 1069 
L 3275 997 
Q 3138 488 2766 206 
Q 2394 -75 1816 -75 
Q 1088 -75 661 373 
Q 234 822 234 1631 
Q 234 2469 665 2931 
Q 1097 3394 1784 3394 
Q 2450 3394 2872 2941 
Q 3294 2488 3294 1666 
Q 3294 1616 3291 1516 
L 816 1516 
Q 847 969 1125 678 
Q 1403 388 1819 388 
Q 2128 388 2347 550 
Q 2566 713 2694 1069 
z
M 847 1978 
L 2700 1978 
Q 2663 2397 2488 2606 
Q 2219 2931 1791 2931 
Q 1403 2931 1139 2672 
Q 875 2413 847 1978 
z
" transform="scale(0.015625)"/>
       <path id="ArialMT-6c" d="M 409 0 
L 409 4581 
L 972 4581 
L 972 0 
L 409 0 
z
" transform="scale(0.015625)"/>
       <path id="ArialMT-73" d="M 197 991 
L 753 1078 
Q 800 744 1014 566 
Q 1228 388 1613 388 
Q 2000 388 2187 545 
Q 2375 703 2375 916 
Q 2375 1106 2209 1216 
Q 2094 1291 1634 1406 
Q 1016 1563 777 1677 
Q 538 1791 414 1992 
Q 291 2194 291 2438 
Q 291 2659 392 2848 
Q 494 3038 669 3163 
Q 800 3259 1026 3326 
Q 1253 3394 1513 3394 
Q 1903 3394 2198 3281 
Q 2494 3169 2634 2976 
Q 2775 2784 2828 2463 
L 2278 2388 
Q 2241 2644 2061 2787 
Q 1881 2931 1553 2931 
Q 1166 2931 1000 2803 
Q 834 2675 834 2503 
Q 834 2394 903 2306 
Q 972 2216 1119 2156 
Q 1203 2125 1616 2013 
Q 2213 1853 2448 1751 
Q 2684 1650 2818 1456 
Q 2953 1263 2953 975 
Q 2953 694 2789 445 
Q 2625 197 2315 61 
Q 2006 -75 1616 -75 
Q 969 -75 630 194 
Q 291 463 197 991 
z
" transform="scale(0.015625)"/>
      </defs>
      <use xlink:href="#ArialMT-23"/>
      <use xlink:href="#ArialMT-43" transform="translate(55.615234 0)"/>
      <use xlink:href="#ArialMT-65" transform="translate(127.832031 0)"/>
      <use xlink:href="#ArialMT-6c" transform="translate(183.447266 0)"/>
      <use xlink:href="#ArialMT-6c" transform="translate(205.664062 0)"/>
      <use xlink:href="#ArialMT-73" transform="translate(227.880859 0)"/>
     </g>
    </g>
   </g>
   <g id="matplotlib.axis_2">
    <g id="ytick_1">
     <g id="line2d_6">
      <path d="M 69.12 420.535184 
L 840.96 420.535184 
" clip-path="url(#pfea30db6fa)" style="fill: none; stroke: #cccccc; stroke-width: 0.8; stroke-linecap: round"/>
     </g>
     <g id="text_7">
      <!-- −200 -->
      <g style="fill: #262626" transform="translate(21.17875 426.834059) scale(0.176 -0.176)">
       <defs>
        <path id="ArialMT-2212" d="M 3381 1997 
L 356 1997 
L 356 2522 
L 3381 2522 
L 3381 1997 
z
" transform="scale(0.015625)"/>
        <path id="ArialMT-32" d="M 3222 541 
L 3222 0 
L 194 0 
Q 188 203 259 391 
Q 375 700 629 1000 
Q 884 1300 1366 1694 
Q 2113 2306 2375 2664 
Q 2638 3022 2638 3341 
Q 2638 3675 2398 3904 
Q 2159 4134 1775 4134 
Q 1369 4134 1125 3890 
Q 881 3647 878 3216 
L 300 3275 
Q 359 3922 746 4261 
Q 1134 4600 1788 4600 
Q 2447 4600 2831 4234 
Q 3216 3869 3216 3328 
Q 3216 3053 3103 2787 
Q 2991 2522 2730 2228 
Q 2469 1934 1863 1422 
Q 1356 997 1212 845 
Q 1069 694 975 541 
L 3222 541 
z
" transform="scale(0.015625)"/>
       </defs>
       <use xlink:href="#ArialMT-2212"/>
       <use xlink:href="#ArialMT-32" transform="translate(58.398438 0)"/>
       <use xlink:href="#ArialMT-30" transform="translate(114.013672 0)"/>
       <use xlink:href="#ArialMT-30" transform="translate(169.628906 0)"/>
      </g>
     </g>
    </g>
    <g id="ytick_2">
     <g id="line2d_7">
      <path d="M 69.12 373.262382 
L 840.96 373.262382 
" clip-path="url(#pfea30db6fa)" style="fill: none; stroke: #cccccc; stroke-width: 0.8; stroke-linecap: round"/>
     </g>
     <g id="text_8">
      <!-- −175 -->
      <g style="fill: #262626" transform="translate(21.17875 379.561257) scale(0.176 -0.176)">
       <use xlink:href="#ArialMT-2212"/>
       <use xlink:href="#ArialMT-31" transform="translate(58.398438 0)"/>
       <use xlink:href="#ArialMT-37" transform="translate(114.013672 0)"/>
       <use xlink:href="#ArialMT-35" transform="translate(169.628906 0)"/>
      </g>
     </g>
    </g>
    <g id="ytick_3">
     <g id="line2d_8">
      <path d="M 69.12 325.989581 
L 840.96 325.989581 
" clip-path="url(#pfea30db6fa)" style="fill: none; stroke: #cccccc; stroke-width: 0.8; stroke-linecap: round"/>
     </g>
     <g id="text_9">
      <!-- −150 -->
      <g style="fill: #262626" transform="translate(21.17875 332.288456) scale(0.176 -0.176)">
       <use xlink:href="#ArialMT-2212"/>
       <use xlink:href="#ArialMT-31" transform="translate(58.398438 0)"/>
       <use xlink:href="#ArialMT-35" transform="translate(114.013672 0)"/>
       <use xlink:href="#ArialMT-30" transform="translate(169.628906 0)"/>
      </g>
     </g>
    </g>
    <g id="ytick_4">
     <g id="line2d_9">
      <path d="M 69.12 278.71678 
L 840.96 278.71678 
" clip-path="url(#pfea30db6fa)" style="fill: none; stroke: #cccccc; stroke-width: 0.8; stroke-linecap: round"/>
     </g>
     <g id="text_10">
      <!-- −125 -->
      <g style="fill: #262626" transform="translate(21.17875 285.015655) scale(0.176 -0.176)">
       <use xlink:href="#ArialMT-2212"/>
       <use xlink:href="#ArialMT-31" transform="translate(58.398438 0)"/>
       <use xlink:href="#ArialMT-32" transform="translate(114.013672 0)"/>
       <use xlink:href="#ArialMT-35" transform="translate(169.628906 0)"/>
      </g>
     </g>
    </g>
    <g id="ytick_5">
     <g id="line2d_10">
      <path d="M 69.12 231.443979 
L 840.96 231.443979 
" clip-path="url(#pfea30db6fa)" style="fill: none; stroke: #cccccc; stroke-width: 0.8; stroke-linecap: round"/>
     </g>
     <g id="text_11">
      <!-- −100 -->
      <g style="fill: #262626" transform="translate(21.17875 237.742854) scale(0.176 -0.176)">
       <use xlink:href="#ArialMT-2212"/>
       <use xlink:href="#ArialMT-31" transform="translate(58.398438 0)"/>
       <use xlink:href="#ArialMT-30" transform="translate(114.013672 0)"/>
       <use xlink:href="#ArialMT-30" transform="translate(169.628906 0)"/>
      </g>
     </g>
    </g>
    <g id="ytick_6">
     <g id="line2d_11">
      <path d="M 69.12 184.171178 
L 840.96 184.171178 
" clip-path="url(#pfea30db6fa)" style="fill: none; stroke: #cccccc; stroke-width: 0.8; stroke-linecap: round"/>
     </g>
     <g id="text_12">
      <!-- −75 -->
      <g style="fill: #262626" transform="translate(30.966 190.470053) scale(0.176 -0.176)">
       <use xlink:href="#ArialMT-2212"/>
       <use xlink:href="#ArialMT-37" transform="translate(58.398438 0)"/>
       <use xlink:href="#ArialMT-35" transform="translate(114.013672 0)"/>
      </g>
     </g>
    </g>
    <g id="ytick_7">
     <g id="line2d_12">
      <path d="M 69.12 136.898377 
L 840.96 136.898377 
" clip-path="url(#pfea30db6fa)" style="fill: none; stroke: #cccccc; stroke-width: 0.8; stroke-linecap: round"/>
     </g>
     <g id="text_13">
      <!-- −50 -->
      <g style="fill: #262626" transform="translate(30.966 143.197252) scale(0.176 -0.176)">
       <use xlink:href="#ArialMT-2212"/>
       <use xlink:href="#ArialMT-35" transform="translate(58.398438 0)"/>
       <use xlink:href="#ArialMT-30" transform="translate(114.013672 0)"/>
      </g>
     </g>
    </g>
    <g id="ytick_8">
     <g id="line2d_13">
      <path d="M 69.12 89.625576 
L 840.96 89.625576 
" clip-path="url(#pfea30db6fa)" style="fill: none; stroke: #cccccc; stroke-width: 0.8; stroke-linecap: round"/>
     </g>
     <g id="text_14">
      <!-- −25 -->
      <g style="fill: #262626" transform="translate(30.966 95.924451) scale(0.176 -0.176)">
       <use xlink:href="#ArialMT-2212"/>
       <use xlink:href="#ArialMT-32" transform="translate(58.398438 0)"/>
       <use xlink:href="#ArialMT-35" transform="translate(114.013672 0)"/>
      </g>
     </g>
    </g>
    <g id="ytick_9">
     <g id="line2d_14">
      <path d="M 69.12 42.352775 
L 840.96 42.352775 
" clip-path="url(#pfea30db6fa)" style="fill: none; stroke: #cccccc; stroke-width: 0.8; stroke-linecap: round"/>
     </g>
     <g id="text_15">
      <!-- 0 -->
      <g style="fill: #262626" transform="translate(51.03275 48.65165) scale(0.176 -0.176)">
       <use xlink:href="#ArialMT-30"/>
      </g>
     </g>
    </g>
    <g id="text_16">
     <!-- H200 - H100 Bandwidth Difference (GB/s) -->
     <g style="fill: #262626" transform="translate(13.13775 405.3705) rotate(-90) scale(0.192 -0.192)">
      <defs>
       <path id="ArialMT-48" d="M 513 0 
L 513 4581 
L 1119 4581 
L 1119 2700 
L 3500 2700 
L 3500 4581 
L 4106 4581 
L 4106 0 
L 3500 0 
L 3500 2159 
L 1119 2159 
L 1119 0 
L 513 0 
z
" transform="scale(0.015625)"/>
       <path id="ArialMT-20" transform="scale(0.015625)"/>
       <path id="ArialMT-2d" d="M 203 1375 
L 203 1941 
L 1931 1941 
L 1931 1375 
L 203 1375 
z
" transform="scale(0.015625)"/>
       <path id="ArialMT-42" d="M 469 0 
L 469 4581 
L 2188 4581 
Q 2713 4581 3030 4442 
Q 3347 4303 3526 4014 
Q 3706 3725 3706 3409 
Q 3706 3116 3547 2856 
Q 3388 2597 3066 2438 
Q 3481 2316 3704 2022 
Q 3928 1728 3928 1328 
Q 3928 1006 3792 729 
Q 3656 453 3456 303 
Q 3256 153 2954 76 
Q 2653 0 2216 0 
L 469 0 
z
M 1075 2656 
L 2066 2656 
Q 2469 2656 2644 2709 
Q 2875 2778 2992 2937 
Q 3109 3097 3109 3338 
Q 3109 3566 3000 3739 
Q 2891 3913 2687 3977 
Q 2484 4041 1991 4041 
L 1075 4041 
L 1075 2656 
z
M 1075 541 
L 2216 541 
Q 2509 541 2628 563 
Q 2838 600 2978 687 
Q 3119 775 3209 942 
Q 3300 1109 3300 1328 
Q 3300 1584 3169 1773 
Q 3038 1963 2805 2039 
Q 2572 2116 2134 2116 
L 1075 2116 
L 1075 541 
z
" transform="scale(0.015625)"/>
       <path id="ArialMT-61" d="M 2588 409 
Q 2275 144 1986 34 
Q 1697 -75 1366 -75 
Q 819 -75 525 192 
Q 231 459 231 875 
Q 231 1119 342 1320 
Q 453 1522 633 1644 
Q 813 1766 1038 1828 
Q 1203 1872 1538 1913 
Q 2219 1994 2541 2106 
Q 2544 2222 2544 2253 
Q 2544 2597 2384 2738 
Q 2169 2928 1744 2928 
Q 1347 2928 1158 2789 
Q 969 2650 878 2297 
L 328 2372 
Q 403 2725 575 2942 
Q 747 3159 1072 3276 
Q 1397 3394 1825 3394 
Q 2250 3394 2515 3294 
Q 2781 3194 2906 3042 
Q 3031 2891 3081 2659 
Q 3109 2516 3109 2141 
L 3109 1391 
Q 3109 606 3145 398 
Q 3181 191 3288 0 
L 2700 0 
Q 2613 175 2588 409 
z
M 2541 1666 
Q 2234 1541 1622 1453 
Q 1275 1403 1131 1340 
Q 988 1278 909 1158 
Q 831 1038 831 891 
Q 831 666 1001 516 
Q 1172 366 1500 366 
Q 1825 366 2078 508 
Q 2331 650 2450 897 
Q 2541 1088 2541 1459 
L 2541 1666 
z
" transform="scale(0.015625)"/>
       <path id="ArialMT-6e" d="M 422 0 
L 422 3319 
L 928 3319 
L 928 2847 
Q 1294 3394 1984 3394 
Q 2284 3394 2536 3286 
Q 2788 3178 2913 3003 
Q 3038 2828 3088 2588 
Q 3119 2431 3119 2041 
L 3119 0 
L 2556 0 
L 2556 2019 
Q 2556 2363 2490 2533 
Q 2425 2703 2258 2804 
Q 2091 2906 1866 2906 
Q 1506 2906 1245 2678 
Q 984 2450 984 1813 
L 984 0 
L 422 0 
z
" transform="scale(0.015625)"/>
       <path id="ArialMT-64" d="M 2575 0 
L 2575 419 
Q 2259 -75 1647 -75 
Q 1250 -75 917 144 
Q 584 363 401 755 
Q 219 1147 219 1656 
Q 219 2153 384 2558 
Q 550 2963 881 3178 
Q 1213 3394 1622 3394 
Q 1922 3394 2156 3267 
Q 2391 3141 2538 2938 
L 2538 4581 
L 3097 4581 
L 3097 0 
L 2575 0 
z
M 797 1656 
Q 797 1019 1065 703 
Q 1334 388 1700 388 
Q 2069 388 2326 689 
Q 2584 991 2584 1609 
Q 2584 2291 2321 2609 
Q 2059 2928 1675 2928 
Q 1300 2928 1048 2622 
Q 797 2316 797 1656 
z
" transform="scale(0.015625)"/>
       <path id="ArialMT-77" d="M 1034 0 
L 19 3319 
L 600 3319 
L 1128 1403 
L 1325 691 
Q 1338 744 1497 1375 
L 2025 3319 
L 2603 3319 
L 3100 1394 
L 3266 759 
L 3456 1400 
L 4025 3319 
L 4572 3319 
L 3534 0 
L 2950 0 
L 2422 1988 
L 2294 2553 
L 1622 0 
L 1034 0 
z
" transform="scale(0.015625)"/>
       <path id="ArialMT-69" d="M 425 3934 
L 425 4581 
L 988 4581 
L 988 3934 
L 425 3934 
z
M 425 0 
L 425 3319 
L 988 3319 
L 988 0 
L 425 0 
z
" transform="scale(0.015625)"/>
       <path id="ArialMT-74" d="M 1650 503 
L 1731 6 
Q 1494 -44 1306 -44 
Q 1000 -44 831 53 
Q 663 150 594 308 
Q 525 466 525 972 
L 525 2881 
L 113 2881 
L 113 3319 
L 525 3319 
L 525 4141 
L 1084 4478 
L 1084 3319 
L 1650 3319 
L 1650 2881 
L 1084 2881 
L 1084 941 
Q 1084 700 1114 631 
Q 1144 563 1211 522 
Q 1278 481 1403 481 
Q 1497 481 1650 503 
z
" transform="scale(0.015625)"/>
       <path id="ArialMT-68" d="M 422 0 
L 422 4581 
L 984 4581 
L 984 2938 
Q 1378 3394 1978 3394 
Q 2347 3394 2619 3248 
Q 2891 3103 3008 2847 
Q 3125 2591 3125 2103 
L 3125 0 
L 2563 0 
L 2563 2103 
Q 2563 2525 2380 2717 
Q 2197 2909 1863 2909 
Q 1613 2909 1392 2779 
Q 1172 2650 1078 2428 
Q 984 2206 984 1816 
L 984 0 
L 422 0 
z
" transform="scale(0.015625)"/>
       <path id="ArialMT-44" d="M 494 0 
L 494 4581 
L 2072 4581 
Q 2606 4581 2888 4516 
Q 3281 4425 3559 4188 
Q 3922 3881 4101 3404 
Q 4281 2928 4281 2316 
Q 4281 1794 4159 1391 
Q 4038 988 3847 723 
Q 3656 459 3429 307 
Q 3203 156 2883 78 
Q 2563 0 2147 0 
L 494 0 
z
M 1100 541 
L 2078 541 
Q 2531 541 2789 625 
Q 3047 709 3200 863 
Q 3416 1078 3536 1442 
Q 3656 1806 3656 2325 
Q 3656 3044 3420 3430 
Q 3184 3816 2847 3947 
Q 2603 4041 2063 4041 
L 1100 4041 
L 1100 541 
z
" transform="scale(0.015625)"/>
       <path id="ArialMT-66" d="M 556 0 
L 556 2881 
L 59 2881 
L 59 3319 
L 556 3319 
L 556 3672 
Q 556 4006 616 4169 
Q 697 4388 901 4523 
Q 1106 4659 1475 4659 
Q 1713 4659 2000 4603 
L 1916 4113 
Q 1741 4144 1584 4144 
Q 1328 4144 1222 4034 
Q 1116 3925 1116 3625 
L 1116 3319 
L 1763 3319 
L 1763 2881 
L 1116 2881 
L 1116 0 
L 556 0 
z
" transform="scale(0.015625)"/>
       <path id="ArialMT-72" d="M 416 0 
L 416 3319 
L 922 3319 
L 922 2816 
Q 1116 3169 1280 3281 
Q 1444 3394 1641 3394 
Q 1925 3394 2219 3213 
L 2025 2691 
Q 1819 2813 1613 2813 
Q 1428 2813 1281 2702 
Q 1134 2591 1072 2394 
Q 978 2094 978 1738 
L 978 0 
L 416 0 
z
" transform="scale(0.015625)"/>
       <path id="ArialMT-63" d="M 2588 1216 
L 3141 1144 
Q 3050 572 2676 248 
Q 2303 -75 1759 -75 
Q 1078 -75 664 370 
Q 250 816 250 1647 
Q 250 2184 428 2587 
Q 606 2991 970 3192 
Q 1334 3394 1763 3394 
Q 2303 3394 2647 3120 
Q 2991 2847 3088 2344 
L 2541 2259 
Q 2463 2594 2264 2762 
Q 2066 2931 1784 2931 
Q 1359 2931 1093 2626 
Q 828 2322 828 1663 
Q 828 994 1084 691 
Q 1341 388 1753 388 
Q 2084 388 2306 591 
Q 2528 794 2588 1216 
z
" transform="scale(0.015625)"/>
       <path id="ArialMT-28" d="M 1497 -1347 
Q 1031 -759 709 28 
Q 388 816 388 1659 
Q 388 2403 628 3084 
Q 909 3875 1497 4659 
L 1900 4659 
Q 1522 4009 1400 3731 
Q 1209 3300 1100 2831 
Q 966 2247 966 1656 
Q 966 153 1900 -1347 
L 1497 -1347 
z
" transform="scale(0.015625)"/>
       <path id="ArialMT-47" d="M 2638 1797 
L 2638 2334 
L 4578 2338 
L 4578 638 
Q 4131 281 3656 101 
Q 3181 -78 2681 -78 
Q 2006 -78 1454 211 
Q 903 500 622 1047 
Q 341 1594 341 2269 
Q 341 2938 620 3517 
Q 900 4097 1425 4378 
Q 1950 4659 2634 4659 
Q 3131 4659 3532 4498 
Q 3934 4338 4162 4050 
Q 4391 3763 4509 3300 
L 3963 3150 
Q 3859 3500 3706 3700 
Q 3553 3900 3268 4020 
Q 2984 4141 2638 4141 
Q 2222 4141 1919 4014 
Q 1616 3888 1430 3681 
Q 1244 3475 1141 3228 
Q 966 2803 966 2306 
Q 966 1694 1177 1281 
Q 1388 869 1791 669 
Q 2194 469 2647 469 
Q 3041 469 3416 620 
Q 3791 772 3984 944 
L 3984 1797 
L 2638 1797 
z
" transform="scale(0.015625)"/>
       <path id="ArialMT-2f" d="M 0 -78 
L 1328 4659 
L 1778 4659 
L 453 -78 
L 0 -78 
z
" transform="scale(0.015625)"/>
       <path id="ArialMT-29" d="M 791 -1347 
L 388 -1347 
Q 1322 153 1322 1656 
Q 1322 2244 1188 2822 
Q 1081 3291 891 3722 
Q 769 4003 388 4659 
L 791 4659 
Q 1378 3875 1659 3084 
Q 1900 2403 1900 1659 
Q 1900 816 1576 28 
Q 1253 -759 791 -1347 
z
" transform="scale(0.015625)"/>
      </defs>
      <use xlink:href="#ArialMT-48"/>
      <use xlink:href="#ArialMT-32" transform="translate(72.216797 0)"/>
      <use xlink:href="#ArialMT-30" transform="translate(127.832031 0)"/>
      <use xlink:href="#ArialMT-30" transform="translate(183.447266 0)"/>
      <use xlink:href="#ArialMT-20" transform="translate(239.0625 0)"/>
      <use xlink:href="#ArialMT-2d" transform="translate(266.845703 0)"/>
      <use xlink:href="#ArialMT-20" transform="translate(300.146484 0)"/>
      <use xlink:href="#ArialMT-48" transform="translate(327.929688 0)"/>
      <use xlink:href="#ArialMT-31" transform="translate(400.146484 0)"/>
      <use xlink:href="#ArialMT-30" transform="translate(455.761719 0)"/>
      <use xlink:href="#ArialMT-30" transform="translate(511.376953 0)"/>
      <use xlink:href="#ArialMT-20" transform="translate(566.992188 0)"/>
      <use xlink:href="#ArialMT-42" transform="translate(594.775391 0)"/>
      <use xlink:href="#ArialMT-61" transform="translate(661.474609 0)"/>
      <use xlink:href="#ArialMT-6e" transform="translate(717.089844 0)"/>
      <use xlink:href="#ArialMT-64" transform="translate(772.705078 0)"/>
      <use xlink:href="#ArialMT-77" transform="translate(828.320312 0)"/>
      <use xlink:href="#ArialMT-69" transform="translate(900.537109 0)"/>
      <use xlink:href="#ArialMT-64" transform="translate(922.753906 0)"/>
      <use xlink:href="#ArialMT-74" transform="translate(978.369141 0)"/>
      <use xlink:href="#ArialMT-68" transform="translate(1006.152344 0)"/>
      <use xlink:href="#ArialMT-20" transform="translate(1061.767578 0)"/>
      <use xlink:href="#ArialMT-44" transform="translate(1089.550781 0)"/>
      <use xlink:href="#ArialMT-69" transform="translate(1161.767578 0)"/>
      <use xlink:href="#ArialMT-66" transform="translate(1183.984375 0)"/>
      <use xlink:href="#ArialMT-66" transform="translate(1210.017578 0)"/>
      <use xlink:href="#ArialMT-65" transform="translate(1237.800781 0)"/>
      <use xlink:href="#ArialMT-72" transform="translate(1293.416016 0)"/>
      <use xlink:href="#ArialMT-65" transform="translate(1326.716797 0)"/>
      <use xlink:href="#ArialMT-6e" transform="translate(1382.332031 0)"/>
      <use xlink:href="#ArialMT-63" transform="translate(1437.947266 0)"/>
      <use xlink:href="#ArialMT-65" transform="translate(1487.947266 0)"/>
      <use xlink:href="#ArialMT-20" transform="translate(1543.5625 0)"/>
      <use xlink:href="#ArialMT-28" transform="translate(1571.345703 0)"/>
      <use xlink:href="#ArialMT-47" transform="translate(1604.646484 0)"/>
      <use xlink:href="#ArialMT-42" transform="translate(1682.429688 0)"/>
      <use xlink:href="#ArialMT-2f" transform="translate(1749.128906 0)"/>
      <use xlink:href="#ArialMT-73" transform="translate(1776.912109 0)"/>
      <use xlink:href="#ArialMT-29" transform="translate(1826.912109 0)"/>
     </g>
    </g>
   </g>
   <g id="line2d_15">
    <path d="M 104.203636 44.184322 
L 199.173341 48.818275 
L 266.555418 57.877629 
L 318.821018 70.265395 
L 361.525123 85.538932 
L 397.630928 116.579728 
L 428.9072 117.228753 
L 456.494827 142.796381 
L 481.1728 127.930328 
L 503.496742 146.552366 
L 523.876904 176.635935 
L 542.624836 177.415904 
L 559.98271 160.384524 
L 576.142504 157.908804 
L 591.258982 169.878597 
L 605.45873 197.302059 
L 618.846609 355.041587 
L 631.510456 414.654545 
L 643.524582 391.982881 
L 665.848524 329.350821 
L 686.228686 253.065454 
L 704.976618 239.31556 
L 722.334492 301.703439 
L 738.494286 300.390783 
L 753.610764 287.392474 
L 767.810512 253.795287 
L 781.198391 247.670838 
L 793.862237 412.551713 
L 805.876364 368.765132 
" clip-path="url(#pfea30db6fa)" style="fill: none; stroke: #4c72b0; stroke-width: 1.2; stroke-linecap: round"/>
    <defs>
     <path id="m018d728d88" d="M 0 7 
C 1.856422 7 3.637059 6.262436 4.949747 4.949747 
C 6.262436 3.637059 7 1.856422 7 0 
C 7 -1.856422 6.262436 -3.637059 4.949747 -4.949747 
C 3.637059 -6.262436 1.856422 -7 0 -7 
C -1.856422 -7 -3.637059 -6.262436 -4.949747 -4.949747 
C -6.262436 -3.637059 -7 -1.856422 -7 0 
C -7 1.856422 -6.262436 3.637059 -4.949747 4.949747 
C -3.637059 6.262436 -1.856422 7 0 7 
z
" style="stroke: #ffffff; stroke-width: 0.75"/>
    </defs>
    <g clip-path="url(#pfea30db6fa)">
     <use xlink:href="#m018d728d88" x="104.203636" y="44.184322" style="fill: #4c72b0; stroke: #ffffff; stroke-width: 0.75"/>
     <use xlink:href="#m018d728d88" x="199.173341" y="48.818275" style="fill: #4c72b0; stroke: #ffffff; stroke-width: 0.75"/>
     <use xlink:href="#m018d728d88" x="266.555418" y="57.877629" style="fill: #4c72b0; stroke: #ffffff; stroke-width: 0.75"/>
     <use xlink:href="#m018d728d88" x="318.821018" y="70.265395" style="fill: #4c72b0; stroke: #ffffff; stroke-width: 0.75"/>
     <use xlink:href="#m018d728d88" x="361.525123" y="85.538932" style="fill: #4c72b0; stroke: #ffffff; stroke-width: 0.75"/>
     <use xlink:href="#m018d728d88" x="397.630928" y="116.579728" style="fill: #4c72b0; stroke: #ffffff; stroke-width: 0.75"/>
     <use xlink:href="#m018d728d88" x="428.9072" y="117.228753" style="fill: #4c72b0; stroke: #ffffff; stroke-width: 0.75"/>
     <use xlink:href="#m018d728d88" x="456.494827" y="142.796381" style="fill: #4c72b0; stroke: #ffffff; stroke-width: 0.75"/>
     <use xlink:href="#m018d728d88" x="481.1728" y="127.930328" style="fill: #4c72b0; stroke: #ffffff; stroke-width: 0.75"/>
     <use xlink:href="#m018d728d88" x="503.496742" y="146.552366" style="fill: #4c72b0; stroke: #ffffff; stroke-width: 0.75"/>
     <use xlink:href="#m018d728d88" x="523.876904" y="176.635935" style="fill: #4c72b0; stroke: #ffffff; stroke-width: 0.75"/>
     <use xlink:href="#m018d728d88" x="542.624836" y="177.415904" style="fill: #4c72b0; stroke: #ffffff; stroke-width: 0.75"/>
     <use xlink:href="#m018d728d88" x="559.98271" y="160.384524" style="fill: #4c72b0; stroke: #ffffff; stroke-width: 0.75"/>
     <use xlink:href="#m018d728d88" x="576.142504" y="157.908804" style="fill: #4c72b0; stroke: #ffffff; stroke-width: 0.75"/>
     <use xlink:href="#m018d728d88" x="591.258982" y="169.878597" style="fill: #4c72b0; stroke: #ffffff; stroke-width: 0.75"/>
     <use xlink:href="#m018d728d88" x="605.45873" y="197.302059" style="fill: #4c72b0; stroke: #ffffff; stroke-width: 0.75"/>
     <use xlink:href="#m018d728d88" x="618.846609" y="355.041587" style="fill: #4c72b0; stroke: #ffffff; stroke-width: 0.75"/>
     <use xlink:href="#m018d728d88" x="631.510456" y="414.654545" style="fill: #4c72b0; stroke: #ffffff; stroke-width: 0.75"/>
     <use xlink:href="#m018d728d88" x="643.524582" y="391.982881" style="fill: #4c72b0; stroke: #ffffff; stroke-width: 0.75"/>
     <use xlink:href="#m018d728d88" x="665.848524" y="329.350821" style="fill: #4c72b0; stroke: #ffffff; stroke-width: 0.75"/>
     <use xlink:href="#m018d728d88" x="686.228686" y="253.065454" style="fill: #4c72b0; stroke: #ffffff; stroke-width: 0.75"/>
     <use xlink:href="#m018d728d88" x="704.976618" y="239.31556" style="fill: #4c72b0; stroke: #ffffff; stroke-width: 0.75"/>
     <use xlink:href="#m018d728d88" x="722.334492" y="301.703439" style="fill: #4c72b0; stroke: #ffffff; stroke-width: 0.75"/>
     <use xlink:href="#m018d728d88" x="738.494286" y="300.390783" style="fill: #4c72b0; stroke: #ffffff; stroke-width: 0.75"/>
     <use xlink:href="#m018d728d88" x="753.610764" y="287.392474" style="fill: #4c72b0; stroke: #ffffff; stroke-width: 0.75"/>
     <use xlink:href="#m018d728d88" x="767.810512" y="253.795287" style="fill: #4c72b0; stroke: #ffffff; stroke-width: 0.75"/>
     <use xlink:href="#m018d728d88" x="781.198391" y="247.670838" style="fill: #4c72b0; stroke: #ffffff; stroke-width: 0.75"/>
     <use xlink:href="#m018d728d88" x="793.862237" y="412.551713" style="fill: #4c72b0; stroke: #ffffff; stroke-width: 0.75"/>
     <use xlink:href="#m018d728d88" x="805.876364" y="368.765132" style="fill: #4c72b0; stroke: #ffffff; stroke-width: 0.75"/>
    </g>
   </g>
   <g id="line2d_16">
    <path d="M 104.203636 65.976369 
L 199.173341 114.712174 
L 266.555418 178.311676 
L 318.821018 277.907197 
L 361.525123 174.414791 
L 397.630928 184.258928 
L 428.9072 251.966549 
L 456.494827 243.060986 
L 481.1728 214.902663 
L 503.496742 206.450582 
L 523.876904 209.039608 
L 542.624836 204.495152 
L 559.98271 196.069562 
L 576.142504 188.589778 
L 591.258982 194.041172 
L 605.45873 183.921303 
L 618.846609 178.853233 
L 631.510456 155.061243 
L 643.524582 155.927317 
L 665.848524 151.589876 
L 686.228686 149.567448 
L 704.976618 143.442959 
L 722.334492 145.284055 
L 738.494286 147.046043 
L 753.610764 146.837133 
L 767.810512 143.76716 
L 781.198391 140.426971 
L 793.862237 155.943067 
L 805.876364 154.365738 
" clip-path="url(#pfea30db6fa)" style="fill: none; stroke-dasharray: 4.8,1.8; stroke-dashoffset: 0; stroke: #dd8452; stroke-width: 1.2"/>
    <defs>
     <path id="m2691504d08" d="M -3.5 7 
L 0 3.5 
L 3.5 7 
L 7 3.5 
L 3.5 0 
L 7 -3.5 
L 3.5 -7 
L 0 -3.5 
L -3.5 -7 
L -7 -3.5 
L -3.5 0 
L -7 3.5 
z
" style="stroke: #ffffff; stroke-width: 0.75; stroke-linejoin: miter"/>
    </defs>
    <g clip-path="url(#pfea30db6fa)">
     <use xlink:href="#m2691504d08" x="104.203636" y="65.976369" style="fill: #dd8452; stroke: #ffffff; stroke-width: 0.75; stroke-linejoin: miter"/>
     <use xlink:href="#m2691504d08" x="199.173341" y="114.712174" style="fill: #dd8452; stroke: #ffffff; stroke-width: 0.75; stroke-linejoin: miter"/>
     <use xlink:href="#m2691504d08" x="266.555418" y="178.311676" style="fill: #dd8452; stroke: #ffffff; stroke-width: 0.75; stroke-linejoin: miter"/>
     <use xlink:href="#m2691504d08" x="318.821018" y="277.907197" style="fill: #dd8452; stroke: #ffffff; stroke-width: 0.75; stroke-linejoin: miter"/>
     <use xlink:href="#m2691504d08" x="361.525123" y="174.414791" style="fill: #dd8452; stroke: #ffffff; stroke-width: 0.75; stroke-linejoin: miter"/>
     <use xlink:href="#m2691504d08" x="397.630928" y="184.258928" style="fill: #dd8452; stroke: #ffffff; stroke-width: 0.75; stroke-linejoin: miter"/>
     <use xlink:href="#m2691504d08" x="428.9072" y="251.966549" style="fill: #dd8452; stroke: #ffffff; stroke-width: 0.75; stroke-linejoin: miter"/>
     <use xlink:href="#m2691504d08" x="456.494827" y="243.060986" style="fill: #dd8452; stroke: #ffffff; stroke-width: 0.75; stroke-linejoin: miter"/>
     <use xlink:href="#m2691504d08" x="481.1728" y="214.902663" style="fill: #dd8452; stroke: #ffffff; stroke-width: 0.75; stroke-linejoin: miter"/>
     <use xlink:href="#m2691504d08" x="503.496742" y="206.450582" style="fill: #dd8452; stroke: #ffffff; stroke-width: 0.75; stroke-linejoin: miter"/>
     <use xlink:href="#m2691504d08" x="523.876904" y="209.039608" style="fill: #dd8452; stroke: #ffffff; stroke-width: 0.75; stroke-linejoin: miter"/>
     <use xlink:href="#m2691504d08" x="542.624836" y="204.495152" style="fill: #dd8452; stroke: #ffffff; stroke-width: 0.75; stroke-linejoin: miter"/>
     <use xlink:href="#m2691504d08" x="559.98271" y="196.069562" style="fill: #dd8452; stroke: #ffffff; stroke-width: 0.75; stroke-linejoin: miter"/>
     <use xlink:href="#m2691504d08" x="576.142504" y="188.589778" style="fill: #dd8452; stroke: #ffffff; stroke-width: 0.75; stroke-linejoin: miter"/>
     <use xlink:href="#m2691504d08" x="591.258982" y="194.041172" style="fill: #dd8452; stroke: #ffffff; stroke-width: 0.75; stroke-linejoin: miter"/>
     <use xlink:href="#m2691504d08" x="605.45873" y="183.921303" style="fill: #dd8452; stroke: #ffffff; stroke-width: 0.75; stroke-linejoin: miter"/>
     <use xlink:href="#m2691504d08" x="618.846609" y="178.853233" style="fill: #dd8452; stroke: #ffffff; stroke-width: 0.75; stroke-linejoin: miter"/>
     <use xlink:href="#m2691504d08" x="631.510456" y="155.061243" style="fill: #dd8452; stroke: #ffffff; stroke-width: 0.75; stroke-linejoin: miter"/>
     <use xlink:href="#m2691504d08" x="643.524582" y="155.927317" style="fill: #dd8452; stroke: #ffffff; stroke-width: 0.75; stroke-linejoin: miter"/>
     <use xlink:href="#m2691504d08" x="665.848524" y="151.589876" style="fill: #dd8452; stroke: #ffffff; stroke-width: 0.75; stroke-linejoin: miter"/>
     <use xlink:href="#m2691504d08" x="686.228686" y="149.567448" style="fill: #dd8452; stroke: #ffffff; stroke-width: 0.75; stroke-linejoin: miter"/>
     <use xlink:href="#m2691504d08" x="704.976618" y="143.442959" style="fill: #dd8452; stroke: #ffffff; stroke-width: 0.75; stroke-linejoin: miter"/>
     <use xlink:href="#m2691504d08" x="722.334492" y="145.284055" style="fill: #dd8452; stroke: #ffffff; stroke-width: 0.75; stroke-linejoin: miter"/>
     <use xlink:href="#m2691504d08" x="738.494286" y="147.046043" style="fill: #dd8452; stroke: #ffffff; stroke-width: 0.75; stroke-linejoin: miter"/>
     <use xlink:href="#m2691504d08" x="753.610764" y="146.837133" style="fill: #dd8452; stroke: #ffffff; stroke-width: 0.75; stroke-linejoin: miter"/>
     <use xlink:href="#m2691504d08" x="767.810512" y="143.76716" style="fill: #dd8452; stroke: #ffffff; stroke-width: 0.75; stroke-linejoin: miter"/>
     <use xlink:href="#m2691504d08" x="781.198391" y="140.426971" style="fill: #dd8452; stroke: #ffffff; stroke-width: 0.75; stroke-linejoin: miter"/>
     <use xlink:href="#m2691504d08" x="793.862237" y="155.943067" style="fill: #dd8452; stroke: #ffffff; stroke-width: 0.75; stroke-linejoin: miter"/>
     <use xlink:href="#m2691504d08" x="805.876364" y="154.365738" style="fill: #dd8452; stroke: #ffffff; stroke-width: 0.75; stroke-linejoin: miter"/>
    </g>
   </g>
   <g id="line2d_17">
    <path d="M 104.203636 43.230077 
L 199.173341 44.964757 
L 266.555418 44.557767 
L 318.821018 47.838467 
L 361.525123 45.54695 
L 397.630928 49.571504 
L 428.9072 44.018946 
L 456.494827 49.326033 
L 481.1728 51.390107 
L 503.496742 51.970402 
L 523.876904 52.579388 
L 542.624836 52.116793 
L 559.98271 51.67852 
L 576.142504 51.130252 
L 591.258982 49.068499 
L 605.45873 50.178784 
L 618.846609 49.945821 
L 631.510456 49.530244 
L 643.524582 47.663443 
L 665.848524 46.355939 
L 686.228686 44.118704 
L 704.976618 42.233842 
L 722.334492 40.427841 
L 738.494286 39.610675 
L 753.610764 38.945455 
L 767.810512 39.044245 
L 781.198391 40.034653 
L 793.862237 40.983645 
L 805.876364 42.986715 
" clip-path="url(#pfea30db6fa)" style="fill: none; stroke-dasharray: 1.2,1.2; stroke-dashoffset: 0; stroke: #55a868; stroke-width: 1.2"/>
    <defs>
     <path id="m985d0c165e" d="M -4.949747 -4.949747 
L -4.949747 4.949747 
L 4.949747 4.949747 
L 4.949747 -4.949747 
z
" style="stroke: #ffffff; stroke-width: 0.75; stroke-linejoin: miter"/>
    </defs>
    <g clip-path="url(#pfea30db6fa)">
     <use xlink:href="#m985d0c165e" x="104.203636" y="43.230077" style="fill: #55a868; stroke: #ffffff; stroke-width: 0.75; stroke-linejoin: miter"/>
     <use xlink:href="#m985d0c165e" x="199.173341" y="44.964757" style="fill: #55a868; stroke: #ffffff; stroke-width: 0.75; stroke-linejoin: miter"/>
     <use xlink:href="#m985d0c165e" x="266.555418" y="44.557767" style="fill: #55a868; stroke: #ffffff; stroke-width: 0.75; stroke-linejoin: miter"/>
     <use xlink:href="#m985d0c165e" x="318.821018" y="47.838467" style="fill: #55a868; stroke: #ffffff; stroke-width: 0.75; stroke-linejoin: miter"/>
     <use xlink:href="#m985d0c165e" x="361.525123" y="45.54695" style="fill: #55a868; stroke: #ffffff; stroke-width: 0.75; stroke-linejoin: miter"/>
     <use xlink:href="#m985d0c165e" x="397.630928" y="49.571504" style="fill: #55a868; stroke: #ffffff; stroke-width: 0.75; stroke-linejoin: miter"/>
     <use xlink:href="#m985d0c165e" x="428.9072" y="44.018946" style="fill: #55a868; stroke: #ffffff; stroke-width: 0.75; stroke-linejoin: miter"/>
     <use xlink:href="#m985d0c165e" x="456.494827" y="49.326033" style="fill: #55a868; stroke: #ffffff; stroke-width: 0.75; stroke-linejoin: miter"/>
     <use xlink:href="#m985d0c165e" x="481.1728" y="51.390107" style="fill: #55a868; stroke: #ffffff; stroke-width: 0.75; stroke-linejoin: miter"/>
     <use xlink:href="#m985d0c165e" x="503.496742" y="51.970402" style="fill: #55a868; stroke: #ffffff; stroke-width: 0.75; stroke-linejoin: miter"/>
     <use xlink:href="#m985d0c165e" x="523.876904" y="52.579388" style="fill: #55a868; stroke: #ffffff; stroke-width: 0.75; stroke-linejoin: miter"/>
     <use xlink:href="#m985d0c165e" x="542.624836" y="52.116793" style="fill: #55a868; stroke: #ffffff; stroke-width: 0.75; stroke-linejoin: miter"/>
     <use xlink:href="#m985d0c165e" x="559.98271" y="51.67852" style="fill: #55a868; stroke: #ffffff; stroke-width: 0.75; stroke-linejoin: miter"/>
     <use xlink:href="#m985d0c165e" x="576.142504" y="51.130252" style="fill: #55a868; stroke: #ffffff; stroke-width: 0.75; stroke-linejoin: miter"/>
     <use xlink:href="#m985d0c165e" x="591.258982" y="49.068499" style="fill: #55a868; stroke: #ffffff; stroke-width: 0.75; stroke-linejoin: miter"/>
     <use xlink:href="#m985d0c165e" x="605.45873" y="50.178784" style="fill: #55a868; stroke: #ffffff; stroke-width: 0.75; stroke-linejoin: miter"/>
     <use xlink:href="#m985d0c165e" x="618.846609" y="49.945821" style="fill: #55a868; stroke: #ffffff; stroke-width: 0.75; stroke-linejoin: miter"/>
     <use xlink:href="#m985d0c165e" x="631.510456" y="49.530244" style="fill: #55a868; stroke: #ffffff; stroke-width: 0.75; stroke-linejoin: miter"/>
     <use xlink:href="#m985d0c165e" x="643.524582" y="47.663443" style="fill: #55a868; stroke: #ffffff; stroke-width: 0.75; stroke-linejoin: miter"/>
     <use xlink:href="#m985d0c165e" x="665.848524" y="46.355939" style="fill: #55a868; stroke: #ffffff; stroke-width: 0.75; stroke-linejoin: miter"/>
     <use xlink:href="#m985d0c165e" x="686.228686" y="44.118704" style="fill: #55a868; stroke: #ffffff; stroke-width: 0.75; stroke-linejoin: miter"/>
     <use xlink:href="#m985d0c165e" x="704.976618" y="42.233842" style="fill: #55a868; stroke: #ffffff; stroke-width: 0.75; stroke-linejoin: miter"/>
     <use xlink:href="#m985d0c165e" x="722.334492" y="40.427841" style="fill: #55a868; stroke: #ffffff; stroke-width: 0.75; stroke-linejoin: miter"/>
     <use xlink:href="#m985d0c165e" x="738.494286" y="39.610675" style="fill: #55a868; stroke: #ffffff; stroke-width: 0.75; stroke-linejoin: miter"/>
     <use xlink:href="#m985d0c165e" x="753.610764" y="38.945455" style="fill: #55a868; stroke: #ffffff; stroke-width: 0.75; stroke-linejoin: miter"/>
     <use xlink:href="#m985d0c165e" x="767.810512" y="39.044245" style="fill: #55a868; stroke: #ffffff; stroke-width: 0.75; stroke-linejoin: miter"/>
     <use xlink:href="#m985d0c165e" x="781.198391" y="40.034653" style="fill: #55a868; stroke: #ffffff; stroke-width: 0.75; stroke-linejoin: miter"/>
     <use xlink:href="#m985d0c165e" x="793.862237" y="40.983645" style="fill: #55a868; stroke: #ffffff; stroke-width: 0.75; stroke-linejoin: miter"/>
     <use xlink:href="#m985d0c165e" x="805.876364" y="42.986715" style="fill: #55a868; stroke: #ffffff; stroke-width: 0.75; stroke-linejoin: miter"/>
    </g>
   </g>
   <g id="line2d_18">
    <path d="M 104.203636 61.970116 
L 199.173341 84.778114 
L 266.555418 121.504643 
L 318.821018 172.10315 
L 361.525123 180.007324 
L 397.630928 204.080144 
L 428.9072 186.146066 
L 456.494827 203.223559 
L 481.1728 300.434326 
L 503.496742 263.738283 
L 523.876904 267.355928 
L 542.624836 264.28856 
L 559.98271 243.502388 
L 576.142504 250.912767 
L 591.258982 236.690629 
L 605.45873 237.462367 
L 618.846609 220.085666 
L 631.510456 229.398483 
L 643.524582 193.794911 
L 665.848524 191.888385 
L 686.228686 188.524615 
L 704.976618 189.43825 
L 722.334492 187.976258 
L 738.494286 188.284921 
L 753.610764 194.95777 
L 767.810512 196.493054 
L 781.198391 199.828337 
L 793.862237 243.880146 
L 805.876364 244.736924 
" clip-path="url(#pfea30db6fa)" style="fill: none; stroke-dasharray: 3.6,1.5,1.8,1.5; stroke-dashoffset: 0; stroke: #c44e52; stroke-width: 1.2"/>
    <defs>
     <path id="mcae04fc568" d="M -2.333333 7 
L 2.333333 7 
L 2.333333 2.333333 
L 7 2.333333 
L 7 -2.333333 
L 2.333333 -2.333333 
L 2.333333 -7 
L -2.333333 -7 
L -2.333333 -2.333333 
L -7 -2.333333 
L -7 2.333333 
L -2.333333 2.333333 
z
" style="stroke: #ffffff; stroke-width: 0.75; stroke-linejoin: miter"/>
    </defs>
    <g clip-path="url(#pfea30db6fa)">
     <use xlink:href="#mcae04fc568" x="104.203636" y="61.970116" style="fill: #c44e52; stroke: #ffffff; stroke-width: 0.75; stroke-linejoin: miter"/>
     <use xlink:href="#mcae04fc568" x="199.173341" y="84.778114" style="fill: #c44e52; stroke: #ffffff; stroke-width: 0.75; stroke-linejoin: miter"/>
     <use xlink:href="#mcae04fc568" x="266.555418" y="121.504643" style="fill: #c44e52; stroke: #ffffff; stroke-width: 0.75; stroke-linejoin: miter"/>
     <use xlink:href="#mcae04fc568" x="318.821018" y="172.10315" style="fill: #c44e52; stroke: #ffffff; stroke-width: 0.75; stroke-linejoin: miter"/>
     <use xlink:href="#mcae04fc568" x="361.525123" y="180.007324" style="fill: #c44e52; stroke: #ffffff; stroke-width: 0.75; stroke-linejoin: miter"/>
     <use xlink:href="#mcae04fc568" x="397.630928" y="204.080144" style="fill: #c44e52; stroke: #ffffff; stroke-width: 0.75; stroke-linejoin: miter"/>
     <use xlink:href="#mcae04fc568" x="428.9072" y="186.146066" style="fill: #c44e52; stroke: #ffffff; stroke-width: 0.75; stroke-linejoin: miter"/>
     <use xlink:href="#mcae04fc568" x="456.494827" y="203.223559" style="fill: #c44e52; stroke: #ffffff; stroke-width: 0.75; stroke-linejoin: miter"/>
     <use xlink:href="#mcae04fc568" x="481.1728" y="300.434326" style="fill: #c44e52; stroke: #ffffff; stroke-width: 0.75; stroke-linejoin: miter"/>
     <use xlink:href="#mcae04fc568" x="503.496742" y="263.738283" style="fill: #c44e52; stroke: #ffffff; stroke-width: 0.75; stroke-linejoin: miter"/>
     <use xlink:href="#mcae04fc568" x="523.876904" y="267.355928" style="fill: #c44e52; stroke: #ffffff; stroke-width: 0.75; stroke-linejoin: miter"/>
     <use xlink:href="#mcae04fc568" x="542.624836" y="264.28856" style="fill: #c44e52; stroke: #ffffff; stroke-width: 0.75; stroke-linejoin: miter"/>
     <use xlink:href="#mcae04fc568" x="559.98271" y="243.502388" style="fill: #c44e52; stroke: #ffffff; stroke-width: 0.75; stroke-linejoin: miter"/>
     <use xlink:href="#mcae04fc568" x="576.142504" y="250.912767" style="fill: #c44e52; stroke: #ffffff; stroke-width: 0.75; stroke-linejoin: miter"/>
     <use xlink:href="#mcae04fc568" x="591.258982" y="236.690629" style="fill: #c44e52; stroke: #ffffff; stroke-width: 0.75; stroke-linejoin: miter"/>
     <use xlink:href="#mcae04fc568" x="605.45873" y="237.462367" style="fill: #c44e52; stroke: #ffffff; stroke-width: 0.75; stroke-linejoin: miter"/>
     <use xlink:href="#mcae04fc568" x="618.846609" y="220.085666" style="fill: #c44e52; stroke: #ffffff; stroke-width: 0.75; stroke-linejoin: miter"/>
     <use xlink:href="#mcae04fc568" x="631.510456" y="229.398483" style="fill: #c44e52; stroke: #ffffff; stroke-width: 0.75; stroke-linejoin: miter"/>
     <use xlink:href="#mcae04fc568" x="643.524582" y="193.794911" style="fill: #c44e52; stroke: #ffffff; stroke-width: 0.75; stroke-linejoin: miter"/>
     <use xlink:href="#mcae04fc568" x="665.848524" y="191.888385" style="fill: #c44e52; stroke: #ffffff; stroke-width: 0.75; stroke-linejoin: miter"/>
     <use xlink:href="#mcae04fc568" x="686.228686" y="188.524615" style="fill: #c44e52; stroke: #ffffff; stroke-width: 0.75; stroke-linejoin: miter"/>
     <use xlink:href="#mcae04fc568" x="704.976618" y="189.43825" style="fill: #c44e52; stroke: #ffffff; stroke-width: 0.75; stroke-linejoin: miter"/>
     <use xlink:href="#mcae04fc568" x="722.334492" y="187.976258" style="fill: #c44e52; stroke: #ffffff; stroke-width: 0.75; stroke-linejoin: miter"/>
     <use xlink:href="#mcae04fc568" x="738.494286" y="188.284921" style="fill: #c44e52; stroke: #ffffff; stroke-width: 0.75; stroke-linejoin: miter"/>
     <use xlink:href="#mcae04fc568" x="753.610764" y="194.95777" style="fill: #c44e52; stroke: #ffffff; stroke-width: 0.75; stroke-linejoin: miter"/>
     <use xlink:href="#mcae04fc568" x="767.810512" y="196.493054" style="fill: #c44e52; stroke: #ffffff; stroke-width: 0.75; stroke-linejoin: miter"/>
     <use xlink:href="#mcae04fc568" x="781.198391" y="199.828337" style="fill: #c44e52; stroke: #ffffff; stroke-width: 0.75; stroke-linejoin: miter"/>
     <use xlink:href="#mcae04fc568" x="793.862237" y="243.880146" style="fill: #c44e52; stroke: #ffffff; stroke-width: 0.75; stroke-linejoin: miter"/>
     <use xlink:href="#mcae04fc568" x="805.876364" y="244.736924" style="fill: #c44e52; stroke: #ffffff; stroke-width: 0.75; stroke-linejoin: miter"/>
    </g>
   </g>
   <g id="line2d_19"/>
   <g id="line2d_20"/>
   <g id="line2d_21"/>
   <g id="line2d_22"/>
   <g id="line2d_23">
    <path d="M 69.12 42.352775 
L 840.96 42.352775 
" clip-path="url(#pfea30db6fa)" style="fill: none; stroke-dasharray: 5.55,2.4; stroke-dashoffset: 0; stroke: #000000; stroke-width: 1.5"/>
   </g>
   <g id="patch_3">
    <path d="M 69.12 433.44 
L 69.12 20.16 
" style="fill: none; stroke: #cccccc; stroke-linejoin: miter; stroke-linecap: square"/>
   </g>
   <g id="patch_4">
    <path d="M 840.96 433.44 
L 840.96 20.16 
" style="fill: none; stroke: #cccccc; stroke-linejoin: miter; stroke-linecap: square"/>
   </g>
   <g id="patch_5">
    <path d="M 69.12 433.44 
L 840.96 433.44 
" style="fill: none; stroke: #cccccc; stroke-linejoin: miter; stroke-linecap: square"/>
   </g>
   <g id="patch_6">
    <path d="M 69.12 20.16 
L 840.96 20.16 
" style="fill: none; stroke: #cccccc; stroke-linejoin: miter; stroke-linecap: square"/>
   </g>
   <g id="patch_7">
    <path d="M 77.92 59.13575 
L 316.98575 59.13575 
L 316.98575 28.96 
L 77.92 28.96 
z
" style="fill: #ffffff; stroke: #1a1a1a; stroke-width: 0.8; stroke-linejoin: miter"/>
   </g>
   <g id="text_17">
    <!-- NVIDIA H200 - NVIDIA H100 -->
    <g style="fill: #262626" transform="translate(84.96 48.59775) scale(0.176 -0.176)">
     <defs>
      <path id="ArialMT-4e" d="M 488 0 
L 488 4581 
L 1109 4581 
L 3516 984 
L 3516 4581 
L 4097 4581 
L 4097 0 
L 3475 0 
L 1069 3600 
L 1069 0 
L 488 0 
z
" transform="scale(0.015625)"/>
      <path id="ArialMT-56" d="M 1803 0 
L 28 4581 
L 684 4581 
L 1875 1253 
Q 2019 853 2116 503 
Q 2222 878 2363 1253 
L 3600 4581 
L 4219 4581 
L 2425 0 
L 1803 0 
z
" transform="scale(0.015625)"/>
      <path id="ArialMT-49" d="M 597 0 
L 597 4581 
L 1203 4581 
L 1203 0 
L 597 0 
z
" transform="scale(0.015625)"/>
      <path id="ArialMT-41" d="M -9 0 
L 1750 4581 
L 2403 4581 
L 4278 0 
L 3588 0 
L 3053 1388 
L 1138 1388 
L 634 0 
L -9 0 
z
M 1313 1881 
L 2866 1881 
L 2388 3150 
Q 2169 3728 2063 4100 
Q 1975 3659 1816 3225 
L 1313 1881 
z
" transform="scale(0.015625)"/>
     </defs>
     <use xlink:href="#ArialMT-4e"/>
     <use xlink:href="#ArialMT-56" transform="translate(72.216797 0)"/>
     <use xlink:href="#ArialMT-49" transform="translate(138.916016 0)"/>
     <use xlink:href="#ArialMT-44" transform="translate(166.699219 0)"/>
     <use xlink:href="#ArialMT-49" transform="translate(238.916016 0)"/>
     <use xlink:href="#ArialMT-41" transform="translate(266.699219 0)"/>
     <use xlink:href="#ArialMT-20" transform="translate(327.898438 0)"/>
     <use xlink:href="#ArialMT-48" transform="translate(355.681641 0)"/>
     <use xlink:href="#ArialMT-32" transform="translate(427.898438 0)"/>
     <use xlink:href="#ArialMT-30" transform="translate(483.513672 0)"/>
     <use xlink:href="#ArialMT-30" transform="translate(539.128906 0)"/>
     <use xlink:href="#ArialMT-20" transform="translate(594.744141 0)"/>
     <use xlink:href="#ArialMT-2d" transform="translate(622.527344 0)"/>
     <use xlink:href="#ArialMT-20" transform="translate(655.828125 0)"/>
     <use xlink:href="#ArialMT-4e" transform="translate(683.611328 0)"/>
     <use xlink:href="#ArialMT-56" transform="translate(755.828125 0)"/>
     <use xlink:href="#ArialMT-49" transform="translate(822.527344 0)"/>
     <use xlink:href="#ArialMT-44" transform="translate(850.310547 0)"/>
     <use xlink:href="#ArialMT-49" transform="translate(922.527344 0)"/>
     <use xlink:href="#ArialMT-41" transform="translate(950.310547 0)"/>
     <use xlink:href="#ArialMT-20" transform="translate(1011.509766 0)"/>
     <use xlink:href="#ArialMT-48" transform="translate(1039.292969 0)"/>
     <use xlink:href="#ArialMT-31" transform="translate(1111.509766 0)"/>
     <use xlink:href="#ArialMT-30" transform="translate(1167.125 0)"/>
     <use xlink:href="#ArialMT-30" transform="translate(1222.740234 0)"/>
    </g>
   </g>
  </g>
  <g id="legend_1">
   <g id="line2d_24">
    <path d="M 871.04 48.789875 
L 890.4 48.789875 
L 909.76 48.789875 
" style="fill: none; stroke: #4c72b0; stroke-width: 1.2; stroke-linecap: round"/>
    <g>
     <use xlink:href="#m018d728d88" x="890.4" y="48.789875" style="fill: #4c72b0; stroke: #ffffff; stroke-width: 0.75"/>
    </g>
   </g>
   <g id="text_18">
    <!-- Batched Face-based -->
    <g style="fill: #262626" transform="translate(923.84 54.949875) scale(0.176 -0.176)">
     <defs>
      <path id="ArialMT-46" d="M 525 0 
L 525 4581 
L 3616 4581 
L 3616 4041 
L 1131 4041 
L 1131 2622 
L 3281 2622 
L 3281 2081 
L 1131 2081 
L 1131 0 
L 525 0 
z
" transform="scale(0.015625)"/>
      <path id="ArialMT-62" d="M 941 0 
L 419 0 
L 419 4581 
L 981 4581 
L 981 2947 
Q 1338 3394 1891 3394 
Q 2197 3394 2470 3270 
Q 2744 3147 2920 2923 
Q 3097 2700 3197 2384 
Q 3297 2069 3297 1709 
Q 3297 856 2875 390 
Q 2453 -75 1863 -75 
Q 1275 -75 941 416 
L 941 0 
z
M 934 1684 
Q 934 1088 1097 822 
Q 1363 388 1816 388 
Q 2184 388 2453 708 
Q 2722 1028 2722 1663 
Q 2722 2313 2464 2622 
Q 2206 2931 1841 2931 
Q 1472 2931 1203 2611 
Q 934 2291 934 1684 
z
" transform="scale(0.015625)"/>
     </defs>
     <use xlink:href="#ArialMT-42"/>
     <use xlink:href="#ArialMT-61" transform="translate(66.699219 0)"/>
     <use xlink:href="#ArialMT-74" transform="translate(122.314453 0)"/>
     <use xlink:href="#ArialMT-63" transform="translate(150.097656 0)"/>
     <use xlink:href="#ArialMT-68" transform="translate(200.097656 0)"/>
     <use xlink:href="#ArialMT-65" transform="translate(255.712891 0)"/>
     <use xlink:href="#ArialMT-64" transform="translate(311.328125 0)"/>
     <use xlink:href="#ArialMT-20" transform="translate(366.943359 0)"/>
     <use xlink:href="#ArialMT-46" transform="translate(394.726562 0)"/>
     <use xlink:href="#ArialMT-61" transform="translate(455.810547 0)"/>
     <use xlink:href="#ArialMT-63" transform="translate(511.425781 0)"/>
     <use xlink:href="#ArialMT-65" transform="translate(561.425781 0)"/>
     <use xlink:href="#ArialMT-2d" transform="translate(617.041016 0)"/>
     <use xlink:href="#ArialMT-62" transform="translate(650.341797 0)"/>
     <use xlink:href="#ArialMT-61" transform="translate(705.957031 0)"/>
     <use xlink:href="#ArialMT-73" transform="translate(761.572266 0)"/>
     <use xlink:href="#ArialMT-65" transform="translate(811.572266 0)"/>
     <use xlink:href="#ArialMT-64" transform="translate(867.1875 0)"/>
    </g>
   </g>
  </g>
  <g id="legend_2">
   <g id="line2d_25">
    <path d="M 871.04 168.069875 
L 890.4 168.069875 
L 909.76 168.069875 
" style="fill: none; stroke-dasharray: 1.2,1.2; stroke-dashoffset: 0; stroke: #55a868; stroke-width: 1.2"/>
    <g>
     <use xlink:href="#m985d0c165e" x="890.4" y="168.069875" style="fill: #55a868; stroke: #ffffff; stroke-width: 0.75; stroke-linejoin: miter"/>
    </g>
   </g>
   <g id="text_19">
    <!-- Face-based -->
    <g style="fill: #262626" transform="translate(923.84 174.229875) scale(0.176 -0.176)">
     <use xlink:href="#ArialMT-46"/>
     <use xlink:href="#ArialMT-61" transform="translate(61.083984 0)"/>
     <use xlink:href="#ArialMT-63" transform="translate(116.699219 0)"/>
     <use xlink:href="#ArialMT-65" transform="translate(166.699219 0)"/>
     <use xlink:href="#ArialMT-2d" transform="translate(222.314453 0)"/>
     <use xlink:href="#ArialMT-62" transform="translate(255.615234 0)"/>
     <use xlink:href="#ArialMT-61" transform="translate(311.230469 0)"/>
     <use xlink:href="#ArialMT-73" transform="translate(366.845703 0)"/>
     <use xlink:href="#ArialMT-65" transform="translate(416.845703 0)"/>
     <use xlink:href="#ArialMT-64" transform="translate(472.460938 0)"/>
    </g>
   </g>
  </g>
  <g id="legend_3">
   <g id="line2d_26">
    <path d="M 871.04 287.349875 
L 890.4 287.349875 
L 909.76 287.349875 
" style="fill: none; stroke-dasharray: 3.6,1.5,1.8,1.5; stroke-dashoffset: 0; stroke: #c44e52; stroke-width: 1.2"/>
    <g>
     <use xlink:href="#mcae04fc568" x="890.4" y="287.349875" style="fill: #c44e52; stroke: #ffffff; stroke-width: 0.75; stroke-linejoin: miter"/>
    </g>
   </g>
   <g id="text_20">
    <!-- Global Face-based -->
    <g style="fill: #262626" transform="translate(923.84 293.509875) scale(0.176 -0.176)">
     <defs>
      <path id="ArialMT-6f" d="M 213 1659 
Q 213 2581 725 3025 
Q 1153 3394 1769 3394 
Q 2453 3394 2887 2945 
Q 3322 2497 3322 1706 
Q 3322 1066 3130 698 
Q 2938 331 2570 128 
Q 2203 -75 1769 -75 
Q 1072 -75 642 372 
Q 213 819 213 1659 
z
M 791 1659 
Q 791 1022 1069 705 
Q 1347 388 1769 388 
Q 2188 388 2466 706 
Q 2744 1025 2744 1678 
Q 2744 2294 2464 2611 
Q 2184 2928 1769 2928 
Q 1347 2928 1069 2612 
Q 791 2297 791 1659 
z
" transform="scale(0.015625)"/>
     </defs>
     <use xlink:href="#ArialMT-47"/>
     <use xlink:href="#ArialMT-6c" transform="translate(77.783203 0)"/>
     <use xlink:href="#ArialMT-6f" transform="translate(100 0)"/>
     <use xlink:href="#ArialMT-62" transform="translate(155.615234 0)"/>
     <use xlink:href="#ArialMT-61" transform="translate(211.230469 0)"/>
     <use xlink:href="#ArialMT-6c" transform="translate(266.845703 0)"/>
     <use xlink:href="#ArialMT-20" transform="translate(289.0625 0)"/>
     <use xlink:href="#ArialMT-46" transform="translate(316.845703 0)"/>
     <use xlink:href="#ArialMT-61" transform="translate(377.929688 0)"/>
     <use xlink:href="#ArialMT-63" transform="translate(433.544922 0)"/>
     <use xlink:href="#ArialMT-65" transform="translate(483.544922 0)"/>
     <use xlink:href="#ArialMT-2d" transform="translate(539.160156 0)"/>
     <use xlink:href="#ArialMT-62" transform="translate(572.460938 0)"/>
     <use xlink:href="#ArialMT-61" transform="translate(628.076172 0)"/>
     <use xlink:href="#ArialMT-73" transform="translate(683.691406 0)"/>
     <use xlink:href="#ArialMT-65" transform="translate(733.691406 0)"/>
     <use xlink:href="#ArialMT-64" transform="translate(789.306641 0)"/>
    </g>
   </g>
  </g>
  <g id="legend_4">
   <g id="line2d_27">
    <path d="M 871.04 406.629875 
L 890.4 406.629875 
L 909.76 406.629875 
" style="fill: none; stroke-dasharray: 4.8,1.8; stroke-dashoffset: 0; stroke: #dd8452; stroke-width: 1.2"/>
    <g>
     <use xlink:href="#m2691504d08" x="890.4" y="406.629875" style="fill: #dd8452; stroke: #ffffff; stroke-width: 0.75; stroke-linejoin: miter"/>
    </g>
   </g>
   <g id="text_21">
    <!-- Cell-based -->
    <g style="fill: #262626" transform="translate(923.84 412.789875) scale(0.176 -0.176)">
     <use xlink:href="#ArialMT-43"/>
     <use xlink:href="#ArialMT-65" transform="translate(72.216797 0)"/>
     <use xlink:href="#ArialMT-6c" transform="translate(127.832031 0)"/>
     <use xlink:href="#ArialMT-6c" transform="translate(150.048828 0)"/>
     <use xlink:href="#ArialMT-2d" transform="translate(172.265625 0)"/>
     <use xlink:href="#ArialMT-62" transform="translate(205.566406 0)"/>
     <use xlink:href="#ArialMT-61" transform="translate(261.181641 0)"/>
     <use xlink:href="#ArialMT-73" transform="translate(316.796875 0)"/>
     <use xlink:href="#ArialMT-65" transform="translate(366.796875 0)"/>
     <use xlink:href="#ArialMT-64" transform="translate(422.412109 0)"/>
    </g>
   </g>
  </g>
 </g>
 <defs>
  <clipPath id="pfea30db6fa">
   <rect x="69.12" y="20.16" width="771.84" height="413.28"/>
  </clipPath>
 </defs>
</svg>
